<?xml version="1.0" encoding="utf-8"?>
<!-- Generator: Adobe Illustrator 26.4.1, SVG Export Plug-In . SVG Version: 6.00 Build 0)  -->
<svg version="1.1" id="Layer_1" xmlns="http://www.w3.org/2000/svg" xmlns:xlink="http://www.w3.org/1999/xlink" x="0px" y="0px"
	 viewBox="0 0 60 40" style="enable-background:new 0 0 60 40;" xml:space="preserve">
<style type="text/css">
	.st0{clip-path:url(#SVGID_00000058548561178379606810000000319606212986597040_);}
	.st1{fill:#D41C1B;}
</style>
<g>
	<g>
		<defs>
			<rect id="SVGID_1_" x="2.5" y="0.6" width="55" height="38.8"/>
		</defs>
		<clipPath id="SVGID_00000088116510521936204220000013143810316998310079_">
			<use xlink:href="#SVGID_1_"  style="overflow:visible;"/>
		</clipPath>
		<g id="Groupe_771" style="clip-path:url(#SVGID_00000088116510521936204220000013143810316998310079_);">
			<path id="Tracé_415" class="st1" d="M12.8,25.9c-1.4,3.3-3.3,6.3-5.7,8.9c-0.8,0.9-0.9,2.2-0.3,3.3c0.5,0.8,1.3,1.3,2.3,1.2
				c0.3,0,0.5,0,0.8-0.1c5.4-1.6,18-7.2,18.3-25.1c0.2-6.8-4.8-12.7-11.5-13.5c-3.6-0.4-7.3,0.8-10,3.2C4,6.4,2.5,9.8,2.5,13.5
				C2.5,19.5,6.8,24.8,12.8,25.9"/>
			<path id="Tracé_416" class="st1" d="M46,0.7C38.9-0.1,32.6,5,31.8,12.1c0,0.5-0.1,0.9-0.1,1.4c0,6.1,4.3,11.3,10.3,12.5
				c-1.4,3.3-3.3,6.3-5.7,9c-0.8,0.9-0.9,2.2-0.3,3.3c0.5,0.8,1.3,1.3,2.3,1.2c0.3,0,0.5,0,0.8-0.1c5.4-1.6,18-7.2,18.3-25.1v-0.3
				C57.6,7.2,52.6,1.5,46,0.7"/>
		</g>
	</g>
</g>
</svg>
