<?xml version="1.0" encoding="utf-8"?>
<!-- Generator: Adobe Illustrator 26.4.1, SVG Export Plug-In . SVG Version: 6.00 Build 0)  -->
<svg version="1.1" id="Layer_1" xmlns="http://www.w3.org/2000/svg" xmlns:xlink="http://www.w3.org/1999/xlink" x="0px" y="0px"
	 viewBox="0 0 40 60" style="enable-background:new 0 0 40 60;" xml:space="preserve">
<style type="text/css">
	.st0{fill:#FFFFFF;}
</style>
<g id="Groupe_782" transform="translate(-943 -724.001)">
	<g id="Groupe_779" transform="translate(943 773.045) rotate(-90)">
		<path id="Tracé_60" class="st0" d="M12,37.5c-0.4,0-0.8-0.2-1.1-0.5L-5,21.1c-0.6-0.6-0.6-1.6,0-2.2c0,0,0,0,0,0L10.9,3
			c0.6-0.6,1.6-0.6,2.2,0s0.6,1.6,0,2.2c0,0,0,0,0,0L-1.6,20l14.8,14.8c0.6,0.6,0.6,1.6,0,2.3C12.8,37.3,12.4,37.5,12,37.5L12,37.5z
			"/>
	</g>
	<g id="Groupe_780" transform="translate(943 758.045) rotate(-90)">
		<path id="Tracé_60-2" class="st0" d="M12,37.5c-0.4,0-0.8-0.2-1.1-0.5L-5,21.1c-0.6-0.6-0.6-1.6,0-2.2c0,0,0,0,0,0L10.9,3
			c0.6-0.6,1.6-0.6,2.2,0s0.6,1.6,0,2.2c0,0,0,0,0,0L-1.6,20l14.8,14.8c0.6,0.6,0.6,1.6,0,2.3C12.8,37.3,12.4,37.5,12,37.5L12,37.5z
			"/>
	</g>
	<g id="Groupe_781" transform="translate(943 743.092) rotate(-90)">
		<path id="Tracé_60-3" class="st0" d="M12,37.5c-0.4,0-0.8-0.2-1.1-0.5L-5,21.1c-0.6-0.6-0.6-1.6,0-2.2c0,0,0,0,0,0L10.9,3
			c0.6-0.6,1.6-0.6,2.2,0s0.6,1.6,0,2.2c0,0,0,0,0,0L-1.6,20l14.8,14.8c0.6,0.6,0.6,1.6,0,2.3C12.8,37.3,12.4,37.5,12,37.5L12,37.5z
			"/>
	</g>
</g>
</svg>
