<?xml version="1.0" encoding="utf-8"?>
<!-- Generator: Adobe Illustrator 26.0.2, SVG Export Plug-In . SVG Version: 6.00 Build 0)  -->
<svg version="1.1" id="Layer_1" xmlns="http://www.w3.org/2000/svg" xmlns:xlink="http://www.w3.org/1999/xlink" x="0px" y="0px"
	 viewBox="0 0 26 26" style="enable-background:new 0 0 26 26;" xml:space="preserve">
<style type="text/css">
	.st0{fill:#2E1414;}
	.st1{opacity:0.5;fill:#D41C1B;}
</style>
<g>
	<path class="st0" d="M13.9,16.4c-1.4-0.3-3.1-0.4-4.8-0.4c-2.3,0-4.4,0.2-6.1,0.7C2.2,17,1.5,17.4,0.9,18C0.3,18.6,0,19.4,0,20.3
		c0,0.9,0.3,1.7,0.9,2.3c0.8,0.9,2.1,1.3,3.5,1.6c1.4,0.3,3.1,0.4,4.8,0.4c2.3,0,4.4-0.2,6.1-0.7c0.8-0.3,1.6-0.7,2.1-1.3
		c0.6-0.6,0.9-1.4,0.9-2.3c0-0.9-0.3-1.7-0.9-2.3C16.6,17.2,15.3,16.7,13.9,16.4z M16.2,21.4c-0.4,0.5-1.3,0.9-2.6,1.1
		c-1.2,0.2-2.8,0.3-4.4,0.3c-2.2,0-4.2-0.2-5.6-0.7c-0.7-0.2-1.2-0.5-1.5-0.8c-0.3-0.3-0.4-0.6-0.4-1.1c0-0.5,0.1-0.8,0.4-1.1
		c0.4-0.5,1.3-0.9,2.6-1.1c1.2-0.2,2.8-0.3,4.4-0.3c2.2,0,4.2,0.2,5.6,0.7c0.7,0.2,1.2,0.5,1.5,0.8c0.3,0.3,0.4,0.6,0.4,1.1
		C16.6,20.8,16.5,21.1,16.2,21.4z M3,7.6C3,7.6,3,7.6,3,7.6L3,7.6L3,7.6z M9.1,13.8L9.1,13.8L9.1,13.8L9.1,13.8
		c3.5,0,6.2-2.8,6.2-6.2v0l0,0l0,0v0c0-3.4-2.8-6.2-6.2-6.2h0l0,0C5.7,1.4,3,4.2,3,7.6l0,0.1C3,11,5.7,13.8,9.1,13.8z M4.7,7.6
		L4.7,7.6L4.7,7.6c0-1.2,0.5-2.4,1.3-3.2c0.8-0.8,1.9-1.3,3.2-1.3h0c1.2,0,2.4,0.5,3.2,1.3c0.8,0.8,1.3,1.9,1.3,3.2v0l0,0l0,0v0
		c0,2.5-2,4.5-4.5,4.5l0,0C6.7,12.1,4.7,10.1,4.7,7.6L4.7,7.6z"/>
	<path class="st1" d="M20,13c0,0.5,0.4,0.8,0.8,0.8h4.3c0.5,0,0.8-0.4,0.8-0.8c0-0.5-0.4-0.8-0.8-0.8h-4.3C20.4,12.1,20,12.5,20,13z
		 M16.9,13.6l3.4,3.4c0.3,0.3,0.9,0.3,1.2,0c0.3-0.3,0.3-0.9,0-1.2L18.6,13l2.8-2.8c0.3-0.3,0.3-0.9,0-1.2s-0.9-0.3-1.2,0l-3.4,3.4
		C16.5,12.7,16.5,13.2,16.9,13.6z"/>
</g>
</svg>
