<?xml version="1.0" encoding="utf-8"?>
<!-- Generator: Adobe Illustrator 26.0.2, SVG Export Plug-In . SVG Version: 6.00 Build 0)  -->
<svg version="1.1" id="Layer_1" xmlns="http://www.w3.org/2000/svg" xmlns:xlink="http://www.w3.org/1999/xlink" x="0px" y="0px"
	 viewBox="0 0 1920 1080" style="enable-background:new 0 0 1920 1080;" xml:space="preserve">
<style type="text/css">
	.st0{opacity:0.2;fill:#FFFFFF;enable-background:new    ;}
	.st1{opacity:0.2;enable-background:new    ;}
	.st2{fill:#FFFFFF;}
</style>
<path class="st0" d="M534.9,592.5l198.8-0.5l1.9,0.1l13.9,1l16,1.2l0,0c1.5,0.1,3,0.3,4.5,0.4l0.1,0c28.1,2.5,73.1,6.2,123.6,9.4
	l0.3,0c130.2,8.4,296.5,13.6,302.1-13.6c0.7-3.6,389.7,6.2,389.7,6.2s-70.8-25.9-105.7-30.5c-34.9-4.6-37.7,13.6-37.7,13.6
	s-5.6-10.6-16.9-25.2c-21.8-28.1-74.6-87.5-140.3-98.5c-79.4-13.3-90.7,33.2-84.1,56.8c-9.8-8.1-21.9-16.2-33.3-19.9
	c-41.4-13.8-44,7.4-44,7.4s-9.2-27.9-46.4-34.8c-5.2-1-9.5-1.2-12.9-0.9c-1.3,0.1-2.4,0.3-3.4,0.5c-0.2-0.5-0.5-0.9-0.7-1.4
	c-10.3-19.6-34.1-38.1-87.3-38.7c-88.8-1-145.2,91-165.9,132.1l0,0l-0.3,0.6c-1.8,3.6-3.3,6.8-4.6,9.5l-0.1,0.1
	c-2.6,5.7-4,9.1-4,9.1s0-0.2-0.1-0.7c0,0,0,0,0,0c-0.6-3.7-4.2-20.5-23-20.1c-5.3,0.1-10,1.9-14.1,4.7c-7.5,5.1-12.8,13.5-16.2,20.3
	c-1.9-1.4-4-2.6-6.5-3.5c-2-0.7-4.1-1.2-6.5-1.4c-14.7-1-19.5,12.8-19.5,12.8s-63.6-24.1-97.1-22
	C581.6,568.7,534.9,592.5,534.9,592.5z"/>
<path class="st0" d="M1827.2,712.5l-33.6,0.5l-6.8,0l-68.7-0.1l-100.2-0.1l-158.6-0.2c0,0,35.2-14.1,54.4-11.6
	c3.4,0.4,5.3,1.6,6.5,2.8c1.6,1.8,1.5,3.7,1.5,3.7s1-1.5,3.1-3.4c3.3-3,9-7,17.3-7.6c6.5-0.5,9.7,0.9,11.4,2.5c0,0,0,0,0,0
	c1.8,1.7,1.7,3.6,1.7,3.6s4.5-8.2,15.8-17.1c15.4-12.2,43.6-26,90.6-22.7c30.5,2.1,47.1,7.8,55.8,14.1c0.1,0.1,0.2,0.1,0.3,0.2
	c14,10.2,7.5,21.9,7.2,22.3c0.3-0.2,5.4-4.3,15.9-7.6c8-2.5,19.1-4.6,33.7-4.1C1808.5,688.8,1827.2,712.5,1827.2,712.5z"/>
<g class="st1">
	<path class="st2" d="M346.8,508.8l39.6,1l8.1,0l80.9,0.4l118,0.6l186.9,0.9c0,0-42-20.3-64.5-16.9c-4,0.6-6.2,2.2-7.5,3.9
		c-1.9,2.5-1.7,5.2-1.7,5.2s-1.3-2.1-3.8-4.8c-3.9-4.3-10.9-10-20.6-11c-7.6-0.8-11.4,1.2-13.3,3.4c0,0,0,0,0,0
		c-2,2.4-1.8,5.1-1.8,5.1s-5.6-11.6-19.2-24.4c-18.6-17.4-54.3-50-109.5-44.6c-51.8,5.1-71.8,62.6-71.5,63.2
		c-0.3-0.3-6.5-6.1-19-10.9c-9.5-3.6-22.7-6.6-39.8-6.1C368.1,475.3,346.8,508.8,346.8,508.8z"/>
</g>
<path class="st0" d="M92.8,701.5l20.3,0.3l4.1-0.1l41.3-0.6l60.3-0.9l95.4-1.4c0,0-22.1-13.8-33.5-11.2c-2,0.5-3.1,1.6-3.7,2.9
	c-0.9,1.8-0.7,3.7-0.7,3.7s-0.7-1.5-2.1-3.3c-2.2-3-5.9-6.9-10.9-7.5c-3.9-0.5-5.8,1-6.7,2.6c0,0,0,0,0,0c-0.9,1.7-0.8,3.6-0.8,3.6
	s-3.2-8.1-10.6-16.9c-10.1-12.1-28-25.5-56-21.9c-18.2,2.4-27.8,8.2-32.7,14.5c-0.1,0.1-0.1,0.1-0.2,0.2
	c-7.7,10.3-3.1,21.9-2.9,22.3c-0.2-0.2-3.5-4.2-10-7.5c-5-2.4-11.8-4.4-20.5-3.8C102.5,677.8,92.8,701.5,92.8,701.5z"/>
</svg>
