<?xml version="1.0" encoding="utf-8"?>
<!-- Generator: Adobe Illustrator 26.0.2, SVG Export Plug-In . SVG Version: 6.00 Build 0)  -->
<svg version="1.1" id="Layer_1" xmlns="http://www.w3.org/2000/svg" xmlns:xlink="http://www.w3.org/1999/xlink" x="0px" y="0px"
	 viewBox="0 0 26 26" style="enable-background:new 0 0 26 26;" xml:space="preserve">
<style type="text/css">
	.st0{fill:#2E1414;}
	.st1{opacity:0.5;fill:#D41C1B;enable-background:new    ;}
</style>
<g>
	<path class="st0" d="M13,23.4l0-0.8l0,0.3l0.2-0.3L13,22.6l0,0.3l0.2-0.3l-0.4,0.7l0.4-0.7c-2-1.3-4-2.8-5.8-4.4l0,0
		c-2-1.7-3.4-3.3-4.4-4.7c-1-1.4-1.4-2.6-1.4-3.5v0l0,0l0-0.1c0-3.6,2.9-6.5,6.5-6.5l0-0.8l0,0.8l0,0c1.6,0,3.2,0.6,4.3,1.7L13,5.7
		l0.6-0.5c1.2-1.1,2.7-1.7,4.3-1.7l0,0l0-0.8l0,0.8c3.6,0,6.5,3,6.5,6.5l0,0.1l0,0v0c0,1-0.4,2.1-1.4,3.5c-0.9,1.4-2.4,3-4.4,4.7
		l0,0c-1.8,1.6-3.8,3-5.8,4.4l0.4,0.7l-0.4-0.7l0.2,0.3l0-0.3l-0.2,0.1l0.2,0.3l0-0.3l0,0L13,23.4l0,0.8c0.2,0,0.5-0.1,0.7-0.2l0,0
		l0,0c2.1-1.4,4.1-2.9,6-4.5l0,0l0,0c2-1.8,3.6-3.4,4.6-5c1.1-1.6,1.6-3,1.7-4.5h-0.8l0.8,0l0-0.1c0-4.5-3.6-8.1-8.1-8.2l0,0l0,0
		l0,0c-2,0-4,0.8-5.5,2.2L13,4.6L13.6,4c-1.5-1.4-3.4-2.2-5.5-2.2l0,0l0,0l0,0C3.6,1.9,0,5.5,0,10l0,0.1l0.8,0H0
		c0,1.4,0.6,2.9,1.7,4.5c1.1,1.6,2.6,3.2,4.6,5l0,0l0,0c1.9,1.6,3.9,3.1,6,4.5l0,0l0,0c0.2,0.1,0.4,0.2,0.7,0.2h0l0,0L13,23.4z"/>
	<path id="Tracé_15" class="st1" d="M21.7,9.7c-0.3,0-0.7-0.3-0.8-0.6C20.2,7,18.2,6,16.4,6.9c-0.4,0.2-0.8,0-1-0.3
		c0,0,0-0.1,0-0.1c-0.2-0.5,0-1,0.4-1.3l0,0c2.6-1.3,5.6,0.1,6.7,3.2c0.2,0.5,0,1-0.4,1.3C21.9,9.6,21.8,9.7,21.7,9.7L21.7,9.7z"/>
</g>
</svg>
