<?xml version="1.0" encoding="utf-8"?>
<!-- Generator: Adobe Illustrator 26.0.2, SVG Export Plug-In . SVG Version: 6.00 Build 0)  -->
<svg version="1.1" id="Layer_1" xmlns="http://www.w3.org/2000/svg" xmlns:xlink="http://www.w3.org/1999/xlink" x="0px" y="0px"
	 viewBox="0 0 26 26" style="enable-background:new 0 0 26 26;" xml:space="preserve">
<style type="text/css">
	.st0{opacity:0.5;fill:#DA1D1A;}
	.st1{fill:#2E1414;}
</style>
<g>
	<circle id="Ellipse_62" class="st0" cx="7.2" cy="10.7" r="2.4"/>
	<circle id="Ellipse_64" class="st0" cx="18.8" cy="10.7" r="2.4"/>
	<path class="st1" d="M25,23l0-0.1l0,0L24.3,8.7l0,0c-0.1-1.6-1.4-2.9-3-2.9h0h0h-1.7C19.2,2.5,16.4,0,13,0C9.6,0,6.8,2.5,6.4,5.8
		H4.7h0h0c-1.6,0-2.9,1.3-3,2.9l0,0L1,22.8v0L1,23c0,1.6,1.3,2.9,2.9,3l0,0L4,26l0,0h18h0C23.7,26,25,24.6,25,23L25,23z M9.5,3.2
		c0.9-0.9,2.1-1.4,3.5-1.4c1.4,0,2.6,0.5,3.5,1.4c0.7,0.7,1.2,1.6,1.4,2.6H8.2C8.3,4.8,8.8,3.9,9.5,3.2z M22,24.2L22,24.2H4l-0.1,0
		c-0.7,0-1.2-0.6-1.2-1.2l0-0.1v0L3.4,8.8l0,0c0-0.7,0.6-1.2,1.2-1.2h0h0h1.6v2.2c0,0.5,0.4,0.9,0.9,0.9c0.5,0,0.9-0.4,0.9-0.9V7.6
		h9.8v2.2c0,0.5,0.4,0.9,0.9,0.9c0.5,0,0.9-0.4,0.9-0.9V7.6h1.6h0c0.7,0,1.2,0.5,1.2,1.2l0,0l0.7,14.1l0,0.1
		C23.2,23.7,22.7,24.2,22,24.2z"/>
</g>
</svg>
