<?xml version="1.0" encoding="utf-8"?>
<!-- Generator: Adobe Illustrator 26.0.2, SVG Export Plug-In . SVG Version: 6.00 Build 0)  -->
<svg version="1.1" id="Layer_1" xmlns="http://www.w3.org/2000/svg" xmlns:xlink="http://www.w3.org/1999/xlink" x="0px" y="0px"
	 viewBox="0 0 60 70" style="enable-background:new 0 0 60 70;" xml:space="preserve">
<style type="text/css">
	.st0{fill:#FFFFFF;}
</style>
<path id="Tracé_1" class="st0" d="M37.6,45.9c-2.5,2.2-5.9,3.9-11.2,6.5c-0.3,0.2-0.5,0.4-0.6,0.8c-0.5,1.5-1,3.1-1.7,4.5
	c-0.1,0.1,0,0.2,0.1,0.3c0,0,0.1,0,0.2,0c6.2-1.7,13.1-8,13.7-11.9c0-0.1-0.1-0.2-0.2-0.2C37.7,45.8,37.6,45.8,37.6,45.9z
	 M59.5,15.3l-15.9-7c-0.2-0.1-0.3-0.2-0.4-0.4c-1.8-3.5-5.8-5.4-9.6-4.5c-4.1,0.9-7,4.6-6.9,8.8v0.7c-0.1,3.5,1.9,6.7,5,8.2l0,0
	c0,0,0.1,0,0.2,0.1c0.1,0,0.1,0.1,0.2,0.1c1,0.5,3.6,1.9,3.6,4.5c0,0.4-0.3,0.7-0.7,0.7c0,0,0,0-0.1,0c-6.3-0.7-12.6,0.6-18.2,3.6
	C7.7,35,1.7,43.9,0.5,54c0,0.2,0.1,0.4,0.4,0.5c0.1,0,0.2,0,0.3-0.1c2.2-2,4.6-3.6,7.2-4.9c-3.7,5.9-5.4,13-4.6,20
	c0,0.2,0.2,0.4,0.4,0.4c0.2,0,0.3-0.1,0.3-0.3c1.1-3.3,5.1-10.3,15-15.6s15.1-7.2,18.5-10.5c3.5-3.2,5.5-7.6,5.6-12.3
	c-0.1-3.7-0.8-7.4-3.1-9.3c-2.8-2.2-6.5-4-5.1-7.3c0.5-1.2,1.5-2.1,2.7-2.5c1-0.4,2-0.5,3.1-0.4C47.4,12.4,53.5,13.7,59.5,15.3
	C59.5,15.4,59.5,15.4,59.5,15.3C59.5,15.4,59.5,15.3,59.5,15.3z M34.4,31.4c-9.4,0.4-17.7,6.3-21,15.1c0,0.1-0.1,0.1-0.1,0.1
	c0,0-0.1-0.1-0.1-0.1C14,37,22.3,30,31.7,30.7c0.9,0.1,1.8,0.2,2.7,0.4C34.5,31.2,34.6,31.2,34.4,31.4
	C34.5,31.3,34.5,31.4,34.4,31.4L34.4,31.4z M21.5,6.1c6.9,0.2,7-4.5,13.9-4.5c2.4-0.1,4.8,0.7,6.7,2.3c0.1,0.1,0.2,0.1,0.2,0
	c0.1-0.1,0.1-0.2,0-0.2c-1.6-2.4-4.3-3.8-7.2-3.5c-6.7,0-7.3,4.3-13.1,4.5c-3.3,0-6.4-1.2-8.9-3.3c-0.1-0.1-0.2,0-0.2,0
	c0,0,0,0.1,0,0.2C14.8,4.4,18,6.2,21.5,6.1L21.5,6.1z"/>
</svg>
