<?xml version="1.0" encoding="utf-8"?>
<!-- Generator: Adobe Illustrator 26.0.2, SVG Export Plug-In . SVG Version: 6.00 Build 0)  -->
<svg version="1.1" id="benu-icon-search" xmlns="http://www.w3.org/2000/svg" xmlns:xlink="http://www.w3.org/1999/xlink" x="0px" y="0px" viewBox="0 0 26 26" style="enable-background:new 0 0 26 26;" xml:space="preserve">
    <g>
        <path class="svg-primary" d="M25.7,24.2l-6.9-6.9c1.5-1.8,2.4-4.1,2.4-6.7C21.1,4.7,16.4,0,10.6,0C4.7,0,0,4.7,0,10.6s4.7,10.6,10.6,10.6
            c2.5,0,4.8-0.9,6.7-2.4l6.9,6.9c0.2,0.2,0.5,0.3,0.8,0.3c0.3,0,0.6-0.1,0.8-0.3C26.1,25.3,26.1,24.6,25.7,24.2z M2.2,10.6
            c0-4.6,3.8-8.4,8.4-8.4c4.6,0,8.4,3.8,8.4,8.4c0,4.6-3.8,8.4-8.4,8.4C5.9,19,2.2,15.2,2.2,10.6z"/>
    </g>
    <g>
        <path class="svg-fill-primary-light" d="M8.1,7c0.2-0.2,0.5-0.3,0.7-0.4c0.3-0.1,0.5-0.2,0.8-0.3c0.3-0.1,0.6-0.1,0.9-0.1h0c0.3,0,0.6,0,0.9,0.1
            c0.3,0.1,0.6,0.1,0.8,0.3C12.5,6.7,12.8,6.8,13,7c0.2,0.2,0.4,0.3,0.6,0.5c0.2,0.2,0.4,0.4,0.5,0.6c0.2,0.2,0.3,0.5,0.4,0.7
            c0.1,0.3,0.2,0.5,0.3,0.8c0.1,0.5,0.6,0.9,1.2,0.8c0.5-0.1,0.9-0.6,0.8-1.2c-0.1-0.4-0.2-0.8-0.4-1.2c-0.2-0.4-0.4-0.7-0.6-1.1
            c-0.2-0.3-0.5-0.7-0.8-0.9c-0.3-0.3-0.6-0.5-0.9-0.8c-0.3-0.2-0.7-0.4-1.1-0.6c-0.4-0.2-0.8-0.3-1.2-0.4c-0.4-0.1-0.8-0.1-1.3-0.1
            h0c-0.4,0-0.9,0-1.3,0.1C8.9,4.4,8.5,4.6,8.1,4.7C7.7,4.9,7.3,5.1,7,5.3C6.6,5.6,6.4,6.2,6.7,6.7C7.1,7.1,7.7,7.3,8.1,7L8.1,7z"/>
    </g>
</svg>
