<?xml version="1.0" encoding="utf-8"?>
<!-- Generator: Adobe Illustrator 26.0.2, SVG Export Plug-In . SVG Version: 6.00 Build 0)  -->
<svg version="1.1" id="benu-icon-mail-contact" xmlns="http://www.w3.org/2000/svg" xmlns:xlink="http://www.w3.org/1999/xlink" x="0px" y="0px"
	 viewBox="0 0 26 26" style="enable-background:new 0 0 26 26;" xml:space="preserve">
	<g id="Groupe_92" transform="translate(6 -79.333)">
		<path id="Tracé_62" class="svg-primary" d="M-3.1,101.1c-1.6,0-2.9-1.3-2.9-2.9V86.5c0-1.6,1.3-2.9,2.9-2.9h20.1c1.6,0,2.9,1.3,2.9,2.9
			v11.6c0,1.6-1.3,2.9-2.9,2.9L-3.1,101.1z M-3.1,85.2c-0.7,0-1.3,0.6-1.3,1.3v11.6c0,0.7,0.6,1.3,1.3,1.3h20.1
			c0.7,0,1.3-0.6,1.3-1.3V86.5c0-0.7-0.6-1.3-1.3-1.3L-3.1,85.2z"/>
		<path id="Tracé_63" class="svg-fill-primary-light" d="M7,93.2c-0.6,0-1.1-0.2-1.6-0.5L-2,87.6c-0.4-0.2-0.5-0.7-0.3-1c0.2-0.4,0.7-0.5,1-0.3
			c0,0,0,0,0.1,0l7.4,5.1c0.5,0.3,1.1,0.3,1.5,0l7.4-5.1c0.3-0.3,0.8-0.2,1.1,0.1c0.3,0.3,0.2,0.8-0.1,1.1c0,0-0.1,0-0.1,0.1
			l-7.4,5.1C8.1,93,7.6,93.2,7,93.2z"/>
		<path id="Tracé_64" class="svg-primary" d="M-2.3,98.2c-0.4,0-0.7-0.3-0.7-0.7c0-0.2,0.1-0.4,0.3-0.5l4.8-4c0.3-0.2,0.7-0.2,1,0.1
			c0.2,0.3,0.2,0.7-0.1,1l-4.8,4C-2,98.2-2.1,98.2-2.3,98.2z"/>
		<path id="Tracé_65" class="svg-primary" d="M16.5,98.4c-0.2,0-0.3-0.1-0.5-0.2l-5.2-4.4c-0.3-0.3-0.3-0.7-0.1-1c0.3-0.3,0.7-0.3,1-0.1
			l5.2,4.4c0.3,0.3,0.4,0.7,0.1,1C16.9,98.3,16.7,98.4,16.5,98.4L16.5,98.4z"/>
	</g>
</svg>
