<?xml version="1.0" encoding="utf-8"?>
<!-- Generator: Adobe Illustrator 26.5.0, SVG Export Plug-In . SVG Version: 6.00 Build 0)  -->
<svg version="1.1" id="Layer_1" xmlns="http://www.w3.org/2000/svg" xmlns:xlink="http://www.w3.org/1999/xlink" x="0px" y="0px"
	 viewBox="0 0 50 50" style="enable-background:new 0 0 50 50;" xml:space="preserve">
<style type="text/css">
	.Drop_x0020_Shadow{fill:none;}
	.Outer_x0020_Glow_x0020_5_x0020_pt{fill:none;}
	.Blue_x0020_Neon{fill:none;stroke:#8AACDA;stroke-width:7;stroke-linecap:round;stroke-linejoin:round;}
	.Chrome_x0020_Highlight{fill:url(#SVGID_1_);stroke:#FFFFFF;stroke-width:0.3629;stroke-miterlimit:1;}
	.Jive_GS{fill:#FFDD00;}
	.Alyssa_GS{fill:#A6D0E4;}
	.st0{fill:#D41C1B;}
</style>
<linearGradient id="SVGID_1_" gradientUnits="userSpaceOnUse" x1="0" y1="0" x2="6.123234e-17" y2="-1">
	<stop  offset="0" style="stop-color:#656565"/>
	<stop  offset="0.618" style="stop-color:#1B1B1B"/>
	<stop  offset="0.6292" style="stop-color:#545454"/>
	<stop  offset="0.9831" style="stop-color:#3E3E3E"/>
</linearGradient>
<path id="Tracé_408" class="st0" d="M40.2,38L38,40.2v-9c0-0.5-0.5-0.9-1-0.9c-0.5,0-0.9,0.4-0.9,0.9v9L34,38c-0.4-0.4-1-0.4-1.3,0
	s-0.4,1,0,1.3l3.8,3.8c0.1,0.1,0.3,0.2,0.5,0.3h0c0,0,0,0,0.1,0h0c0,0,0.1,0,0.1,0c0,0,0.1,0,0.1,0c0.2,0,0.4-0.1,0.6-0.3l0,0l0,0
	l3.7-3.7c0.4-0.4,0.4-1,0-1.3S40.5,37.7,40.2,38 M23.9,41.5H4.3V15.3h10.3c0.5,0,0.9-0.4,0.9-0.9V4h18.8v19.7c0,0.5,0.4,0.9,0.9,0.9
	s0.9-0.4,0.9-0.9V3.1c0-0.5-0.4-0.9-0.9-0.9H14.6c0,0-0.1,0-0.1,0s0,0-0.1,0l0,0c0,0,0,0-0.1,0h0c0,0,0,0-0.1,0l0,0l0,0l0,0l0,0
	c-0.1,0-0.1,0.1-0.2,0.2L2.7,13.7c-0.1,0.1-0.1,0.1-0.2,0.2l0,0c0,0,0,0,0,0c0,0,0,0,0,0c0,0,0,0,0,0c0,0,0,0,0,0.1s0,0,0,0
	c0,0,0,0,0,0.1c0,0,0,0,0,0s0,0,0,0.1s0,0.1,0,0.1v28.1c0,0.5,0.4,0.9,0.9,0.9h20.6c0.5,0,0.9-0.5,0.9-1
	C24.8,41.9,24.4,41.5,23.9,41.5 M13.6,5.3v8H5.6L13.6,5.3z M37.1,26.5c-5.7,0-10.3,4.6-10.3,10.3s4.6,10.3,10.3,10.3
	c5.7,0,10.3-4.6,10.3-10.3C47.4,31.1,42.8,26.5,37.1,26.5 M37.1,45.3c-4.7,0-8.4-3.8-8.4-8.4s3.8-8.4,8.4-8.4s8.4,3.8,8.4,8.4
	c0,0,0,0,0,0C45.5,41.5,41.7,45.3,37.1,45.3"/>
<path id="Tracé_409" class="st0" d="M12,20.1h15.7c0.5,0,0.9-0.4,0.9-0.9s-0.4-0.9-0.9-0.9H12c-0.5,0-0.9,0.4-0.9,0.9
	S11.5,20.1,12,20.1L12,20.1"/>
<path id="Tracé_410" class="st0" d="M12,24.6h15.7c0.5,0,0.9-0.4,0.9-0.9s-0.4-0.9-0.9-0.9H12c-0.5,0-0.9,0.4-0.9,0.9
	S11.5,24.6,12,24.6L12,24.6"/>
<path id="Tracé_411" class="st0" d="M12,29.5h15.7c0.5,0,0.9-0.4,0.9-0.9c0-0.5-0.4-0.9-0.9-0.9H12c-0.5,0-0.9,0.4-0.9,0.9
	C11.1,29,11.5,29.5,12,29.5L12,29.5"/>
<path id="Tracé_412" class="st0" d="M12,34.3h11.2c0.5,0,0.9-0.4,0.9-0.9c0-0.5-0.4-0.9-0.9-0.9l0,0H12c-0.5,0-0.9,0.4-0.9,0.9
	C11.1,33.9,11.5,34.3,12,34.3L12,34.3"/>
</svg>
