<?xml version="1.0" encoding="utf-8"?>
<!-- Generator: Adobe Illustrator 26.1.0, SVG Export Plug-In . SVG Version: 6.00 Build 0)  -->
<svg version="1.1" id="Capa_1" xmlns="http://www.w3.org/2000/svg" xmlns:xlink="http://www.w3.org/1999/xlink" x="0px" y="0px"
	 viewBox="0 0 30 30" style="enable-background:new 0 0 30 30;" xml:space="preserve">
<style type="text/css">
	.st0-nav-home{opacity:0.5;fill:#D41C1B;enable-background:new    ;}
	.st1-nav-home{fill:none;stroke:#2B0C22;stroke-width:1.2;}
</style>
<path class="st0-nav-home" d="M9.5,11.2L9.5,11.2c3.1,0.1,3.2-2,6.2-2c1.1,0,2.2,0.3,3,1c0,0,0.1,0,0.1,0c0,0,0-0.1,0-0.1
	c-0.7-1.1-1.9-1.7-3.2-1.6c-3,0-3.3,1.9-5.9,2c-1.5,0-2.9-0.5-4-1.5c0,0-0.1,0-0.1,0c0,0,0,0.1,0,0.1C6.5,10.5,8,11.3,9.5,11.2z
	 M17,13.8c0.4-0.2,0.9-0.2,1.4-0.2c2.8,0.4,5.5,1,8.2,1.8c0,0,0,0,0,0s0,0,0,0h0l-7.2-3.2c-0.1,0-0.2-0.1-0.2-0.2
	c-0.8-1.6-2.6-2.4-4.3-2c-1.9,0.4-3.2,2.1-3.1,4v0.3c-0.1,1.6,0.8,3,2.3,3.7l0.1,0l0.1,0c0.4,0.2,1.6,0.9,1.6,2
	c0,0.2-0.1,0.3-0.3,0.3c0,0,0,0,0,0c-2.8-0.3-5.7,0.3-8.2,1.6c-0.9,0.5-1.7,1.1-2.4,1.7c0.6,0.7,1.4,1.4,2.2,2
	c1.5-2.3,4.1-3.7,7-3.4c0.4,0,0.8,0.1,1.2,0.2c0,0,0,0,0,0.1c0,0,0,0-0.1,0h0c-3,0.1-5.7,1.5-7.5,3.6c2.1,1.3,4.5,2.1,7.2,2.1
	c0.6,0,1.2-0.1,1.8-0.1c0.1-0.1,0.2-0.1,0.2-0.2c1.6-1.4,2.5-3.4,2.5-5.5c0.1-1.5-0.4-3.1-1.4-4.2c-1.3-1-2.9-1.8-2.3-3.3
	C16,14.4,16.5,14,17,13.8z"/>
<circle class="st1-nav-home" cx="15" cy="15" r="13.3"/>
</svg>
