<?xml version="1.0" encoding="utf-8"?>
<!-- Generator: Adobe Illustrator 26.0.2, SVG Export Plug-In . SVG Version: 6.00 Build 0)  -->
<svg version="1.1" id="benu-icon-squares-categories" xmlns="http://www.w3.org/2000/svg" xmlns:xlink="http://www.w3.org/1999/xlink" x="0px" y="0px"
	 viewBox="0 0 18 18" style="enable-background:new 0 0 18 18;" xml:space="preserve">
<path class="svg-primary-white" d="M6,0H2C0.9,0,0,0.9,0,2v4c0,1.1,0.9,2,2,2h4c1.1,0,2-0.9,2-2V2C8,0.9,7.1,0,6,0z M16,0h-4c-1.1,0-2,0.9-2,2v4
	c0,1.1,0.9,2,2,2h4c1.1,0,2-0.9,2-2V2C18,0.9,17.1,0,16,0z M16,10h-4c-1.1,0-2,0.9-2,2v4c0,1.1,0.9,2,2,2h4c1.1,0,2-0.9,2-2v-4
	C18,10.9,17.1,10,16,10z M6,10H2c-1.1,0-2,0.9-2,2v4c0,1.1,0.9,2,2,2h4c1.1,0,2-0.9,2-2v-4C8,10.9,7.1,10,6,10z"/>
</svg>
