<?xml version="1.0" encoding="utf-8"?>
<!-- Generator: Adobe Illustrator 26.5.0, SVG Export Plug-In . SVG Version: 6.00 Build 0)  -->
<svg version="1.1" id="Layer_1" xmlns="http://www.w3.org/2000/svg" xmlns:xlink="http://www.w3.org/1999/xlink" x="0px" y="0px"
	 viewBox="0 0 50 50" style="enable-background:new 0 0 50 50;" xml:space="preserve">
<style type="text/css">
	.Drop_x0020_Shadow{fill:none;}
	.Outer_x0020_Glow_x0020_5_x0020_pt{fill:none;}
	.Blue_x0020_Neon{fill:none;stroke:#8AACDA;stroke-width:7;stroke-linecap:round;stroke-linejoin:round;}
	.Chrome_x0020_Highlight{fill:url(#SVGID_1_);stroke:#FFFFFF;stroke-width:0.3629;stroke-miterlimit:1;}
	.Jive_GS{fill:#FFDD00;}
	.Alyssa_GS{fill:#A6D0E4;}
	.st0{fill:#D41C1B;}
</style>
<linearGradient id="SVGID_1_" gradientUnits="userSpaceOnUse" x1="0" y1="0" x2="6.123234e-17" y2="-1">
	<stop  offset="0" style="stop-color:#656565"/>
	<stop  offset="0.618" style="stop-color:#1B1B1B"/>
	<stop  offset="0.6292" style="stop-color:#545454"/>
	<stop  offset="0.9831" style="stop-color:#3E3E3E"/>
</linearGradient>
<path id="Tracé_407" class="st0" d="M40.3,37.9L38.1,40v-9c0-0.5-0.5-0.9-1-0.9c-0.5,0-0.9,0.4-0.9,0.9v9l-2.2-2.1
	c-0.4-0.4-1-0.4-1.3,0s-0.4,1,0,1.3l3.8,3.8c0.1,0.1,0.3,0.2,0.5,0.3h0c0,0,0,0,0.1,0h0c0,0,0.1,0,0.1,0c0,0,0.1,0,0.1,0
	c0.2,0,0.4-0.1,0.6-0.3l0,0l0,0l3.7-3.7c0.4-0.4,0.4-1,0-1.3S40.6,37.5,40.3,37.9 M24.1,41.4H4.4V15.1h10.3c0.5,0,0.9-0.4,0.9-0.9
	V3.9h18.8v19.7c0,0.5,0.4,0.9,0.9,0.9s0.9-0.4,0.9-0.9V2.9c0-0.5-0.4-0.9-0.9-0.9H14.7c0,0-0.1,0-0.1,0s0,0-0.1,0l0,0c0,0,0,0-0.1,0
	h0c0,0,0,0-0.1,0l0,0l0,0l0,0l0,0c-0.1,0-0.1,0.1-0.2,0.2L2.8,13.5c-0.1,0.1-0.1,0.1-0.2,0.2l0,0c0,0,0,0,0,0s0,0,0,0s0,0,0,0
	s0,0,0,0.1c0,0,0,0,0,0c0,0,0,0,0,0.1s0,0,0,0s0,0,0,0.1c0,0,0,0.1,0,0.1v28.1c0,0.5,0.4,0.9,0.9,0.9h20.6c0.5,0,0.9-0.5,0.9-1
	C24.9,41.8,24.6,41.4,24.1,41.4 M13.7,5.2v8.1h-8L13.7,5.2z M37.2,26.4c-5.7,0-10.3,4.6-10.3,10.3S31.5,47,37.2,47
	c5.7,0,10.3-4.6,10.3-10.3C47.5,31,42.9,26.4,37.2,26.4 M37.2,45.1c-4.7,0-8.4-3.8-8.4-8.4s3.8-8.4,8.4-8.4s8.4,3.8,8.4,8.4
	c0,0,0,0,0,0C45.6,41.3,41.8,45.1,37.2,45.1 M24.1,15.1h-3.8c-0.5,0-0.9,0.4-0.9,0.9v8.8c-0.6-0.2-1.2-0.4-1.9-0.4
	c-2.1,0-3.8,1.2-3.8,2.8s1.6,2.8,3.8,2.8s3.8-1.2,3.8-2.8V17h2.8c0.5,0,0.9-0.4,0.9-0.9S24.6,15.1,24.1,15.1 M17.5,28.3
	c-1.1,0-1.9-0.6-1.9-0.9s0.7-0.9,1.9-0.9c1.1,0,1.9,0.6,1.9,0.9S18.6,28.3,17.5,28.3"/>
</svg>
