<?xml version="1.0" encoding="UTF-8"?>
<!-- Generator: Adobe Illustrator 26.0.1, SVG Export Plug-In . SVG Version: 6.00 Build 0)  -->
<svg version="1.1" id="_x31_" xmlns="http://www.w3.org/2000/svg" xmlns:xlink="http://www.w3.org/1999/xlink" x="0px" y="0px" viewBox="0 0 4094.7 1535.5" style="enable-background:new 0 0 4094.7 1535.5;" xml:space="preserve">
<style type="text/css">
	.st0{fill-rule:evenodd;clip-rule:evenodd;fill:#262544;}
	.st1{fill-rule:evenodd;clip-rule:evenodd;fill:#F9941D;}
	.st2{fill:#262544;}
	.st3{fill-rule:evenodd;clip-rule:evenodd;fill:#D0D0D0;}
	.st4{fill-rule:evenodd;clip-rule:evenodd;fill:#DC3545;}
	.st5{fill-rule:evenodd;clip-rule:evenodd;fill:#FFFFFF;}
	.st6{fill-rule:evenodd;clip-rule:evenodd;fill:#80BAB1;}
	.st7{fill:#FFFFFF;}
	.st8{fill:#EDEFF2;}
	.st9{fill:#AFC9E0;}
	.st10{fill:#D0D0D0;}
	.st11{fill:#F9941D;}
</style>
<path class="st0" d="M3886.1,1120.4c-53.5,16.4-193.1,10.3-323.1-2.6c-130-12.8-250.5-32.4-432.1-38.1  c-181.6-5.7-424.4,2.5-733.8,6.6c-309.4,4.1-685.3,4.1-1023,0c-337.7-4.1-637.2-12.3-852.2-12.3c-215,0-345.5,8.2-309.8-32.3  c35.6-40.5,237.4-129.7,518.8-148.4c281.4-18.7,642.5,33.1,877.5,37.6c235,4.4,343.8-38.5,473.6-48.7  c129.8-10.2,280.7,12.2,451.5,29.2c170.8,17,361.6,28.5,491.4,19.7c129.8-8.8,198.7-37.8,297.2-50.7c98.5-12.9,226.7-9.5,323.8,17.4  "/>
<path class="st1" d="M1424.2,980.5c11.7-27.4,32.8-69.9,39.8-101.3c7-31.3,0-51.5-15.2-56.9c-15.2-5.4-38.6,4-50.8,31.5  c-12.2,27.6-13.1,73.3-13.4,102.2c-0.3,28.9,0,41-3.8,26.3c-3.7-14.7-11.5-56.1-35.2-108.6c-23.7-52.5-63.3-115.9-109.2-140  c-45.9-24-98.1-8.6-120.9,8.8c-22.8,17.4-16.3,36.8,12.9,59.3c29.2,22.5,81.2,48.1,123.1,77.5c41.9,29.5,73.8,62.8,95.3,83.4  c21.4,20.7,32.4,28.7,13,15.8c-19.4-12.8-69.2-46.5-115.7-76.2c-46.5-29.7-89.8-55.3-128.5-60.5c-38.7-5.2-72.8,10.1-72.5,28.3  c0.3,18.2,34.9,39.4,84.9,58.5c49.9,19.2,115.2,36.3,164.4,53.3c49.2,16.9,82.3,33.6,100.1,35.8  C1410.3,1020.2,1412.6,1007.9,1424.2,980.5z"/>
<path class="st2" d="M1246.1,899.7c-23.3-14.9-45.8-28.7-67.5-39.6c-21.7-10.9-42.5-18.7-62.4-21.4c-5.4-0.7-10.6-1.1-15.8-1.1  c-16.4,0-31.2,3.4-42.1,9.1c-5.5,2.8-10,6.2-13.3,10.1c-1.6,2-3,4.1-3.9,6.3c-0.9,2.2-1.4,4.6-1.4,7.1c0,0.1,0,0.2,0,0.3l0,0  c0,2.8,0.8,5.6,2,8.4c2.2,4.8,5.9,9.3,10.9,13.8c7.5,6.8,17.8,13.4,30.4,20.1c12.6,6.6,27.4,13.2,43.9,19.5c1.8,0.7,3.8-0.2,4.5-2  c0.7-1.8-0.2-3.8-2-4.5c-24.8-9.5-45.8-19.5-60.4-29.3c-7.3-4.9-13-9.6-16.7-14.1c-1.9-2.2-3.3-4.4-4.2-6.4c-0.9-2-1.3-3.8-1.4-5.6  l0,0l0-0.1c0-1.5,0.3-2.9,0.9-4.4c1-2.6,3.1-5.3,6.1-7.8c4.5-3.8,11.1-7.2,19.2-9.6c8-2.4,17.5-3.8,27.6-3.8c4.8,0,9.8,0.3,14.8,1  c18.8,2.5,38.9,10.1,60.2,20.7c21.3,10.7,43.6,24.4,66.9,39.2c1.6,1,3.8,0.6,4.8-1.1C1248.2,902.9,1247.8,900.8,1246.1,899.7  L1246.1,899.7z"/>
<path class="st2" d="M1348.9,872.5c-11.9-26.4-27.9-55.6-46.7-81.3c-9.4-12.8-19.5-24.8-30.2-35.1c-10.7-10.3-22-19-33.9-25.2  c-17.5-9.2-35.9-12.8-53.3-12.8c-14.8,0-28.9,2.6-41.1,6.6c-12.2,4-22.7,9.5-30.2,15.2c-4.9,3.7-8.7,7.7-11.2,11.9  c-2.6,4.2-3.9,8.7-3.9,13.3c0,3.3,0.7,6.7,2,10c1.9,5,5.2,9.8,9.5,14.8c4.4,4.9,9.9,9.9,16.5,15c14.9,11.5,35.3,23.5,57.2,36.4  c21.9,12.9,45.3,26.6,66.1,41.2c20.8,14.6,39.1,30.2,55,44.7c15.8,14.5,29.1,28,39.9,38.4c1.4,1.3,3.6,1.3,4.9-0.1  c1.3-1.4,1.3-3.6-0.1-4.9c-10.7-10.3-24.1-23.8-40-38.5c-16-14.7-34.6-30.5-55.7-45.3c-21.1-14.8-44.7-28.6-66.6-41.5  c-21.9-12.9-42.1-24.9-56.5-35.9c-8.5-6.5-14.9-12.7-19.1-18.5c-2.1-2.9-3.7-5.6-4.7-8.2c-1-2.6-1.5-5.1-1.5-7.4  c0-3.3,0.9-6.4,2.9-9.6c2-3.2,5.1-6.6,9.5-9.9c6.8-5.2,16.6-10.3,28.2-14.2c11.6-3.8,24.9-6.3,38.9-6.3c16.4,0,33.6,3.4,50,12  c11.1,5.8,21.9,14.1,32.3,24.1c15.5,15,30,33.8,42.7,53.7c12.7,19.9,23.8,41,32.6,60.6c0.8,1.8,2.9,2.5,4.6,1.7  C1348.9,876.3,1349.7,874.2,1348.9,872.5L1348.9,872.5z"/>
<path class="st2" d="M1467.5,880c1.9-8.5,2.8-16.3,2.8-23.3c0-9.7-1.8-17.8-5.2-24.3c-1.7-3.2-3.9-6-6.4-8.3c-2.5-2.3-5.5-4-8.7-5.1  c-3.1-1.1-6.5-1.7-10-1.7c-8,0-16.7,2.9-24.7,8.7c-8,5.8-15.2,14.6-20.5,26.4c-3.2,7.2-5.6,15.4-7.4,24.2  c-2.8,13.2-4.3,27.6-5.1,41.4c-0.9,13.8-1.1,27.1-1.2,38c0,1.9,1.5,3.5,3.5,3.5c1.9,0,3.5-1.5,3.5-3.5c0.2-14.4,0.5-33,2.2-51.3  c0.9-9.2,2.1-18.2,3.9-26.7c1.8-8.4,4.1-16.3,7-22.8c4.8-10.8,11.3-18.5,18.2-23.6c6.9-5,14.2-7.3,20.6-7.3c2.8,0,5.4,0.4,7.7,1.3  c2.4,0.8,4.5,2.1,6.4,3.8c2.8,2.5,5.1,6,6.7,10.5c1.6,4.6,2.5,10.2,2.5,16.8c0,6.4-0.8,13.6-2.7,21.7c-0.4,1.9,0.8,3.8,2.6,4.2  C1465.2,883.1,1467.1,881.9,1467.5,880L1467.5,880z"/>
<path class="st3" d="M3220.1,908.5c17.9-55.5,56.8-151.2,96.2-216.5c39.4-65.3,79.3-100.3,119.9-97.4  c40.6,2.8,81.8,43.5,118.6,106.9c36.8,63.4,69.3,149.6,82.5,202.9c13.2,53.4,7.1,74-29.2,88.8c-36.3,14.8-102.9,24-151,20.2  c-48.1-3.8-77.8-20.5-105.9-25.8c-28.2-5.3-54.8,0.8-78.3,3.8c-23.5,3-44,3-55.8-4.6C3205.3,979.1,3202.2,963.9,3220.1,908.5z"/>
<path class="st4" d="M838,940.3c17.2-4.2,44.5-10.7,64.1-20c19.6-9.4,31.4-21.6,33.8-35.4c2.4-13.7-4.6-28.9-22.7-32.8  c-18.1-3.9-47.3,3.6-67.1,14.7c-19.8,11.1-30.1,26-32.9,29.6c-2.8,3.6,2-4.2,14.4-22.4c12.4-18.2,32.3-47,47.4-77.3  c15.1-30.3,25.4-62,23-82.2c-2.3-20.2-17.3-28.8-31.1-27.1s-26.5,13.6-37.1,33.1c-10.6,19.5-19.1,46.7-25.4,71.9  c-6.3,25.2-10.3,48.4-13.3,66.4c-3,17.9-4.8,30.5-5,27.9c-0.2-2.6,1.3-20.3,4.2-52.2c2.9-31.8,7.2-77.6,1.9-104.4  c-5.4-26.8-20.4-34.6-32.7-33.4c-12.3,1.2-21.8,11.4-26.1,31.9c-4.3,20.4-3.3,51.1-1.5,78c1.8,26.9,4.5,49.9,5.2,58.6  c0.8,8.6-0.3,2.8-9.2-42.9c-8.9-45.7-25.5-131.3-46.6-182.5c-21.1-51.2-46.6-68-63.9-70.1c-17.4-2.1-26.6,10.5-27.5,37  c-0.9,26.5,6.5,66.9,21.1,105c14.6,38.1,36.4,74,53,104.2c16.6,30.2,28.1,54.7,31.8,64c3.7,9.2-0.4,3.1-12.6-3.9  c-12.2-6.9-32.5-14.7-46.5-13.5c-14,1.2-21.7,11.4-22.6,23.2c-0.9,11.8,5,25.3,19.4,41.2c14.4,15.9,37.4,34.3,67.7,38.3  c30.3,4,67.9-6.3,90.2-12.5C813.7,946.5,820.8,944.5,838,940.3z"/>
<path class="st1" d="M3626.1,992.9c-3-2.1-9.8-13.2-20.5-26c-10.7-12.8-25.2-27.3-36.7-32c-11.5-4.7-20,0.4-14.5,17.1  c5.5,16.6,25.2,44.8,38,59.3c12.8,14.5,18.8,15.4,39,17.5c20.2,2.1,54.7,5.5,82.5-0.1c27.7-5.5,48.7-20,64.7-34.9  c16-14.9,27.1-30.3,28-39.6c0.9-9.4-8.5-12.8-27.3-5.5c-18.8,7.3-46.9,25.2-61,31.1c-14.1,6-14.1,0-4.7-11.1  c9.4-11.1,28.1-27.3,40.9-50.8c12.8-23.5,19.6-54.2,12.8-75.5c-6.8-21.3-27.3-33.3-43.5-11.9c-16.2,21.3-28.1,75.9-38.8,106.6  c-10.7,30.7-20,37.5-26,27.7s-8.5-36.3-11.9-69.5c-3.4-33.3-7.7-73.4-22.2-90.8c-14.5-17.5-30.6-10.9-40.5,20.9  C3571.5,866.6,3626.1,992.9,3626.1,992.9"/>
<path class="st1" d="M3017.4,1015.1c18.7-22.7,47.1-67.2,60.1-125.4c13-58.2,10.5-130.1-5.3-156.6c-15.8-26.4-45-7.4-64.5,25.4  c-19.5,32.8-29.2,79.3-36.9,92c-7.7,12.7-13.4-8.5,8.5-79.9c21.9-71.4,71.4-193.1,67.8-275.6c-3.7-82.5-60.5-125.9-106.7-96.3  c-46.3,29.6-82,132.2-97,213.2c-15,80.9-9.3,140.2-17,113.2c-7.7-27-28.8-140.2-67.4-208.9c-38.5-68.8-94.5-93.1-128.6-73  c-34.1,20.1-46.3,84.6-40,145c6.2,60.4,30.9,116.7,24.8,136.3c-6.1,19.6-42.9,2.4-74.7,9.2c-31.8,6.8-58.6,37.5-63,65.5  c-4.5,28,13.4,53.4,26.8,73c13.4,19.6,22.3,33.3,13,40.2c-9.3,6.9-36.9,6.9-57.6,18c-20.7,11.1-34.5,33.3-21.5,54.5  c13,21.2,52.7,41.3,108.7,50.3c56,9,128.2,6.9,203.3,5.8c75.1-1.1,153-1.1,196.4-1.6S2998.7,1037.9,3017.4,1015.1z"/>
<path class="st4" d="M2771.9,919c-14.8-18.9-19.5-38.2-14.2-56.2c5.3-17.9,20.7-34.4,36.6-32.9c16,1.5,32.5,20.8,42.5,37.3  c10,16.5,13.6,30,20.1,31c6.5,1,16-10.7,20.1-47c4.1-36.3,3-97.3,11.8-136c8.9-38.7,27.8-55.2,49.6-48.9  c21.9,6.3,46.7,35.3,61.4,60.5c14.8,25.2,19.5,46.5,27.2,72.6c7.7,26.1,18.3,57.1,28.4,67.8c10,10.7,19.5,1,20.1-27.1  c0.6-28.1-7.7-74.6-14.2-128.3c-6.5-53.7-11.2-114.7-1.2-148.6c10-33.9,34.9-40.7,53.2-20.8c18.3,19.8,30.1,66.3,36.6,115.7  c6.5,49.4,7.7,101.7,7.7,134.1c0,32.4-1.2,45,2.4,51.3c3.5,6.3,11.8,6.3,25.4-17.4c13.6-23.7,32.5-71.2,59.7-96.3  c27.2-25.2,62.6-28.1,78-16c15.4,12.1,10.6,39.2-0.6,63.9c-11.2,24.7-29,47-42.5,68.7c-13.6,21.8-23,43.1-14.8,54.7  c8.3,11.6,34.3,13.6,65,2.4c30.7-11.1,66.2-35.3,96.9-38.2c30.7-2.9,56.7,15.5,59.7,38.7c3,23.2-17.1,51.3-53.2,69.2  c-36,17.9-88,25.7-182.6,28.6c-94.5,2.9-231.6,1-303.1-1c-71.5-1.9-77.4-3.9-85.1-8.2c-7.7-4.4-17.1-11.1-34.3-23.7  C2811.5,956.3,2786.6,937.9,2771.9,919z"/>
<path class="st5" d="M3119.6,775.8c-7.4-0.1-13.7-5.2-17.3-9.7c-11.2-13.8-15-35.4-16-52.4c-0.1-2.4,0.2-4.4-2.9-4.4  c-1.7,0-1.7,1.4-1.7,2.4c0,17.1,7.1,54.5,26.6,64.6c3.5,1.8,7.2,2.6,11.3,3.3l2.1,36.2c0,4.4,0.3,8,0.4,12.6l1.2,24.6  c0.6,3.5,0,8.8,0.1,12.5c0.1,2,0.4,3.6,0.4,6.1l0,43.3c0,4.3,0,8.6,0,13c0,2.5-0.4,3.7-0.4,5.8c0,2.1,0.1,4.4,0,6.5  c-0.2,5-1,19.4-1.9,24.1c-0.3,1.9-0.5,4.1-0.7,5.9c-0.1,1.8-0.8,4.1-0.8,5.8c-7.5-1.4-17-7.6-22.6-12.2c-18-14.8-31.9-35-41-54.4  c-0.7-1.6-1-2.3-3-2.3c-1,0-1.7,0.6-1.7,1.4c0,4.5,13.4,25.2,18.6,32.2c6.2,8.4,16.2,20.2,25.5,26.9c6.5,4.7,15.3,10.6,23.8,12.2  c-0.5,0.9-1.1,4.8-1.4,6.3c-0.5,2.3-1,4-1.6,6.2c-0.5,1.7-1.3,3.9-2.2,5.7c-0.4,0.9-2.3,4.1-2.7,5l4.9,0c5.1-6.8,8.2-26.9,8.8-34.3  c0.1-1.8,0.5-4.6,0.7-6.2l1.8-31.3c0-2.6,0.3-4.4,0.4-6.5c0.3-4.2,0-9.1,0-13.3c5.1-2,7.3-1,17.8-6.2c4.5-2.2,10.9-6.1,14.2-9.5  c1-1,2-1.6,3-2.7c1-1.1,1.9-1.9,3-3c2.2-2.4,17.8-22.6,11.2-22.6c-3.1,0-2.9,2.6-5,6.5c-1.3,2.4-2.3,4.3-4,6.6  c-2.3,3.1-4.5,6.2-7.4,9c-7.5,7.5-16.7,13.7-28.1,16.9c-1.4,0.4-3.7,0.8-4.7,1.2c0-9.4,0-18.9,0-28.3c0-13.7-1.3-27.6-1.2-41.3  l-0.7-13.8c-0.4-2.1-0.1-4.5-0.2-6.7c0-2.2-0.4-4.1-0.4-6.8c0-2.8-0.4-4.2-0.4-6.8l-2.5-40.3c-0.1-1.1,0-2.3,0-3.4l-4.6-60.1  c-0.1-1.7-0.4-1.7-0.4-3.4c-0.1-2.7,0.3-5.5-2.9-5.5c-2.1,0-1.8,2.3-1.7,4.1l0.5,5.4c0.8,6,0.8,15.5,1.8,21.1  c0.6,3.5,0.2,7.4,0.8,10.9C3117.2,736.9,3118.9,774.5,3119.6,775.8L3119.6,775.8z M3324.9,968.9c0-13.2,7.7-27.1,16.7-37.5l6.9-7.3  c1.7-1.8,2.3-1.6,2.3-3.3c0-1.4-1.5-1.4-2.5-1.4c-1.3,0-4.6,3.7-5.5,4.7c-1.8,1.8-3.1,3.4-4.8,5.3c-1.7,1.8-2.9,3.6-4.4,5.6  c-9,12.4-12.8,21.4-12.8,36.3l-33.5,12.8c-15.2,5.2-39.2,12.4-55,15.6c-3.7,0.8-5.4,0.6-5.6,2.6l11.7-0.3c12.9-3,31.1-8.2,42-11.8  c1.9-0.6,3.6-1.2,5.6-1.9c3.8-1.2,7.3-2.6,10.8-3.8c8.9-3,17.2-6.8,25.8-10.3c11.8-4.8,27.8-13,38.4-18.7c2-1.1,2-0.5,5.8,0.3  c14.5,3,26.3,5.1,42.5,5.1c1.7,0,1.7-1.3,1.7-2c0-2.2-6.2-1.4-10.3-1.8c-13.5-1.5-14.1-1.4-27.6-3.7c-1.7-0.3-3.7-0.9-5.4-1  c0.3-1,0.4-0.8,1.3-1.3c0.7-0.4,1-0.5,1.8-0.9c7.2-4,14.4-8.9,21.2-13.3c1.3-0.8,2.3-1.4,3.5-2.3l19.6-14.7c2.6-2.2,5.9-3.8,5.9-6.1  c0-1.4-1.5-1.4-2.5-1.4c-1.6,0-4,3.3-7.8,5.9l-24.1,17.4c-16.8,10.8-35.8,21.8-54.5,30.1C3330.2,966.8,3326.5,968.8,3324.9,968.9  L3324.9,968.9z M3237,845c0.7-1.3,1.7-3.8,2.2-5.3c1.9-5.3,4.5-10.6,6.1-15.5l8.3-20.5c3-7.3,9.2-23,12.7-30.5  c0.9-1.8,1.4-3.2,2.2-5.1c0.9-2.1,1.4-4.3,3.1-4.3c4.4,0,2.2,3.3,0.2,7.7c-2.3,4.9-5,12.5-7.4,17.5c-2.5,5.1-7.2,17.5-9.6,23.5  c-1.7,4.2-3.2,7.9-4.9,12c-1.6,3.9-3,7.7-4.7,11.9c-7,17.6-16.8,42.7-22.8,60.2c-5.8,17.2-10.9,32.1-16.3,49.8  c-0.6,2-1.1,4.1-1.8,6.3c-0.5,1.6-1.2,5.3-1.8,6.3c6.1,0,13.8-3.2,18.7-5.9l12.8-10.4c2.8-3,5.5-6.4,7.6-9.8l4.3-7.1  c0.7-1.4,1.1-2.2,1.8-3.7c2.2-4.9,1.9-6.9,4.9-6.9c5.3,0-4.8,15.7-6,17.6c-6.9,11.4-18.9,23.6-33.8,27.9c-2.7,0.8-7.7,1.9-11,1.9  c-3,10.7-4.2,17.7-5.5,27.9l-0.3,12.2l-4.5,0c0-0.2,0-0.4,0-0.5c0-11.6,0.5-15,2.8-26.4c3.1-15.3,8.2-32.4,13-47.3l15.5-45  c3.3-8.4,6.7-18.5,10-26.6l3.3-8.6c-4.5-0.9-11-6-13.8-9.5c-8.1-9.8-6.8-25.2-1.7-35.7c0.7-1.4,1.2-4,3-4c4.5,0,1.9,3.2,0.2,7.6  c-0.8,2-1.4,4.1-1.9,6.3C3218.8,827.3,3221.6,838.4,3237,845L3237,845z M2933,809.2c0,1.8,0,3.6,0,5.5c0,2.3,0.4,3.1,0.4,5.4  c0,3.7-0.4,7.9,0.2,11.4l0.6,10.8c0,3.7,0.8,7.4,0.8,10.9c0,7.9,4.5,34.6,5.8,41c2.6,12.9,5.9,25.1,9.7,37.8c0.9,2.9,2,5.7,3.1,8.7  c2,5.8,4.3,11.6,7,17.2c1.3,2.7,2.5,5.9,4,8.3c-8.6-0.6-22.6-4.5-30.6-6.7c-9.8-2.7-19-5.8-27.9-9.2c-13.1-5-25.8-10.5-38.1-16.6  c-2.6-1.3-10.7-6.1-13-6.1c-1.5,0-1.7,1-1.7,2v0c0,1.2,4.7,3.2,6.1,3.9c2.5,1.2,4.5,2.3,6.9,3.5c2.4,1.2,4.4,2.1,6.8,3.3  c7.1,3.5,14.1,6.4,21.7,9.5l31.1,11c12.5,4,25.7,6.9,39.1,8.9c2.4,0.4,1.7,0.8,2.7,2.5c4.7,8.2,9.7,15.9,15.3,23.7  c0.8,1.1,1.3,1.6,2.1,2.7c0.5,0.7,1.1,1.8,1.9,2.8l5.2,0.1c-0.4-1.3-1.9-2.8-2.2-3.2c-0.8-1.1-1.4-1.9-2.2-2.9l-8.2-11.7  c-5.5-9.1-9.5-14.9-13.9-25.1c-3-6.8-5.9-13.4-8.4-20.4c-0.7-1.9-2.2-5.5-2.3-7.4c5.8-1.1,19.3-11.2,24.5-15.4  c3.1-2.6,5.9-5.5,8.4-8.4c3.6-4.1,6.3-8.7,8.6-13.4c0.5-1,5.3-9.8,0.9-9.8c-3.3,0-2.7,2.8-4.3,6.7c-4.5,11-12,18.4-21.8,26.5  c-3,2.5-6.7,4.7-10.2,6.7c-2.5,1.4-4.7,2.6-7.4,3.8c-1-1.6-2.4-7.7-3.1-10.1c-5.1-18.4-7.9-36.8-10.3-55.7l-2-24.3  c2.4-0.5,7.7-3.1,9.7-4.3l8.4-5.4c7-4.4,15.5-14.6,19.7-20.7c4.3-6.1,12.9-21.4,12.9-26.9c0-1.2-1.3-1.4-2.5-1.4  c-2,0-3.6,6.5-4.2,8.1c-6.7,16.4-18.2,32.1-35.3,42.4c-1.5,0.9-7.5,4.1-9.2,4.4l-0.4-29.3c0-6.4,0.5-11.9,0.4-18.1  c0-5.5,1.8-28.8,2.6-34.8c0.7-5.6,2-11.1,2-16.8c0-0.8-4.1-2.7-4.6,2.1c-0.2,1.8-0.3,2.8-0.6,4.6c-1.1,6.4-1,12.3-2,18.8  c-1,6-1.3,17.4-1.5,24c-0.1,1.8-0.4,2.6-0.4,4.8C2933.5,796.2,2933,802.2,2933,809.2z"/>
<path class="st6" d="M1095.9,814c-4.4-3.1-12-8.5-19.1-11.9c-7.2-3.4-13.9-4.7-18.4-3c-4.5,1.7-6.7,6.5-5.2,10.4  c1.5,4,6.8,7.2,12.5,8.8c5.7,1.6,11.7,1.6,18,1.4c6.3-0.2,12.9-0.8,15.5-1.4c0.7-0.2,1.1-0.3,1.3-0.5c0,1.6,0,3.3,0.1,5.1  c0,9.9-0.3,22-0.9,33.4c-0.6-0.7-1.7-1.8-3.2-3.4c-3.7-3.9-10-10.8-16.3-15.6c-6.3-4.8-12.7-7.5-17.4-6.8c-4.7,0.7-7.9,4.9-7.2,9.2  c0.7,4.2,5.2,8.4,10.4,11.2c5.2,2.7,11.1,4,17.3,5.1c6.2,1.1,12.7,1.9,15.4,1.9c0.3,0,0.6,0,0.8-0.1c-0.2,3-0.4,5.9-0.6,8.7  c-0.8,10.9-1.9,20.1-3,28.5c-0.5-0.9-1.6-2.4-3.1-4.5c-3.5-5-9.4-13.7-15.7-20.1c-6.3-6.4-13-10.5-18.4-10.4  c-5.4,0.1-9.6,4.3-9.6,9.1c0.1,4.8,4.4,10.3,9.8,14.2c5.4,3.9,11.8,6.3,18.6,8.5c6.8,2.2,14,4.2,17,4.6c0.5,0.1,0.9,0.1,1.2,0  c-0.3,1.9-0.5,3.7-0.8,5.5c-1.4,10.2-2.7,19.2-4.9,29.5c-0.7,3.1-1.4,6.2-2.2,9.4c-0.3-1.2-0.9-3-1.7-5.4  c-2.1-6.5-5.6-17.8-10.2-26.7c-4.6-8.9-10.4-15.5-16.3-17.2c-5.8-1.7-11.7,1.4-13.2,6.6c-1.5,5.2,1.4,12.5,5.8,18.5  c4.5,6,10.5,10.6,17.1,15.2c6.5,4.6,13.6,9.1,16.7,10.5c0.6,0.3,1,0.4,1.3,0.4c-1.8,6.8-3.8,13.6-5.9,19.3c-3.2,8.8-6.5,15-7.7,18.9  c-1.2,3.9-0.5,5.6,0.6,6.7c1,1.1,2.2,1.6,3.5,0.5c1.2-1.1,2.4-3.7,5.2-10.6c2.8-6.9,7.3-18.1,10.9-33.6c3.1-13.3,5.6-29.7,7.5-48.2  c0.2,0,0.3,0.1,0.5,0.1c3,0.4,10.5,0.2,17.6-0.2c7.1-0.4,13.9-1.1,20.1-3.6c6.2-2.4,11.8-6.6,13.1-11.3c1.3-4.7-1.7-9.8-7-11.2  c-5.3-1.4-12.7,0.8-20.4,5.5c-7.7,4.6-15.5,11.6-20.2,15.6c-1.5,1.2-2.6,2.2-3.4,2.9c0.3-2.4,0.5-4.9,0.7-7.4c0.8-8.8,1.5-18,2-27.1  c0.2,0,0.5,0,0.9-0.1c2.6-0.5,8.9-2.6,14.8-4.8c5.9-2.2,11.4-4.6,16-8.3c4.6-3.7,8.2-8.7,8-13c-0.1-4.3-4-7.8-8.8-7.6  c-4.8,0.2-10.5,4.1-15.8,10c-5.2,5.9-10,13.9-12.9,18.4c-0.9,1.4-1.6,2.5-2.1,3.3c0.7-13.5,0.8-26.8,0.1-38.7c0-0.5-0.1-1-0.1-1.5  c0.2,0.1,0.5,0.1,0.9,0.2c2.6,0.3,9.2,0.2,15.5-0.2c6.3-0.4,12.3-1,17.7-3.2c5.5-2.2,10.4-5.9,11.5-10c1.1-4.1-1.5-8.6-6.2-9.9  c-4.6-1.3-11.2,0.7-18,4.8c-6.8,4.1-13.7,10.2-17.8,13.7c-1.9,1.6-3.2,2.6-3.8,3.3c-0.7-9.8-1.9-18.6-3.4-26.5c0.1,0,0.3,0,0.5,0  c2.1-0.1,7.3-1.2,12.2-2.4c4.9-1.2,9.5-2.5,13.5-5c4-2.5,7.4-6.1,7.7-9.5c0.3-3.4-2.4-6.6-6.3-6.9c-3.8-0.3-8.7,2.2-13.5,6.4  c-4.8,4.2-9.3,10-12.1,13.4c-1,1.3-1.8,2.2-2.3,2.8c-1.4-7.2-3.1-13.6-4.7-19.2c-0.2-0.7-0.4-1.4-0.6-2c2.2-0.3,6.2-1.1,10.1-2  c4.4-1.1,8.5-2.3,12-4.5c3.6-2.2,6.5-5.4,6.8-8.5c0.3-3-2.2-5.9-5.6-6.1c-3.4-0.3-7.8,2-12,5.7c-4.2,3.7-8.3,8.9-10.8,11.9  c-0.5,0.6-0.9,1.1-1.2,1.5c-2.5-7.4-4.9-11.7-4-20.4c0.6-5.6,1.6-15.4-1.1-24.6c-2.7-9.2-9.1-17.9-13.9-19.9c-4.8-2-8.1,2.6-8.7,7.7  c-0.6,5.1,1.6,10.8,5.4,17.7c3.9,6.9,9.4,15,12.6,19.8c3.5,5.3,3.9,6.7,5.6,13c0.6,2.1,1.2,4.6,1.9,7.3c-0.5-0.5-1.2-1.1-2.2-2  c-2.8-2.6-7.6-7.2-12.3-10.3c-4.7-3.1-9.4-4.7-12.7-3.9c-3.3,0.8-5.4,3.9-4.7,6.9c0.7,3,4.1,5.7,7.9,7.4c3.8,1.7,8.1,2.3,12.6,2.8  c4.5,0.4,9.2,0.7,11.1,0.6c0.3,0,0.5-0.1,0.7-0.1c1.7,6.8,3.4,14.6,4.6,21.9c-1.8-1.5-6-4.1-10-6.5c-4.4-2.6-8.6-4.8-13.2-5.8  c-4.6-1-9.5-0.7-12.1,1.5c-2.6,2.2-2.8,6.4-0.3,9.3c2.5,2.9,7.8,4.5,14.1,4.8c6.3,0.3,13.7-0.7,18-1.2c1.8-0.2,3.1-0.3,3.8-0.5  l0,0.2c1.6,9.4,2.2,17.4,2.4,27.5C1100,816.7,1098.5,815.8,1095.9,814z"/>
<path class="st6" d="M988.2,854.6c-3.3-0.5-9.1-1.5-14-1.4c-4.9,0.1-9.1,1.2-11.2,3.3c-2.1,2.2-2,5.5,0,7.3c2,1.8,5.8,2.2,9.4,1.5  c3.6-0.6,7-2.3,10.5-4.1c3.5-1.9,7-4,8.3-5c0.4-0.3,0.5-0.5,0.6-0.7c0.5,0.9,0.9,1.8,1.4,2.8c2.7,5.5,5.9,12.4,8.7,19  c-0.5-0.3-1.4-0.6-2.7-1c-3.2-1.2-8.6-3.3-13.4-4.3c-4.9-1-9.2-0.7-11.6,1c-2.5,1.7-3.1,4.9-1.5,7.1c1.5,2.2,5.2,3.3,8.9,3.4  c3.7,0.1,7.3-0.8,11.1-1.9c3.8-1.1,7.7-2.4,9.2-3.2c0.2-0.1,0.3-0.2,0.4-0.3c0.7,1.7,1.4,3.4,2.1,5.1c2.5,6.3,4.4,11.8,6.1,16.8  c-0.5-0.4-1.5-0.9-3-1.7c-3.4-1.8-9-5.1-14.3-7s-10.1-2.3-13.2-0.8c-3,1.5-4.3,5-2.9,7.7c1.4,2.7,5.3,4.6,9.4,5.3  c4.1,0.7,8.3,0.3,12.8-0.3c4.4-0.6,9-1.5,10.8-2.1c0.3-0.1,0.5-0.2,0.7-0.3c0.4,1.1,0.7,2.2,1.1,3.3c2,6.1,3.8,11.5,5.3,17.9  c0.5,1.9,0.9,3.9,1.4,5.9c-0.5-0.6-1.3-1.4-2.4-2.6c-3-3.1-8-8.5-13-12.2c-5-3.7-10.1-5.8-13.9-5.2c-3.8,0.6-6.2,4-5.6,7.3  c0.6,3.3,4.2,6.6,8.3,8.8c4.1,2.1,8.8,3.1,13.8,3.9c4.9,0.8,10.1,1.4,12.2,1.3c0.4,0,0.7,0,0.9-0.1c0.9,4.3,1.6,8.7,2,12.5  c0.6,5.8,0.5,10.2,0.8,12.8c0.4,2.5,1.3,3.3,2.1,3.6c0.9,0.3,1.7,0.3,2.1-0.6c0.4-0.9,0.3-2.7,0-7.4c-0.3-4.6-0.9-11.9-3-21.4  c0.9-0.8,2.4-2.2,4.3-3.7c2.4-1.9,5.5-3.8,8.4-5.7c2.9-2,5.6-4,6.9-6.2c1.3-2.2,1.3-4.5-0.3-6.4c-1.7-1.9-5-3.3-8.2-1.8  c-3.3,1.5-6.5,5.8-8.5,10.2c-2,4.4-2.7,8.7-3.1,11.3l0,0.1c-1.9-7.9-4.9-17.1-8.5-27.1c0.1,0,0.2-0.1,0.3-0.1  c1.8-0.6,5.9-2.7,9.8-4.9c3.9-2.2,7.5-4.5,10.3-7.5c2.8-3.1,4.8-7,4.2-9.9c-0.6-3-3.7-5-7-4.4c-3.3,0.6-6.9,4-10,8.7  c-3,4.7-5.6,10.8-7.1,14.3c-0.5,1.1-0.9,1.9-1.1,2.6c-0.5-1.4-1.1-2.9-1.6-4.4c-2-5.2-4.1-10.5-6.3-15.8c0.1-0.1,0.3-0.2,0.5-0.3  c1.3-1,4.3-3.9,7-6.8c2.7-2.9,5.1-5.7,6.7-9.1c1.6-3.3,2.2-7.1,0.9-9.5c-1.3-2.4-4.4-3.3-7-1.8c-2.6,1.4-4.8,5.2-6.1,9.9  c-1.3,4.8-1.8,10.6-2.2,13.9c-0.1,1-0.2,1.8-0.3,2.4c-3.3-7.7-6.9-15.3-10.5-21.8c-0.2-0.3-0.3-0.5-0.5-0.8c0.1,0,0.3-0.1,0.6-0.1  c1.6-0.5,5.2-2.4,8.7-4.4c3.4-1.9,6.6-3.9,9.1-6.6c2.5-2.7,4.2-6.1,3.7-8.8c-0.5-2.6-3.2-4.4-6.2-3.9c-2.9,0.6-6.1,3.5-8.8,7.7  c-2.7,4.2-4.9,9.5-6.3,12.6c-0.6,1.4-1.1,2.4-1.2,2.9c-3.1-5.3-6.2-9.9-9.2-13.9c0.1,0,0.2-0.1,0.3-0.1c1.2-0.6,3.8-2.7,6.2-4.7  c2.4-2,4.7-4,6.2-6.5c1.6-2.5,2.5-5.4,1.7-7.4c-0.8-2-3.2-3-5.4-2.2c-2.2,0.9-4.3,3.6-5.8,7.3c-1.5,3.7-2.5,8.2-3.1,10.8  c-0.2,1-0.4,1.7-0.5,2.2c-2.8-3.7-5.5-6.8-7.9-9.5c-0.3-0.3-0.6-0.7-0.9-1c1.2-0.7,3.2-2.3,5.1-3.9c2.2-1.8,4.1-3.6,5.5-5.8  c1.4-2.2,2.2-4.8,1.5-6.6c-0.7-1.8-2.8-2.7-4.8-1.9c-2,0.8-3.8,3.2-5.2,6.5c-1.4,3.3-2.2,7.3-2.8,9.6c-0.1,0.5-0.2,0.8-0.3,1.2  c-3.4-3.5-6-5.3-7.8-10.4c-1.2-3.3-3.3-9.1-7.4-13.5c-4-4.4-10-7.6-13.3-7.4c-3.3,0.2-3.8,3.7-2.8,6.7c1.1,3,3.9,5.6,7.9,8.5  c4.1,2.8,9.4,5.9,12.5,7.7c3.4,2,4,2.7,6.7,5.7c0.9,1,2,2.2,3.1,3.6c-0.4-0.1-1-0.3-1.8-0.5c-2.3-0.7-6.2-1.9-9.7-2.4  c-3.5-0.4-6.6-0.1-8.2,1.3c-1.7,1.3-1.9,3.7-0.7,5.1c1.2,1.5,3.9,2.1,6.5,2c2.6-0.1,5.2-0.9,7.8-1.9c2.6-1,5.3-2.1,6.4-2.7  c0.2-0.1,0.3-0.2,0.3-0.2c2.8,3.3,5.9,7.3,8.6,11c-1.4-0.3-4.5-0.7-7.4-0.9c-3.1-0.2-6.2-0.3-9,0.4c-2.9,0.7-5.6,2.2-6.4,4.2  c-0.8,2,0.2,4.4,2.4,5.3c2.2,0.9,5.6,0.4,9.3-1.2c3.6-1.6,7.5-4.1,9.8-5.6c1-0.6,1.7-1,2-1.3l0.1,0.1c3.4,4.8,6,9.1,8.9,14.8  C991.3,855,990.1,854.9,988.2,854.6z"/>
<path class="st1" d="M184.8,1088.7c-11.9-8.3-18.9-18.5-18.9-29.5c0-27.6,43.7-50,97.9-50.3c-3.7-7.7-5.7-16.2-5.7-25.2  c0-35.5,31.9-64.3,71.3-64.3c10.6,0,20.6,2.1,29.7,5.8c1.1-7.2,5.2-13.6,11.3-18.5c-20.7-17.2-33.9-43.3-33.9-72.6  c0-51.7,41.3-93.7,92.3-93.7c36.2,0,67.5,21.1,82.6,51.9c10.4-6.3,22.8-10,36.2-10c33.7,0,61.5,23.2,65.3,53.2  c13.6-8.1,30.1-12.9,47.9-12.9c46.4,0,83.9,32.3,83.9,72.1c0,28.6-19.4,53.3-47.4,65c3.5,5.5,5.5,11.7,5.5,18.3  c0,3.1-0.5,6.2-1.3,9.1c83,4.1,146.7,27.9,146.7,56.7c0,18.2-25.5,34.4-65.2,44.9H184.8z"/>
<path class="st6" d="M124.9,1098.9c13.4-18.3,258.5-100,419.3-129.7c174.4-32.1,366.9-40.8,556.3-32.1  c189.3,8.6,375.5,34.5,568,59.3c192.5,24.8,391.5,48.6,534.9,60.1c143.3,11.5,231.1,10.8,332.7-2.2  c101.6-12.9,217.1-38.1,356.2-57.2c139.1-19.1,301.7-32,448.2-29.5c179.9,3.1,586.5,59.4,591,131.2  c-8.8,92.7-768.1,122.9-1452.9,119.7c-507.2-2.4-1004.4,25.8-1223.6,24.2C851.2,1251.4,54,1181,124.9,1098.9z"/>
<path class="st3" d="M1039.4,994.3c5.2-15.5,16.5-42.3,27.9-60.6c11.4-18.3,23-28.1,34.8-27.3c11.8,0.8,23.7,12.2,34.4,29.9  c10.7,17.7,20.1,41.9,23.9,56.8c3.2,12.3,2.5,18.4-3.8,22.5c-9.8,4.4-30.4,10.6-72.4,3.3c-25.3-4.4-38.4,3-46.6-3.3  C1035,1013.3,1034.6,1008.6,1039.4,994.3z"/>
<path class="st3" d="M510.4,999.3c10.8-23.4,34.2-63.7,57.9-91.2c23.7-27.5,47.7-42.2,72.1-41c24.4,1.2,49.2,18.3,71.4,45  c22.2,26.7,41.7,63,49.6,85.5c7.9,22.5,4.3,31.2-17.6,37.4c-21.9,6.3-61.9,10.1-90.8,8.5c-28.9-1.6-46.8-8.6-63.7-10.9  c-16.9-2.2-33,0.3-47.1,1.6c-14.2,1.3-26.5,1.3-33.6-1.9C501.5,1029.1,499.7,1022.7,510.4,999.3z"/>
<g>
	<path class="st7" d="M541.8,1030.7c-5.4,0.5-10.5,0.8-15.1,0.8c-3.6,0-6.9-0.2-9.8-0.6c-2.8-0.4-5.2-1-6.9-1.8   c-0.7-0.3-1.3-0.7-1.7-1c-0.7-0.5-1.1-1-1.4-1.7c-0.3-0.7-0.6-1.6-0.6-3.1c0-1.9,0.5-4.7,1.6-8.4c1.2-3.7,3-8.4,5.7-14.1   c5.3-11.5,13.8-27.3,23.9-43.7c10.1-16.3,21.8-33.2,33.5-46.7c11.2-13,22.5-23.1,33.6-29.8c11.1-6.7,22.1-10.1,33.1-10.1   c0.9,0,1.7,0,2.6,0.1c11.4,0.6,23.2,4.9,34.8,12.4c11.6,7.5,23.1,18.2,34,31.4c10.9,13.1,21.2,28.7,29.8,43.8   c8.6,15.1,15.4,29.6,19.2,40.6c2.4,6.9,3.6,12.3,3.6,16.3c0,2.2-0.3,4-1,5.5c-0.5,1.1-1.1,2.2-2,3.2c-1.3,1.5-3.2,2.9-5.9,4.2   c-2.6,1.3-6,2.6-10.1,3.7c-1.9,0.5-2.9,2.5-2.4,4.3s2.5,2.9,4.3,2.4c3.9-1.1,7.3-2.3,10.2-3.7c2.2-1,4.2-2.2,5.9-3.5   c2.6-1.9,4.6-4.3,5.9-7.1c1.3-2.7,1.9-5.8,1.9-9.1c0-5.4-1.5-11.4-4-18.6c-4.1-11.5-11-26.3-19.7-41.7   c-8.7-15.4-19.2-31.3-30.5-44.8c-11.3-13.6-23.2-24.8-35.6-32.8c-12.4-8-25.3-12.9-38.3-13.5c-1,0-2-0.1-2.9-0.1   c-12.5,0-24.8,3.9-36.7,11.1c-12,7.2-23.7,17.8-35.3,31.2c-12,14-23.9,31.1-34.1,47.6c-10.2,16.6-18.8,32.6-24.3,44.4   c-2.7,5.9-4.7,10.8-6,15c-1.3,4.1-1.9,7.5-1.9,10.5c0,1.5,0.2,2.9,0.5,4.2c0.5,2,1.6,3.7,2.9,5c1.3,1.3,2.8,2.2,4.4,2.9   c2.6,1.2,5.6,1.9,8.8,2.4c3.3,0.5,6.9,0.7,10.7,0.7c4.9,0,10.2-0.3,15.8-0.8c1.9-0.2,3.3-1.9,3.2-3.8   C545.5,1031.9,543.8,1030.5,541.8,1030.7L541.8,1030.7z"/>
	<path class="st7" d="M1040,1013c-0.2-0.2-0.3-0.3-0.5-0.7c-0.1-0.3-0.3-1-0.3-2c0-1.3,0.2-3.1,0.8-5.5c0.6-2.5,1.4-5.5,2.7-9.3   c2.6-7.6,6.6-18.1,11.5-28.9c4.9-10.8,10.5-22,16.1-30.9c5.4-8.6,10.7-15.1,15.9-19.4c2.6-2.1,5.1-3.7,7.5-4.7   c2.4-1,4.8-1.5,7.1-1.5c0.4,0,0.7,0,1.1,0c2.4,0.2,4.9,0.9,7.5,2.2c3.9,1.9,8,5.2,12.1,9.6c4.1,4.4,8.1,10,12.1,16.5   c1,1.7,3.1,2.2,4.8,1.2c1.7-1,2.2-3.1,1.2-4.8c-5.5-9.1-11.3-16.6-17.5-22.1c-3.1-2.7-6.3-5-9.6-6.6c-3.3-1.6-6.7-2.6-10.2-2.9   c-0.5,0-1-0.1-1.6-0.1c-3.3,0-6.6,0.7-9.8,2.1c-4.8,2-9.3,5.4-13.7,9.9c-4.4,4.5-8.7,10.2-12.9,17c-5.8,9.4-11.6,20.7-16.5,31.8   c-4.9,11-9.1,21.7-11.8,29.6c-1.3,4-2.3,7.2-2.9,10c-0.6,2.8-0.9,5.1-1,7.1c0,1.7,0.2,3.2,0.8,4.6c0.5,1.4,1.4,2.6,2.5,3.4   c1.5,1.3,3.7,1.1,4.9-0.4C1041.6,1016.5,1041.5,1014.2,1040,1013L1040,1013z"/>
</g>
<path class="st2" d="M1519.6,857.7l85.7-59.4l506.6,24.6l158.5-10.6l52.9,56.1l56.3-51.8l-278.3-273.8c0,0-160.3-26.3-202.5-23.7  s-250.1,73-250.1,73L1519.6,857.7z"/>
<path class="st8" d="M2302.1,838c0,167.7-165.9,303.6-370.4,303.6s-328.4-135.9-328.4-303.6s123.8-486.7,328.4-486.7  S2302.1,670.3,2302.1,838z"/>
<path class="st9" d="M1693.9,897.2c0,0,67.2,160.7,285.4,150.2c218.2-10.5,281.2-141.4,281.2-141.4s-34.7,193.1-387.1,197.4  C1641.5,1063.6,1693.9,897.2,1693.9,897.2z"/>
<path class="st2" d="M3050.5,495c-1.5-33.1-11.3-60.1-25.8-79.1c-7.3-9.5-15.7-16.9-24.9-22c-9.2-5.1-19-7.8-29.1-7.8  c-10.9,0-21.9,3.2-32.3,9.9c-12.2,7.8-23.3,20.1-33.6,35.4c-15.4,23-28.7,52.7-39.7,84.3c-11,31.6-19.6,65.2-25.2,95.7  c-6.3,33.9-9,64-10.5,85.6c-0.8,10.8-1.3,19.5-1.8,25.3c-0.2,2.9-0.5,5.2-0.8,6.5c-0.1,0.3-0.1,0.6-0.2,0.8c0,0.1-0.1,0.2-0.1,0.2  l0,0l1.7,0.7l-1.3-1.2c-0.3,0.4-0.3,0.5-0.4,0.5l1.7,0.7l-1.3-1.2l2.1,2l-1.3-2.6c-0.4,0.2-0.6,0.4-0.8,0.6l2.1,2l-1.3-2.6l1.4,2.8  l0-3.1c-0.5,0-1.1,0.1-1.4,0.3l1.4,2.8l0-3.1v3.1l1.1-2.9c-0.3-0.1-0.7-0.2-1.1-0.2v3.1l1.1-2.9l-0.9,2.6l1.9-2  c-0.2-0.1-0.4-0.4-1-0.6l-0.9,2.6l1.9-2l-1,1l1.2-0.8c0,0-0.1-0.1-0.2-0.2l-1,1l1.2-0.8l0,0l0,0l0,0l0,0l0,0c0,0-0.1-0.2-0.2-0.4  c-0.2-0.4-0.4-1-0.7-1.8c-0.3-0.8-0.6-1.7-0.9-2.9c-0.9-3.3-2.1-8-3.5-13.8c-4.9-20.3-12.4-54.1-23-90.4  c-10.6-36.3-24.1-75.1-41.2-105.6c-15.1-26.9-32.9-47.3-51.1-60.9c-9.1-6.8-18.4-12-27.6-15.5c-9.1-3.5-18.1-5.2-26.7-5.2  c-10.1,0-19.7,2.4-28,7.3c-7.6,4.5-14.1,11-19.6,18.9c-8.2,11.9-14.1,27.1-18,44c-3.9,16.9-5.8,35.7-5.8,54.8  c0,10.2,0.5,20.5,1.6,30.7c2.8,27.2,9.3,53.5,15.1,76c2.9,11.2,5.6,21.5,7.5,30.3c2,8.9,3.2,16.4,3.2,22c0,2.7-0.3,4.9-0.8,6.6  c-0.5,1.5-1.1,2.6-1.9,3.5c-0.6,0.7-1.3,1.2-2.2,1.7c-1.3,0.7-3,1.3-5,1.6c-2,0.4-4.4,0.5-7,0.5c-5,0-10.8-0.5-17.1-1.1  c-6.3-0.6-13.2-1.1-20.1-1.1c-6.2,0-12.5,0.4-18.7,1.8c-16.8,3.6-32,13.3-43.6,25.8c-5.8,6.2-10.8,13.2-14.5,20.4  c-3.8,7.2-6.4,14.7-7.6,22.2c-0.3,1.9,1,3.7,2.9,4c1.9,0.3,3.7-1,4-2.9c1-6.6,3.4-13.4,6.9-20c5.2-9.9,12.9-19.4,22.2-27  c9.2-7.6,20-13.2,31.3-15.6c5.6-1.2,11.4-1.6,17.2-1.6c6.6,0,13.2,0.5,19.5,1.1c6.3,0.6,12.3,1.1,17.8,1.1c2.6,0,5-0.1,7.4-0.5  c3.5-0.5,6.7-1.5,9.5-3.4c1.4-1,2.6-2.1,3.6-3.5c1-1.4,1.8-3,2.4-4.8c0.8-2.6,1.1-5.5,1.1-8.7c0-6.5-1.3-14.4-3.3-23.5  c-3-13.6-7.6-30-11.9-48c-4.3-18-8.5-37.6-10.5-57.5c-1-10-1.5-20-1.5-30c0-24.9,3.3-49,10-68.8c3.3-9.9,7.5-18.7,12.5-26  c5-7.3,10.8-13,17.4-16.9c7.2-4.2,15.4-6.3,24.5-6.3c7.6,0,15.8,1.6,24.3,4.8c12.7,4.8,25.9,13.3,38.8,25.5  c12.8,12.2,25.3,28.1,36.3,47.8c9.5,17,18,36.8,25.5,57.3c11.2,30.9,20.2,63.5,27,90.9c3.4,13.7,6.3,26.1,8.7,36.4  c2.4,10.3,4.3,18.4,5.8,23.6c0.7,2.3,1.2,4.1,1.8,5.4c0.3,0.7,0.6,1.3,1.1,1.9c0.3,0.3,0.6,0.7,1.1,1c0.3,0.2,0.6,0.4,1,0.5  c0.4,0.1,0.8,0.2,1.3,0.2c0.6,0,1.2-0.2,1.7-0.4c0.5-0.2,0.8-0.5,1.1-0.8c0.5-0.5,0.8-1,1-1.4c0.4-0.8,0.5-1.5,0.7-2.4  c0.3-1.6,0.6-3.5,0.8-6c0.4-4.4,0.8-10.2,1.3-17.5c1.4-21.7,3.9-55.4,11-94.2c7.5-40.2,20.1-85.9,36.6-125.1  c8.2-19.6,17.4-37.5,27.3-52.3c9.9-14.8,20.6-26.4,31.5-33.4c9.4-6,19-8.8,28.6-8.8c8.8,0,17.5,2.4,25.7,6.9  c12.3,6.8,23.6,18.7,32,34.8c8.4,16.2,14,36.6,15.1,60.5c0.1,1.9,1.7,3.4,3.7,3.3C3049.1,498.5,3050.6,496.9,3050.5,495L3050.5,495z  "/>
<path class="st2" d="M2830.7,966.1c-8.6-6.3-19-14-29.1-22.4c-10.1-8.4-19.8-17.6-27-26.8c-5.3-6.7-9.1-13.4-11.7-20  c-2.6-6.6-3.8-13.1-3.8-19.5c0-4.6,0.7-9.1,2-13.5c2.4-8,7-15.8,12.6-21.5c2.8-2.8,5.9-5.1,9.1-6.7c3.2-1.6,6.4-2.4,9.6-2.4  c0.6,0,1.1,0,1.7,0.1c3.3,0.3,6.9,1.6,10.5,3.7c5.4,3.1,11,8.1,16,13.8c5.1,5.7,9.6,12.1,13.3,18.1c4.9,8,8.2,15.4,11.3,21.1  c1.5,2.9,3,5.3,4.7,7.4c0.9,1,1.8,1.9,2.9,2.7c1.1,0.7,2.4,1.3,3.8,1.5c0.4,0.1,0.8,0.1,1.3,0.1c1.4,0,2.7-0.3,4-0.9  c2.2-1,4.2-2.8,6-5.2c2.7-3.6,5.2-8.8,7.4-16c2.2-7.2,4.1-16.4,5.4-28c2.1-18.4,2.8-42.7,4.2-67.3c0.7-12.3,1.5-24.6,2.7-36.3  c1.2-11.6,2.8-22.6,4.9-32.1c3.7-16.3,9.3-28.4,15.8-36.2c3.2-3.9,6.7-6.7,10.3-8.6c3.6-1.9,7.3-2.8,11.3-2.8c2.5,0,5.2,0.4,7.9,1.2  c4.9,1.4,10.3,4.2,15.7,8.1c8.1,5.8,16.3,13.8,23.9,22.8c7.5,9,14.4,18.8,19.8,28.1c7.2,12.4,12,23.7,16,35.3  c3.9,11.6,7,23.4,10.9,36.5c3.9,13.1,8.5,27.5,13.4,40c2.5,6.3,5,12,7.6,17c2.6,5,5.3,9.1,8.1,12.2c1.5,1.6,3.1,2.9,4.8,3.8  c1.7,0.9,3.5,1.5,5.4,1.5c1.3,0,2.6-0.3,3.8-0.8c2.1-0.9,3.9-2.5,5.3-4.4c2.1-3,3.7-6.9,4.8-11.8c1.1-4.9,1.8-10.8,1.9-17.8  c0-1,0-2,0-3c0-14.5-2-32.9-4.8-54.3c-2.8-21.4-6.3-45.6-9.5-71.5c-3.8-31.3-7-65-7-94.3c0-10.4,0.4-20.3,1.3-29.2  c0.9-8.9,2.3-17,4.3-23.7c3-10.2,7.4-17.7,12.3-22.4c2.4-2.4,5-4.1,7.6-5.3c2.6-1.1,5.2-1.7,7.9-1.7c3.2,0,6.4,0.8,9.7,2.4  c3.3,1.6,6.6,4.1,9.7,7.5c4.2,4.6,8.3,10.9,12,18.6c5.5,11.6,10.3,26.1,14.2,42.4c4,16.3,7.1,34.3,9.5,52.7  c6.5,49.1,7.7,101.3,7.7,133.6c0,12.9-0.2,22.7-0.2,30.3c0,5.7,0.1,10.1,0.5,13.7c0.2,1.8,0.5,3.4,0.9,4.9c0.4,1.5,0.9,2.9,1.6,4.1  c0.8,1.4,1.8,2.7,3.2,3.7c1.4,1,3.2,1.6,5.1,1.6c1.8,0,3.6-0.5,5.4-1.5c2.7-1.4,5.3-3.8,8.3-7.2c2.9-3.5,6-8,9.5-14  c3.5-6.1,7.2-13.5,11.3-21.7c6.2-12.3,13.1-26.2,21.1-39.3c7.9-13.1,16.8-25.4,26.6-34.5c8.2-7.6,17.3-13.1,26.2-16.7  c8.9-3.6,17.8-5.2,25.6-5.2c4.6,0,8.8,0.6,12.5,1.6c3.7,1.1,6.8,2.6,9.2,4.5c2.9,2.3,5,5.2,6.4,8.8c1.4,3.5,2.1,7.7,2,12.4  c0,5.7-1,12-2.8,18.5c-1.8,6.6-4.3,13.3-7.3,20c-5.5,12.1-12.6,23.7-20.1,35c-7.5,11.3-15.3,22.3-22.2,33.4c-5.1,8.2-9.6,16.3-13,24  c-3.3,7.7-5.4,15-5.4,21.7c0,2.3,0.3,4.6,0.9,6.8c0.6,2.2,1.6,4.2,2.9,6.1c1.4,2,3.2,3.6,5.2,5.1c3.1,2.1,6.8,3.7,11,4.7  c4.2,1,8.9,1.5,14,1.5c11.3,0,24.6-2.5,38.8-7.6c15.7-5.7,32.3-14.6,48.7-22.3c8.2-3.9,16.4-7.5,24.3-10.3c7.9-2.8,15.7-4.8,23-5.5  c2-0.2,4.1-0.3,6.1-0.3c13.2,0,25.1,4.1,34,10.7c4.4,3.3,8.1,7.2,10.8,11.5c2.7,4.3,4.4,8.9,5.1,13.8c0.2,1.9,2,3.3,3.9,3  c1.9-0.2,3.3-2,3-3.9c-0.8-5.9-2.9-11.6-6.1-16.6c-4.8-7.6-12-14-20.7-18.4c-8.7-4.5-19-7-30-7c-2.2,0-4.5,0.1-6.7,0.3  c-8.1,0.8-16.3,2.9-24.6,5.8c-12.5,4.4-25.1,10.5-37.4,16.5c-12.4,6-24.5,12-35.7,16.1c-13.6,4.9-26.2,7.2-36.4,7.2  c-6.2,0-11.5-0.8-15.7-2.3c-2.1-0.7-3.9-1.6-5.3-2.7c-1.5-1-2.6-2.1-3.5-3.4c-0.8-1.2-1.4-2.4-1.8-3.9c-0.4-1.5-0.6-3.1-0.6-4.9  c0-5.2,1.8-11.7,4.9-19c3.1-7.2,7.5-15.1,12.5-23.1c6.7-10.8,14.5-21.8,22.1-33.2c7.6-11.4,14.9-23.3,20.7-35.9  c3.1-6.9,5.8-14,7.7-21.1c1.9-7,3-13.9,3-20.4c0-5.3-0.8-10.4-2.5-14.9c-1.8-4.6-4.6-8.6-8.6-11.8c-3.3-2.6-7.2-4.5-11.6-5.7  c-4.4-1.3-9.3-1.9-14.4-1.9c-8.8,0-18.5,1.9-28.2,5.7c-9.7,3.9-19.5,9.8-28.3,18.1c-14.1,13.1-25.7,31.5-35.6,49.6  c-4.9,9.1-9.5,18-13.6,26.2c-4.1,8.2-7.8,15.6-11.1,21.4c-4.4,7.7-8.2,12.7-11.2,15.6c-1.5,1.5-2.8,2.4-3.8,2.9  c-1,0.5-1.7,0.7-2.1,0.7c-0.4,0-0.7-0.1-1-0.3c-0.3-0.2-0.8-0.7-1.2-1.4c-0.4-0.6-0.7-1.4-1-2.5c-0.4-1.6-0.7-3.7-0.9-6.5  c-0.2-2.8-0.2-6.2-0.2-10.4c0-7.4,0.2-17.3,0.2-30.3c0-32.5-1.2-84.9-7.7-134.6c-3.3-24.8-7.9-48.9-14-69.5  c-3.1-10.3-6.5-19.6-10.4-27.8c-3.9-8.1-8.2-15-13.1-20.4c-3.6-4-7.6-7-11.8-9.1c-4.1-2.1-8.5-3.1-12.8-3.1c-3.7,0-7.3,0.8-10.7,2.3  c-5.2,2.3-9.9,6.2-13.9,11.6c-4,5.4-7.4,12.2-9.8,20.6c-2.2,7.3-3.7,15.8-4.6,25c-0.9,9.2-1.4,19.3-1.4,29.9c0,29.7,3.2,63.7,7,95.1  c3.1,26,6.7,50.3,9.5,71.6c2.8,21.3,4.7,39.5,4.7,53.4c0,1,0,1.9,0,2.9c-0.1,5-0.5,9.4-1.1,13.1c-0.9,5.6-2.4,9.6-3.9,11.9  c-0.8,1.2-1.5,1.9-2.1,2.3c-0.6,0.4-1.1,0.5-1.7,0.5c-0.5,0-1.2-0.1-2.1-0.6c-0.9-0.5-1.9-1.3-3.1-2.5c-2.2-2.3-4.6-6-7-10.6  c-3.7-7-7.4-16.1-10.9-25.8c-3.5-9.7-6.8-20.2-9.6-29.9c-3.8-13-6.9-24.9-11-36.8c-4-11.9-9-23.8-16.5-36.6  c-7.5-12.8-17.5-26.6-28.6-38c-5.5-5.7-11.3-10.9-17.1-15c-5.9-4.2-11.8-7.4-17.8-9.1c-3.3-1-6.6-1.4-9.9-1.4c-5,0-10,1.2-14.5,3.5  c-6.8,3.5-12.8,9.6-17.7,17.8c-5,8.3-9,18.8-11.9,31.6c-2.3,9.9-3.9,21.1-5.1,32.9c-1.8,17.7-2.7,36.9-3.6,55  c-0.9,18.1-1.7,35.1-3.2,48.6c-2,17.2-5.1,28.7-8.4,35.5c-1.6,3.4-3.3,5.7-4.6,6.9c-0.7,0.6-1.3,1-1.7,1.2c-0.5,0.2-0.8,0.3-1.1,0.3  l-0.2,0c-0.2,0-0.5-0.1-0.9-0.4c-0.7-0.4-1.7-1.5-2.7-3.2c-1.6-2.5-3.5-6.2-5.7-10.6c-2.2-4.4-4.9-9.6-8.3-15.2  c-5.2-8.4-11.9-17.6-19.6-25c-3.8-3.7-7.9-6.9-12.2-9.4c-4.3-2.5-8.8-4.1-13.4-4.6c-0.8-0.1-1.5-0.1-2.3-0.1  c-4.4,0-8.7,1.2-12.7,3.1c-6,2.9-11.2,7.6-15.6,13.3c-4.3,5.7-7.7,12.3-9.8,19.1c-1.5,5.1-2.3,10.2-2.3,15.5c0,7.3,1.5,14.7,4.3,22  c2.9,7.3,7.1,14.6,12.7,21.8c7.6,9.7,17.7,19.2,28,27.8c10.3,8.6,20.8,16.4,29.4,22.7c1.6,1.1,3.7,0.8,4.9-0.7  C2832.6,969.4,2832.2,967.2,2830.7,966.1L2830.7,966.1z"/>
<path class="st2" d="M3650.5,894.9c-1.7-16.6-3.6-35.1-7-51.7c-1.7-8.3-3.7-16.2-6.3-23.1c-2.6-7-5.7-13.1-9.7-17.9l-0.1-0.2  c-0.1-0.1-2.3-2.4-5.8-4.8c-1.8-1.2-3.9-2.4-6.3-3.3c-2.4-0.9-5.1-1.6-8-1.6c-2.5,0-5.1,0.5-7.6,1.7c-1.9,0.9-3.8,2.1-5.6,3.8  c-2.7,2.5-5.1,5.8-7.3,10.2c-2.2,4.4-4.2,9.8-5.9,16.6c-1.9,7.6-2.7,15.7-2.7,23.9c0,12.2,1.8,24.8,4.4,36.9  c4,18,9.9,34.8,14.9,47.1c5,12.3,8.9,20.1,9,20.2c0.9,1.7,3,2.4,4.7,1.5c1.7-0.9,2.4-3,1.5-4.7l0,0c-0.4-0.7-7.3-14.6-14.1-33.9  c-3.4-9.7-6.8-20.8-9.3-32.3c-2.5-11.5-4.2-23.4-4.2-34.8c0-7.8,0.8-15.3,2.5-22.2c1.4-5.6,3-10.2,4.7-13.8  c2.5-5.4,5.2-8.7,7.7-10.6c1.3-0.9,2.5-1.6,3.6-1.9c1.2-0.4,2.3-0.6,3.5-0.6c1.8,0,3.7,0.4,5.5,1.1c2.7,1,5.1,2.7,6.8,4  c0.9,0.7,1.6,1.3,2,1.7c0.2,0.2,0.4,0.4,0.5,0.5l0.1,0.1l0,0l0,0l1.5-1.4l-1.5,1.4l0,0l1.5-1.4l-1.5,1.4l2.6-2.4l-2.7,2.2  c3.3,3.9,6.1,9.4,8.5,15.9c3.6,9.7,6.2,21.8,8.2,34.5c2,12.7,3.4,26.1,4.7,38.6c0.2,1.9,1.9,3.3,3.8,3.1  C3649.3,898.5,3650.7,896.8,3650.5,894.9L3650.5,894.9z"/>
<path class="st2" d="M3757.6,919.5c4.8-8.8,8.8-18.5,11.5-28.5c2.8-9.9,4.4-20.1,4.4-29.6c0-7.1-0.9-13.9-2.9-20.1  c-2.3-7.2-6.1-13.5-10.9-18.1c-2.4-2.3-5.1-4.2-8-5.5c-2.9-1.3-6-2-9.2-2c-3.8,0-7.6,1-11.2,3.1c-3.7,2.1-7.1,5.2-10.4,9.5  c-1.2,1.5-0.9,3.7,0.7,4.9c1.5,1.2,3.7,0.9,4.9-0.7c2.8-3.6,5.6-6.1,8.3-7.6c2.7-1.5,5.3-2.2,7.8-2.2c2.1,0,4.2,0.5,6.3,1.4  c3.1,1.4,6.1,3.9,8.7,7.2c2.6,3.3,4.8,7.5,6.3,12.1c1.7,5.3,2.5,11.4,2.5,18c0,8.8-1.5,18.3-4.1,27.8c-2.6,9.4-6.4,18.7-10.9,27  c-0.9,1.7-0.3,3.8,1.4,4.7C3754.5,921.9,3756.7,921.2,3757.6,919.5L3757.6,919.5z"/>
<path class="st2" d="M3781,996.3c8.2-7.6,15.1-15.3,20.1-22.4c2.5-3.6,4.6-7,6.1-10.2c1.5-3.2,2.5-6.3,2.8-9.2c0-0.5,0.1-1,0.1-1.5  c0-1.7-0.3-3.4-0.9-4.9c-0.5-1.1-1.2-2.2-2-3.1c-1.3-1.4-3-2.3-4.8-2.9c-1.8-0.6-3.9-0.9-6.1-0.9c-5,0-11,1.4-18.2,4.1  c-1.8,0.7-2.7,2.7-2,4.5c0.7,1.8,2.7,2.7,4.5,2c6.7-2.6,12-3.7,15.7-3.7c1.5,0,2.7,0.2,3.6,0.4c0.7,0.2,1.2,0.4,1.6,0.7  c0.6,0.4,1,0.8,1.2,1.4c0.3,0.5,0.5,1.3,0.5,2.3c0,0.3,0,0.5,0,0.8c-0.2,1.8-0.9,4.1-2.2,6.9c-1.9,4.1-5.2,9-9.4,14.3  c-4.2,5.2-9.4,10.8-15.3,16.3c-1.4,1.3-1.5,3.5-0.2,4.9C3777.3,997.6,3779.6,997.6,3781,996.3L3781,996.3z"/>
<path class="st2" d="M267,1007.3c-3.4-7.3-5.3-15.3-5.3-23.7c0-8.4,1.9-16.3,5.3-23.5c5.1-10.9,13.7-20.2,24.5-26.8  c10.8-6.6,23.9-10.5,38-10.5c10.1,0,19.7,2,28.3,5.6c1,0.4,2.1,0.3,3.1-0.2c0.9-0.5,1.6-1.5,1.7-2.5c0.5-3.1,1.6-6.1,3.3-8.8  c1.7-2.8,4-5.3,6.7-7.5c0.8-0.7,1.3-1.6,1.3-2.7s-0.5-2-1.3-2.7c-19.9-16.5-32.7-41.7-32.7-69.9c0-24.9,9.9-47.5,26-63.8  c16.1-16.3,38.2-26.4,62.8-26.4c17.4,0,33.6,5.1,47.3,13.9c13.7,8.8,24.9,21.3,32.2,36.1c0.4,0.9,1.2,1.5,2.2,1.8  c0.9,0.3,2,0.1,2.8-0.4c9.8-6,21.7-9.5,34.4-9.5c16.1,0,30.6,5.5,41.6,14.6c11,9,18.4,21.5,20.1,35.5c0.1,1.2,0.9,2.2,1.9,2.7  c1.1,0.5,2.3,0.5,3.3-0.1c13-7.8,28.9-12.4,46.1-12.4c22.4,0,42.5,7.8,57.1,20.3c7.3,6.2,13.1,13.6,17.1,21.8  c4,8.2,6.2,17.1,6.2,26.5c0,1.9,1.6,3.5,3.5,3.5c1.9,0,3.5-1.6,3.5-3.5c0-10.5-2.5-20.5-7-29.6c-6.7-13.6-17.9-25.1-31.8-33.2  c-13.9-8.1-30.7-12.8-48.7-12.8c-18.4,0-35.6,4.9-49.7,13.4l1.8,3l3.5-0.4c-2-15.9-10.4-30-22.6-40.1  c-12.3-10.1-28.4-16.2-46.1-16.2c-14,0-27.1,3.8-38,10.5l1.8,3l3.1-1.5c-7.8-16-19.9-29.4-34.7-38.9c-14.8-9.5-32.3-15-51.1-15  c-26.5,0-50.4,10.9-67.7,28.5c-17.3,17.6-28,41.9-28,68.7c0,30.3,13.7,57.5,35.2,75.3l2.2-2.7l-2.2-2.7c-3.3,2.7-6.1,5.8-8.3,9.3  c-2.1,3.5-3.6,7.3-4.3,11.4l3.5,0.5l1.3-3.2c-9.5-3.9-20-6.1-31-6.1c-20.5,0-39.2,7.5-52.8,19.7c-6.8,6.1-12.3,13.4-16.1,21.6  c-3.8,8.1-5.9,17.1-5.9,26.5c0,9.5,2.1,18.5,6,26.7c0.8,1.7,2.9,2.5,4.7,1.7C267,1011.2,267.8,1009.1,267,1007.3L267,1007.3z"/>
<path class="st2" d="M913.9,848.7c-3.6-0.8-7.5-1.1-11.6-1.1c-9.2,0-19.5,1.7-29.6,4.6c-10.1,2.9-20,6.9-28.3,11.6  c-10.2,5.8-18,12.5-23.6,18.2c-2.8,2.9-5,5.5-6.8,7.6c-0.9,1.1-1.6,2-2.2,2.8c-0.6,0.8-1.1,1.4-1.4,1.8c-0.2,0.2-0.3,0.4-0.4,0.5  l0,0l1.5,1.4l-1.3-1.6c-0.1,0.1-0.2,0.2-0.2,0.2l1.5,1.4l-1.3-1.6l2.1,2.4l-1.7-2.7c-0.2,0.2-0.3,0.2-0.4,0.3l2.1,2.4l-1.7-2.7  l1.8,2.9l-1.2-3.2c-0.3,0.1-0.4,0.2-0.6,0.3l1.8,2.9l-1.2-3.2l1.2,3.2v-3.5c-0.6,0-1,0.1-1.2,0.2l1.2,3.2v-3.5v3.5l1.4-3.2  c-0.5-0.2-1-0.3-1.4-0.3v3.5l1.4-3.2l-1.4,3.2l2.4-2.5c-0.3-0.3-0.7-0.5-1-0.7l-1.4,3.2l2.4-2.5l-2.4,2.5l3.3-1.1  c-0.1-0.4-0.4-1-0.9-1.4l-2.4,2.5l3.3-1.1l-3.3,1.1l3.5,0c0-0.3,0-0.6-0.2-1.1l-3.3,1.1l3.5,0h-3.4l3.3,0.8c0-0.2,0.1-0.4,0.1-0.8  h-3.4l3.3,0.8l-2.9-0.7l2.7,1.1c0-0.1,0.1-0.2,0.1-0.5l-2.9-0.7l2.7,1.1l-1.2-0.5l1.2,0.6l0-0.1l-1.2-0.5l1.2,0.6  c0,0,0.1-0.3,0.3-0.6c0.7-1.2,2.3-3.7,4.7-7.4c2.4-3.7,5.7-8.6,9.8-14.6c6.2-9.1,14.3-20.9,22.8-34.2c8.5-13.3,17.3-28.2,24.9-43.4  c6.9-13.8,12.8-28,17-41.3c4.2-13.3,6.7-25.8,6.7-36.4c0-2.2-0.1-4.4-0.4-6.5c-1.1-10-5.3-17.7-11-22.8c-5.7-5.1-13-7.6-20.2-7.6  c-1.3,0-2.5,0.1-3.8,0.2c-3.9,0.5-7.7,1.7-11.3,3.5c-5.4,2.7-10.5,6.9-15.3,12.2c-4.7,5.3-9.2,11.8-13.2,19.3  c-5.4,10-10.3,21.8-14.5,34.3c-4.3,12.5-8,25.7-11.2,38.3c-6.3,25.3-10.4,48.7-13.4,66.7c-1.4,8.2-2.5,15.3-3.3,20.3  c-0.4,2.5-0.8,4.5-1,5.8c-0.1,0.6-0.2,1.1-0.3,1.3l0,0.1l1.9,0.6l-1.8-0.9c-0.1,0.3-0.1,0.3-0.1,0.3l1.9,0.6l-1.8-0.9l2.9,1.5  l-2.4-2.1c-0.3,0.4-0.4,0.6-0.5,0.7l2.9,1.5l-2.4-2.1l2.6,2.3l-1.8-2.9c-0.4,0.2-0.6,0.5-0.8,0.7l2.6,2.3l-1.8-2.9l1.8,3l0-3.5  c-0.8,0-1.4,0.3-1.8,0.5l1.8,3l0-3.5v3.5l1.1-3.3c-0.4-0.1-0.8-0.2-1.1-0.2v3.5l1.1-3.3l-1.1,3.3l2.5-2.4c-0.3-0.3-0.7-0.7-1.4-0.9  l-1.1,3.3l2.5-2.4l-2.5,2.3l3-1.6c-0.1-0.2-0.2-0.4-0.5-0.7l-2.5,2.3l3-1.6l-2.9,1.6l3.2-0.9c0-0.1-0.1-0.3-0.3-0.7l-2.9,1.6  l3.2-0.9l-2.6,0.8l2.7-0.4c0-0.1,0-0.2-0.1-0.4l-2.6,0.8l2.7-0.4l-1.2,0.2l1.2-0.1l0-0.1l-1.2,0.2l1.2-0.1l0,0c0,0,0-0.1,0-0.3  c0-0.4,0-1.1,0.1-2c0.2-3.1,0.6-8.9,1.3-17.2c0.7-8.3,1.7-19,2.8-32.1c1.9-20.8,4.4-47.8,4.4-71.6c0-12.5-0.7-24.2-2.6-33.8  c-1.3-6.5-3.2-12-5.5-16.7c-3.5-6.9-7.9-11.9-12.9-15.1c-4.9-3.2-10.3-4.5-15.3-4.5c-0.9,0-1.9,0-2.8,0.1c-3.5,0.3-6.9,1.3-10,3  c-4.7,2.5-8.7,6.5-11.9,11.8c-3.2,5.3-5.7,11.9-7.3,19.8c-2.3,11-3.1,24.6-3.1,39c0,13.2,0.7,27,1.6,40c0.9,13.5,2,26,3,36.2  c1,10.2,1.8,18.2,2.2,22.4c0.1,0.7,0.1,1.3,0.1,1.7c0,0.5,0,0.8,0,0.9l0,0l1.1,0l-1.1-0.1l0,0.1l1.1,0l-1.1-0.1l2.5,0.2l-2.4-0.4  c0,0.1,0,0.1,0,0.2l2.5,0.2l-2.4-0.4l3,0.5l-2.9-0.7c0,0.1,0,0.2-0.1,0.3l3,0.5l-2.9-0.7l3.3,0.8l-2.8-1.8c-0.3,0.5-0.4,0.8-0.5,1  l3.3,0.8l-2.8-1.8l2.9,1.9l-2-2.9c-0.5,0.3-0.8,0.7-0.9,1l2.9,1.9l-2-2.9l2,2.9l-1.1-3.3c-0.3,0.1-0.6,0.3-0.9,0.4l2,2.9l-1.1-3.3  l1.1,3.3V865c-0.4,0-0.7,0.1-1.1,0.2l1.1,3.3V865v3.5l1.4-3.2c-0.4-0.2-0.9-0.3-1.4-0.3v3.5l1.4-3.2l-1.4,3.1l2.6-2.2  c-0.2-0.2-0.5-0.6-1.2-0.9l-1.4,3.1l2.6-2.2l-2.5,2.1l2.8-1.6c-0.1-0.1-0.2-0.3-0.3-0.5l-2.5,2.1l2.8-1.6l-2.3,1.3l2.5-1  c0,0,0-0.1-0.2-0.4l-2.3,1.3l2.5-1l-1,0.4l1-0.4l0,0l-1,0.4l1-0.4l0,0c0-0.1-0.1-0.5-0.3-1.1c-0.5-2-1.4-6.4-2.8-13.6  c-1.4-7.2-3.4-17.3-6-30.9c-4.4-22.9-10.8-55.7-18.7-89.3c-7.9-33.6-17.4-67.9-28-93.8c-10.7-25.9-22.5-43.3-34.2-54.6  c-11.6-11.3-23-16.4-32.6-17.6c-1.4-0.2-2.7-0.3-4-0.3c-4.2,0-8.2,0.9-11.6,2.8c-2.6,1.4-4.9,3.3-6.8,5.7c-2.9,3.6-5,8.1-6.5,13.4  c-1.5,5.4-2.3,11.6-2.5,18.7c-0.1,1.5-0.1,3.1-0.1,4.7c0,13.5,1.9,29.8,5.5,47.3c3.6,17.5,8.9,36.2,15.9,54.3c0.7,1.8,2.7,2.7,4.5,2  c1.8-0.7,2.7-2.7,2-4.5c-6.8-17.8-12.1-36.1-15.6-53.2c-3.5-17.1-5.3-33-5.3-45.9c0-1.5,0-3,0.1-4.4c0.2-6,0.9-11.1,1.9-15.5  c0.8-3.3,1.8-6.1,3-8.4c1.8-3.5,3.9-5.9,6.4-7.5c2.5-1.6,5.5-2.4,9.1-2.4c1,0,2.1,0.1,3.2,0.2c7.8,0.9,17.8,5.2,28.6,15.7  c10.7,10.4,22.2,27,32.6,52.3c10.4,25.3,19.8,59.4,27.7,92.8c7.9,33.4,14.2,66.2,18.7,89.1c3.3,17.2,5.6,28.8,7,36.1  c0.7,3.6,1.3,6.2,1.6,7.9c0.2,0.9,0.3,1.5,0.5,2c0.1,0.3,0.1,0.5,0.3,0.8c0.1,0.2,0.1,0.4,0.4,0.7c0.1,0.2,0.3,0.4,0.7,0.8  c0.2,0.2,0.5,0.3,0.8,0.5c0.4,0.2,0.9,0.3,1.4,0.3c0.5,0,1-0.1,1.4-0.3c0.4-0.2,0.7-0.4,1-0.6c0.4-0.4,0.6-0.8,0.8-1  c0.2-0.5,0.3-0.7,0.3-0.9c0.1-0.3,0.1-0.5,0.1-0.6c0-0.2,0-0.3,0-0.4c0-0.4,0-0.9-0.1-1.4c0-0.5-0.1-1.2-0.2-1.9  c-0.4-4.4-1.2-12.3-2.2-22.5c-1-10.2-2.1-22.6-3-36c-0.9-12.8-1.5-26.5-1.5-39.5c0-14.1,0.8-27.3,3-37.5c2.1-9.8,5.4-16.9,9.3-21.6  c2-2.3,4.1-4.1,6.4-5.3c2.3-1.2,4.7-2,7.4-2.2c0.7-0.1,1.4-0.1,2.1-0.1c2.5,0,5.1,0.5,7.7,1.5c3.9,1.5,7.7,4.3,11,9  c3.4,4.7,6.3,11.2,8.1,20.2c1.8,8.9,2.5,20.2,2.5,32.5c0,23.3-2.5,50.1-4.4,71c-1.4,15-2.4,26.9-3.1,35.6c-0.4,4.3-0.6,7.8-0.8,10.6  c-0.2,2.7-0.3,4.6-0.3,5.8c0,0.3,0,0.5,0,0.8l0,0c0,0.1,0,0.2,0,0.4c0,0.1,0,0.2,0.1,0.4c0,0.1,0.1,0.2,0.1,0.4  c0.1,0.2,0.2,0.6,0.6,1.1c0.2,0.3,0.5,0.6,1,0.9c0.5,0.3,1.1,0.5,1.8,0.5c0.5,0,1-0.1,1.3-0.3c0.7-0.3,1.1-0.7,1.3-0.9  c0.2-0.3,0.3-0.4,0.4-0.6c0.2-0.3,0.2-0.5,0.3-0.6c0.1-0.3,0.2-0.5,0.2-0.8c0.1-0.4,0.2-0.9,0.3-1.5c0.4-2.1,1-5.6,1.7-10.1  c0.7-4.5,1.6-10.1,2.7-16.4c3-17.9,7-41,13.2-66.1c3.1-12.5,6.8-25.5,11-37.8c4.2-12.2,8.9-23.8,14.1-33.3  c5.2-9.5,10.8-17.1,16.6-22.3c2.9-2.6,5.9-4.7,8.9-6.2c3-1.5,6-2.4,9-2.8c1-0.1,2-0.2,2.9-0.2c5.6,0,11.1,1.9,15.5,5.8  c4.4,3.9,7.7,9.8,8.7,18.4c0.2,1.8,0.3,3.7,0.3,5.7c0,9.5-2.3,21.4-6.4,34.3c-4.1,12.9-9.8,26.7-16.6,40.3  c-7.5,15-16.2,29.6-24.6,42.8c-8.4,13.2-16.4,24.9-22.6,34c-5.1,7.5-8.9,13.2-11.4,17.1c-1.3,2-2.2,3.5-2.9,4.6  c-0.3,0.5-0.6,1-0.8,1.3c-0.1,0.2-0.2,0.3-0.3,0.6c0,0.1-0.1,0.2-0.2,0.4c0,0.1-0.1,0.2-0.1,0.4c0,0.2-0.1,0.4-0.1,0.8  c0,0.3,0,0.6,0.1,1c0.1,0.3,0.2,0.6,0.4,0.9c0.3,0.5,0.8,1,1.4,1.3c0.6,0.3,1.1,0.4,1.6,0.4c0.7,0,1.1-0.2,1.4-0.3  c0.5-0.2,0.7-0.4,0.8-0.5c0.3-0.2,0.4-0.3,0.5-0.4c0.2-0.2,0.3-0.3,0.4-0.5c0.1-0.2,0.3-0.3,0.4-0.5c0.4-0.5,0.8-1.1,1.4-1.9  c2-2.6,5.4-7,10.5-11.8c5-4.9,11.6-10.3,20-15c7.8-4.4,17.2-8.2,26.8-11c9.6-2.7,19.3-4.3,27.7-4.3c3.7,0,7.2,0.3,10.2,1  c1.9,0.4,3.8-0.8,4.2-2.7C917,851,915.8,849.1,913.9,848.7L913.9,848.7z"/>
<path class="st2" d="M2074.2,1113c-43.8,15.2-92,23.6-142.6,23.6c-50.6,0-96.1-8.4-135.8-23.5c-39.8-15.1-73.8-37-101.6-64  c-27.8-27-49.2-59.1-63.8-94.8c-14.5-35.7-22.2-75-22.2-116.3c0-41.3,7.7-92.3,22.4-145.5c14.7-53.1,36.4-108.4,64.5-158.3  c28-49.9,62.4-94.6,102.1-126.5c19.9-16,41-28.8,63.5-37.7c22.4-8.8,46.1-13.7,71-13.7c24.9,0,49.3,4.9,72.9,13.7  c23.6,8.9,46.5,21.7,68.3,37.8c43.7,32.1,83.3,76.7,116.5,126.7c33.3,50,60.2,105.2,78.8,158.3c9.3,26.5,16.5,52.5,21.4,77.1  c4.9,24.5,7.4,47.5,7.4,68.1c0,41.1-10.2,80.2-28.6,115.9c-18.4,35.7-45.1,67.9-78.1,94.9c-2.1,1.8-2.4,4.9-0.7,7  c1.8,2.1,4.9,2.4,7,0.7c34-27.9,61.6-61.1,80.7-98.1c19.1-37,29.7-77.7,29.7-120.5c0-21.4-2.6-45-7.6-70c-5-25-12.3-51.5-21.8-78.4  c-18.9-53.9-46.2-109.8-79.9-160.5c-33.8-50.7-74-96.3-119-129.2c-22.5-16.5-46.1-29.8-70.7-39.1c-24.6-9.2-50.2-14.4-76.4-14.4  c-26.2,0-51.2,5.1-74.7,14.4c-23.5,9.3-45.6,22.7-66.1,39.2c-41,33.1-76,78.7-104.5,129.4c-28.5,50.8-50.5,106.7-65.4,160.5  c-14.9,53.9-22.7,105.6-22.7,148.1c0,42.5,7.9,83.1,22.9,120.1c15.1,37,37.3,70.3,66.1,98.2c28.8,28,64,50.6,105,66.2  c41,15.6,87.7,24.2,139.4,24.2c51.7,0,101-8.6,145.8-24.1c2.6-0.9,4-3.8,3.1-6.4C2079.7,1113.5,2076.8,1112.1,2074.2,1113  L2074.2,1113z"/>
<path class="st7" d="M1524.2,848.2c-6,8.6-20.9,4.5-20.4-5.6c7.3-141,60.4-643.4,450-643.4c402.9,0,425.6,505.4,425.7,617.5  c0,8.5-11.3,13-18.4,7.3l-76.2-61.3c-4.7-3.8-11.9-3.3-15.9,1.1l-64.7,70.2c-4.6,5-13.2,4.7-17.5-0.5l-46.6-57.5  c-3.5-4.4-10.4-5.4-15.3-2.3l-26.3,16.6c-6.1,3.8-14.6,1.3-16.9-5l-12.4-33.9c-2.8-7.7-14.2-9.2-19.5-2.7l-73.8,92.5  c-4.8,6-15,5.4-18.8-1.2l-74.5-128.3c-3.8-6.5-13.9-7.2-18.7-1.3l-38.1,46.8c-4.4,5.3-13.3,5.4-17.7,0.1l-27.8-33  c-4.9-5.8-15-5-18.7,1.5l-63.2,112.6c-4.1,7.3-15.7,7.2-19.7,0l-56.6-102.1c-3.8-6.9-14.7-7.4-19.2-0.8L1524.2,848.2z"/>
<path class="st10" d="M2141.5,288.8c100,86.3,149.5,238.9,173.2,350c1.8,8.3-8.9,12-11.7,4c-57.9-166.4-163-263.5-230.7-313.7  C2041.3,306,2046,204.8,2141.5,288.8z"/>
<path class="st10" d="M1962.9,230.5c0,0-55.4,0.9-61.2,20s19.5,43.5,45.4,38.2s74.6-12.9,76.3-30.4  C2025,240.9,1989.3,221.2,1962.9,230.5z"/>
<polygon class="st10" points="1615.2,623 1688.9,773.2 1749.9,698.1 1688.9,728.7 "/>
<polygon class="st10" points="1934,734 1962.1,797.4 2055.3,712.4 1974.7,754.9 "/>
<ellipse transform="matrix(0.7071 -0.7071 0.7071 0.7071 205.3571 1484.3868)" class="st2" cx="1894.5" cy="494.3" rx="63.6" ry="49.7"/>
<path class="st11" d="M1908.4,460.7l-326.6-91.6l290.1,155.5c1.6,0.9,3.4,1.3,5.2,1.3c11.1,0,49.6-3.9,39.1-56.8  C1915.4,465.1,1912.4,461.8,1908.4,460.7z"/>
<path class="st2" d="M1524.2,848.2l-4.1-2.9c-0.6,0.9-1.4,1.5-2.2,1.9c-0.9,0.4-1.9,0.6-2.9,0.6c-0.8,0-1.7-0.1-2.5-0.4  c-1.2-0.4-2.2-1.1-2.7-1.8c-0.3-0.4-0.5-0.7-0.7-1.1c-0.1-0.4-0.2-0.8-0.2-1.4l0-0.2l0,0c1.8-35.1,6.5-92.7,18.5-159.4  c9-50,22.2-105.1,41.4-159.5c28.8-81.6,71.2-161.7,133.2-221.2c31-29.8,66.9-54.4,108.6-71.6c41.7-17.2,89.1-27,143.3-27  c49.8,0,93.7,7.8,132.3,21.6c67.5,24.2,119.2,66.9,159,119c29.8,39.1,52.8,83.6,70.6,129.4c26.6,68.8,41.4,140.7,49.4,202.2  c8.1,61.5,9.5,112.7,9.5,140.2v0h4.9l-4.9-0.2c0,0,0,0.1,0,0.2h4.9l-4.9-0.2c0,0,0,0.1,0,0.2c0,0.7-0.1,1.3-0.4,1.8  c-0.4,0.8-1.1,1.5-2.1,2.1c-1,0.6-2.3,0.9-3.5,0.9c-0.8,0-1.5-0.1-2.2-0.4c-0.7-0.2-1.4-0.6-2-1.1l-76.2-61.3  c-3.1-2.5-6.8-3.6-10.5-3.6c-2.2,0-4.4,0.4-6.5,1.3c-2.1,0.9-4,2.2-5.7,3.9l-64.7,70.2c-0.6,0.6-1.3,1.1-2.1,1.5  c-0.8,0.3-1.8,0.5-2.7,0.5c-1,0-2-0.2-2.9-0.6c-0.9-0.4-1.6-0.9-2.2-1.6l-46.6-57.5c-1.6-2-3.6-3.5-5.8-4.5c-2.2-1-4.6-1.5-7-1.5  c-3.1,0-6.2,0.8-9,2.6L2096,786c-1.1,0.7-2.4,1-3.7,1c-1.4,0-2.7-0.4-3.7-1c-0.5-0.3-0.9-0.7-1.3-1.1c-0.3-0.4-0.6-0.9-0.8-1.4  l-12.4-33.9c-0.6-1.7-1.5-3.2-2.6-4.4c-1.6-1.9-3.6-3.3-5.8-4.3c-2.2-0.9-4.5-1.4-6.8-1.4c-2.3,0-4.7,0.5-6.9,1.4  c-2.2,1-4.3,2.5-5.9,4.6l-73.8,92.5c-0.6,0.7-1.3,1.3-2.2,1.7c-0.9,0.4-1.9,0.6-2.9,0.6c-1.2,0-2.3-0.3-3.3-0.8  c-1-0.5-1.7-1.2-2.2-2l-74.5-128.3c-1.5-2.6-3.8-4.6-6.2-5.9c-2.5-1.3-5.2-1.9-7.9-1.9c-2.3,0-4.7,0.5-6.9,1.4  c-2.2,1-4.3,2.5-5.9,4.5l-38.1,46.8c-0.6,0.7-1.3,1.2-2.2,1.6c-0.9,0.4-1.9,0.6-2.9,0.6c-1,0-2-0.2-2.8-0.6  c-0.9-0.4-1.6-0.9-2.2-1.6l-27.8-33c-1.6-2-3.7-3.4-5.9-4.3c-2.2-0.9-4.5-1.4-6.8-1.4c-2.8,0-5.5,0.6-8,2c-2.5,1.3-4.7,3.3-6.2,6  L1694.3,836c-0.5,0.9-1.2,1.6-2.2,2.1c-0.9,0.5-2.1,0.8-3.3,0.8c-1.2,0-2.4-0.3-3.3-0.8c-1-0.5-1.7-1.2-2.2-2.1l-56.6-102.1  c-1.5-2.7-3.8-4.8-6.3-6.1c-2.5-1.3-5.3-2-8-2c-2.5,0-5,0.5-7.3,1.6c-2.3,1.1-4.5,2.8-6.1,5.1l-78.8,112.8L1524.2,848.2l4.1,2.9  l78.8-112.8c0.6-0.8,1.3-1.4,2.2-1.8c0.9-0.4,2-0.7,3.1-0.7c1.2,0,2.4,0.3,3.3,0.8c1,0.5,1.7,1.2,2.2,2.1l56.6,102.1  c1.5,2.7,3.8,4.8,6.3,6.1c2.5,1.3,5.3,1.9,8,1.9c2.7,0,5.5-0.6,8-1.9c2.5-1.3,4.7-3.3,6.3-6l63.2-112.6c0.5-0.9,1.2-1.6,2.2-2.1  c1-0.5,2.1-0.8,3.3-0.8c1,0,2,0.2,2.8,0.6c0.9,0.4,1.6,0.9,2.2,1.6l27.8,33c1.6,1.9,3.7,3.4,5.8,4.3c2.2,0.9,4.5,1.4,6.8,1.4  c2.4,0,4.7-0.5,6.9-1.4c2.2-1,4.3-2.5,5.9-4.5l38.1-46.8c0.6-0.7,1.3-1.2,2.2-1.6c0.9-0.4,1.9-0.6,2.9-0.6c1.2,0,2.3,0.3,3.3,0.8  c1,0.5,1.7,1.2,2.2,2l74.5,128.3c1.5,2.6,3.8,4.6,6.2,5.9c2.5,1.3,5.2,1.9,7.9,1.9c2.4,0,4.7-0.5,6.9-1.5c2.2-1,4.3-2.5,5.9-4.6  l73.8-92.5c0.6-0.7,1.3-1.3,2.2-1.7c0.9-0.4,1.8-0.6,2.9-0.6c1.4,0,2.7,0.4,3.7,1c0.5,0.3,0.9,0.7,1.3,1.1c0.3,0.4,0.6,0.9,0.8,1.4  l12.4,33.9c0.6,1.6,1.5,3.1,2.5,4.4c1.6,1.9,3.6,3.3,5.8,4.3c2.2,1,4.5,1.4,6.9,1.4c3,0,6.2-0.8,9-2.6l26.3-16.6  c1.1-0.7,2.4-1,3.7-1c1,0,2,0.2,2.9,0.6c0.9,0.4,1.6,0.9,2.1,1.6l46.6,57.5c1.6,2,3.7,3.5,5.9,4.5c2.2,1,4.6,1.4,6.9,1.4  c2.2,0,4.4-0.4,6.5-1.3c2.1-0.9,4.1-2.2,5.7-3.9l64.7-70.2c0.6-0.6,1.3-1.1,2.1-1.4c0.8-0.3,1.8-0.5,2.7-0.5c1.6,0,3.1,0.5,4.3,1.4  l76.2,61.3c1.6,1.3,3.3,2.2,5.1,2.8c1.8,0.6,3.6,0.9,5.4,0.9c4,0,7.8-1.3,10.9-3.9c1.5-1.3,2.8-2.8,3.7-4.7c0.9-1.9,1.5-4,1.5-6.2  h-4.9l4.9,0.2c0,0,0-0.1,0-0.2h-4.9l4.9,0.2c0,0,0-0.1,0-0.2v0c0-28.2-1.5-81-10-144.4c-6.4-47.6-16.7-101.1-33.3-154.8  c-25-80.4-64.3-161.1-126.3-221.9c-31-30.4-67.6-55.8-110.9-73.5c-43.2-17.8-93.1-27.9-150.3-27.9c-49.2,0-93.3,7.9-132.6,22.2  c-68.8,24.9-123,69-165.6,122.8c-31.9,40.4-57.4,86.2-77.7,133.7c-30.4,71.2-49.3,146.2-61,212.1c-11.7,65.9-16.3,122.7-18.1,157.5  l0,0c0,0.3,0,0.5,0,0.8c0,2.3,0.5,4.4,1.5,6.3c1.4,2.8,3.7,4.9,6.3,6.3c2.6,1.4,5.4,2.1,8.4,2.1c2.4,0,4.9-0.5,7.2-1.6  c2.3-1.1,4.5-2.8,6.1-5.2L1524.2,848.2z"/>
<path class="st2" d="M1886.8,442.7l-303.7-78.4c-2.4-0.6-4.9,0.6-5.9,3c-0.9,2.3,0,5,2.2,6.2l257.9,146c2.4,1.4,5.5,0.5,6.8-1.9  c1.4-2.4,0.5-5.5-1.9-6.8l-224.9-127.3l267,68.9c2.7,0.7,5.4-0.9,6.1-3.6C1891.1,446.1,1889.5,443.4,1886.8,442.7L1886.8,442.7z"/>
<path class="st2" d="M1921.8,515.7c-0.3-0.3-0.5-0.5-0.7-0.7c-0.4-0.4-0.8-0.6-1.2-0.9c-0.8-0.5-1.8-1.1-3-1.8  c-2.4-1.3-5.6-2.9-9.6-4.8c-15-7.2-41.4-19-72.5-32.7c-93.3-41-229.5-98.7-229.5-98.7c-2.5-1.1-5.5,0.1-6.6,2.7  c-1.1,2.5,0.1,5.5,2.7,6.6c0,0,1.2,0.5,3.5,1.5c16.9,7.2,93.1,39.5,165.8,71c36.4,15.7,71.9,31.3,98.7,43.3  c13.4,6,24.6,11.2,32.7,15c4,1.9,7.2,3.5,9.5,4.7c1.1,0.6,2,1.1,2.6,1.4c0.3,0.2,0.5,0.3,0.6,0.4l0,0l1.5-2l-1.9,1.6  c0.2,0.3,0.3,0.3,0.3,0.3l1.5-2l-1.9,1.6c1.8,2.1,5,2.3,7.1,0.4C1923.4,520.9,1923.6,517.7,1921.8,515.7L1921.8,515.7z"/>
<g>
	<polygon class="st11" points="1824.5,944.5 1632.4,1050.4 1668,905 1611.9,1013 1534.2,921.3 1585.9,1029.4 1488.8,1054.5    1589.1,1055.7 1647.9,1112.4 1644.1,1080.9 1827.7,970.8  "/>
	<polygon class="st11" points="2066.5,948.3 2249.9,1068.5 2259.8,908.3 2273.2,1032.7 2379.6,956.8 2297.8,1051.1 2400.7,1035.1    2292.7,1077 2258.9,1147.8 2235.9,1098 2061.3,974.2  "/>
	<path class="st2" d="M1824.5,944.5l-2.4-4.4L1640,1040.5l32.8-134.3c0.6-2.5-0.7-5-3.1-5.9c-2.4-0.9-5,0.1-6.2,2.4l-52.6,101.3   l-72.9-86c-1.6-1.9-4.4-2.3-6.5-1c-2.1,1.4-2.9,4.1-1.8,6.4l49.1,102.7l-91.2,23.6c-2.4,0.6-4,3-3.7,5.4s2.4,4.4,4.9,4.4l98.3,1.1   l57.4,55.3c1.5,1.5,3.8,1.8,5.7,0.9c1.9-0.9,3-3,2.7-5.1l-3.4-28.2l180.8-108.5c1.7-1,2.6-2.9,2.4-4.9l-3.2-26.2   c-0.2-1.6-1.2-3.1-2.7-3.8c-1.5-0.8-3.2-0.7-4.7,0.1L1824.5,944.5l-5,0.6l2.8,23l-180.8,108.5c-1.7,1-2.6,2.9-2.4,4.9l2.1,17.5   l-48.7-47c-0.9-0.9-2.1-1.4-3.4-1.4l-62.7-0.7l60.7-15.7c1.5-0.4,2.6-1.4,3.3-2.7c0.6-1.4,0.6-2.9,0-4.3l-35-73.2l52.7,62.2   c1.1,1.3,2.7,1.9,4.4,1.7c1.7-0.2,3.1-1.2,3.9-2.7l36.9-71l-25.7,105c-0.5,1.9,0.2,3.9,1.8,5.2c1.6,1.2,3.7,1.4,5.5,0.4   l192.1-105.8L1824.5,944.5l-5,0.6L1824.5,944.5z"/>
	<path class="st2" d="M2066.5,948.3l-2.7,4.2l183.4,120.2c1.5,1,3.4,1.1,5,0.3c1.6-0.8,2.6-2.4,2.8-4.2l6.3-101.3l7.1,65.7   c0.2,1.8,1.3,3.3,2.9,4c1.6,0.7,3.5,0.5,5-0.5l72.2-51.6l-54.2,62.6c-1.4,1.6-1.6,3.9-0.6,5.7c1,1.8,3.1,2.8,5.1,2.5l57.2-8.9   l-65,25.2c-1.2,0.5-2.2,1.4-2.7,2.5l-29.1,61.2l-18.6-40.2c-0.4-0.8-0.9-1.5-1.6-2l-172-121.9l4.5-22.7L2066.5,948.3l-2.7,4.2   L2066.5,948.3l-4.9-1l-5.2,25.9c-0.4,1.9,0.4,3.9,2,5.1l173.5,123l22.5,48.6c0.8,1.8,2.6,2.9,4.5,2.9s3.7-1.1,4.5-2.9l32.9-69   l106.2-41.2c2.4-0.9,3.7-3.5,3-6c-0.7-2.5-3.1-4-5.6-3.6l-89.4,13.9l72.8-84.1c1.7-1.9,1.6-4.8-0.1-6.6c-1.7-1.9-4.5-2.2-6.6-0.7   l-99.4,71l-12.4-115.9c-0.3-2.6-2.5-4.5-5.1-4.5s-4.7,2.1-4.9,4.7l-9.4,151.6l-176.2-115.5c-1.4-0.9-3.1-1.1-4.7-0.4   c-1.5,0.6-2.6,2-3,3.6L2066.5,948.3z"/>
</g>
</svg>