<svg xmlns="http://www.w3.org/2000/svg" width="19.998" height="17.895" viewBox="0 0 19.998 17.895">
  <g id="Iconly_Light_Hide" data-name="Iconly Light Hide" transform="translate(-598 -1029.094)">
    <g id="Hide-4">
      <path id="Stroke_1-98" data-name="Stroke 1-98" d="M605.761,1040.271a3.12,3.12,0,0,1-.925-2.229,3.16,3.16,0,0,1,5.394-2.241" fill="none" stroke="#2e1414" stroke-linecap="round" stroke-linejoin="round" stroke-width="1.5"/>
      <path id="Stroke_3-91" data-name="Stroke 3-91" d="M611.1,1038.6a3.158,3.158,0,0,1-2.537,2.542" fill="none" stroke="#2e1414" stroke-linecap="round" stroke-linejoin="round" stroke-width="1.5"/>
      <path id="Stroke_5-56" data-name="Stroke 5-56" d="M602.65,1043.376a13.442,13.442,0,0,1-3.9-5.338,13.588,13.588,0,0,1,3.934-5.362,8.257,8.257,0,0,1,10.652.019" fill="none" stroke="#2e1414" stroke-linecap="round" stroke-linejoin="round" stroke-width="1.5"/>
      <path id="Stroke_7-31" data-name="Stroke 7-31" d="M615.448,1034.9a15.379,15.379,0,0,1,1.8,3.146c-1.967,4.557-5.443,7.3-9.25,7.3a8,8,0,0,1-2.53-.411" fill="none" stroke="#2e1414" stroke-linecap="round" stroke-linejoin="round" stroke-width="1.5"/>
      <path id="Stroke_9-4" data-name="Stroke 9-4" d="M615.887,1030.154l-15.774,15.774" fill="none" stroke="#2e1414" stroke-linecap="round" stroke-linejoin="round" stroke-width="1.5"/>
    </g>
  </g>
</svg>
