<svg id="Groupe_458" data-name="Groupe 458" xmlns="http://www.w3.org/2000/svg" xmlns:xlink="http://www.w3.org/1999/xlink" width="25" height="25" viewBox="0 0 25 25">
  <defs>
    <clipPath id="clip-path">
      <rect id="Rectangle_615" data-name="Rectangle 615" width="25" height="25" fill="#d0d0d0"/>
    </clipPath>
  </defs>
  <g id="Groupe_453" data-name="Groupe 453" clip-path="url(#clip-path)">
    <path id="Tracé_302" data-name="Tracé 302" d="M.875,5.049h1.75V22.282a3.031,3.031,0,0,0,3.08,2.962H18.832a3.03,3.03,0,0,0,3.046-2.962V5.049h1.75a.842.842,0,1,0,0-1.683H17.5V1.683A1.715,1.715,0,0,0,15.8,0H8.751A1.718,1.718,0,0,0,7,1.683V3.366H.875a.842.842,0,1,0,0,1.683M8.751,1.683h7V3.366h-7ZM7,5.049H20.127V22.282a1.305,1.305,0,0,1-1.33,1.279H5.671a1.3,1.3,0,0,1-1.3-1.279V5.049Z" fill="#d0d0d0"/>
    <path id="Tracé_303" data-name="Tracé 303" d="M117.035,131.78a.859.859,0,0,0,.875-.841v-10.1a.876.876,0,0,0-1.75,0v10.1a.859.859,0,0,0,.875.841" transform="translate(-107.689 -111.586)" fill="#d0d0d0"/>
    <path id="Tracé_304" data-name="Tracé 304" d="M196.715,131.78a.859.859,0,0,0,.875-.841v-10.1a.876.876,0,0,0-1.75,0v10.1a.859.859,0,0,0,.875.841" transform="translate(-181.558 -111.586)" fill="#d0d0d0"/>
  </g>
</svg>
