<?xml version="1.0" encoding="utf-8"?>
<!-- Generator: Adobe Illustrator 26.1.0, SVG Export Plug-In . SVG Version: 6.00 Build 0)  -->
<svg version="1.1" id="Layer_1" xmlns="http://www.w3.org/2000/svg" xmlns:xlink="http://www.w3.org/1999/xlink" x="0px" y="0px"
	 viewBox="0 0 320.2 190.6" style="enable-background:new 0 0 320.2 190.6;" xml:space="preserve">
<style type="text/css">
	.Drop_x0020_Shadow{fill:none;}
	.Outer_x0020_Glow_x0020_5_x0020_pt{fill:none;}
	.Blue_x0020_Neon{fill:none;stroke:#8AACDA;stroke-width:7;stroke-linecap:round;stroke-linejoin:round;}
	.Chrome_x0020_Highlight{fill:url(#SVGID_1_);stroke:#FFFFFF;stroke-width:0.3629;stroke-miterlimit:1;}
	.Jive_GS{fill:#FFDD00;}
	.Alyssa_GS{fill:#A6D0E4;}
	.st0-icon-accessories{fill:#FFFFFF;}
	.st1-icon-accessories{fill:none;stroke:#262544;stroke-width:4;stroke-linecap:round;stroke-linejoin:round;stroke-miterlimit:10;}
	.st2-icon-accessories{fill:#D41C1B;}
	.st3-icon-accessories{opacity:0.2;fill:#D41C1B;}
	.st4-icon-accessories{fill:none;stroke:#FFFFFF;stroke-width:7;stroke-linecap:round;stroke-linejoin:round;stroke-miterlimit:10;}
</style>
<linearGradient id="SVGID_1_" gradientUnits="userSpaceOnUse" x1="-522.897" y1="-288.7115" x2="-522.897" y2="-289.7115">
	<stop  offset="0" style="stop-color:#656565"/>
	<stop  offset="0.618" style="stop-color:#1B1B1B"/>
	<stop  offset="0.6292" style="stop-color:#545454"/>
	<stop  offset="0.9831" style="stop-color:#3E3E3E"/>
</linearGradient>
<g>
	<g>
		<g>
			<path class="st0-icon-accessories" d="M81.6,151.5c0,0-6.6-22.6-7.9-37.1c-1.3-14.5-1-31,0.6-35.1s10.2-3.8,11,6.4c0,0-2.3-20.2,2.5-22.8
				c4.8-2.7,8.9,3.2,8.9,3.2s-0.1-11.7,4.5-11.4c4.6,0.3,9.3,4.8,8.8,8.8c0,0,1.5-2.6,4.9-1.6c3.4,1,6.2,3.9,6.3,7.8
				c0,3.8,0.3,39.9,0.3,39.9s-0.1,4.9,1.5,5.6c1.6,0.7,11.1-8.9,11.1-8.9s7-2.7,10,1.4c3,4.1,0.3,10.5-2.6,12.9
				c-2.9,2.5-19.8,19.3-19.8,19.3l0,11.3L81.6,151.5z"/>
			<path class="st0-icon-accessories" d="M75,115.8c0,0,15.9,2.7,18.6,13.3s2.5,22.1,2.5,22.1l-14.5,0.4l-7.1-22.2L75,115.8z"/>
			<path class="st0-icon-accessories" d="M121.9,168.9l-40.2,0.3c-1.9,0-3.4-1.5-3.4-3.4l-0.1-10.9c0-1.9,1.5-3.4,3.4-3.4l40.2-0.3
				c1.9,0,3.4,1.5,3.4,3.4l0.1,10.9C125.3,167.4,123.8,168.9,121.9,168.9z"/>
			<path class="st1-icon-accessories" d="M121.4,150.5l0.4-10.6l22-22c2.8-2.8,3-7.3,0.4-10.3l0,0c-2.8-3.3-7.7-3.6-10.9-0.7l-8.4,7.7
				c-1.3,1.2-3.3,0.3-3.3-1.4l-0.3-45.2c0-3.4-2.8-6.2-6.3-6.2h0c-3.5,0-6.3,2.9-6.2,6.3l0.4,30.1"/>
			<g>
				<path class="st1-icon-accessories" d="M102.7,55.2c-3.4,0-6.1,2.8-6.1,6.2l0.5,36.1"/>
				<path class="st1-icon-accessories" d="M109.2,105.2l-0.3-44c0-3.3-2.7-6-6.1-6h0"/>
			</g>
			<g>
				<path class="st1-icon-accessories" d="M90.6,63c-3.4,0-5.5,2.8-5.5,6.2l0.5,36.1"/>
				<path class="st1-icon-accessories" d="M96.7,69c0-3.3-2.7-6-6.1-6h0"/>
			</g>
			<g>
				<path class="st1-icon-accessories" d="M78.7,77c-3.4,0-5.5,2.8-5.5,6.2l0.5,36.1c0.1,3.9,1.1,9.7,2.6,13.7s5.7,18.5,5.7,18.5"/>
				<path class="st1-icon-accessories" d="M85.3,83c0-3.3-1.6-6-6.6-6h0"/>
			</g>
			<path class="st1-icon-accessories" d="M75,115.8c0,0,15.9,2.7,18.6,13.3s2.5,22.1,2.5,22.1"/>
			<path class="st1-icon-accessories" d="M85.8,159.4l29.1-0.6c1.6,0,2.9,1.2,3,2.8l0,1.8"/>
			<path class="st1-icon-accessories" d="M121.9,168.9l-40.2,0.3c-1.9,0-3.4-1.5-3.4-3.4l-0.1-10.9c0-1.9,1.5-3.4,3.4-3.4l40.2-0.3
				c1.9,0,3.4,1.5,3.4,3.4l0.1,10.9C125.3,167.4,123.8,168.9,121.9,168.9z"/>
		</g>
		<g>
			<path class="st0-icon-accessories" d="M64.6,152.8c0,0-13.8-19.1-19.8-32.3S33.5,91.6,33.6,87.2s8.3-7,12.5,2.4c0,0-8.9-18.3-5.3-22.4s9.5,0,9.5,0
				s-4-11,0.5-12.3s10.4,1.4,11.2,5.4c0,0,0.6-2.9,4.1-3.1c3.6-0.2,7.2,1.6,8.5,5.2C76,66.1,88.3,100,88.3,100s1.5,4.6,3.3,4.8
				c1.8,0.1,7.5-12.1,7.5-12.1s5.7-4.9,9.8-2s3.8,9.8,1.8,13.1c-1.9,3.3-12.2,24.8-12.2,24.8l3.7,10.6L64.6,152.8z"/>
			<path class="st2-icon-accessories" d="M46.4,121.4c0,0,15.9-2.7,21.9,6.3c6.1,9.1,9.7,20,9.7,20l-13.6,5.2l-14-18.5L46.4,121.4z"/>
			<path class="st0-icon-accessories" d="M108.4,155.8l-37.8,13.7c-1.8,0.6-3.7-0.3-4.4-2l-3.7-10.3c-0.6-1.8,0.3-3.7,2-4.4l37.8-13.7
				c1.8-0.6,3.7,0.3,4.4,2l3.7,10.3C111.1,153.2,110.2,155.2,108.4,155.8z"/>
			<path class="st1-icon-accessories" d="M101.7,138.6l-3.1-10.1l13.4-28.1c1.7-3.6,0.4-7.8-3-9.8l0,0c-3.7-2.1-8.5-0.8-10.5,3l-5.3,10.1
				c-0.8,1.5-3,1.4-3.6-0.3L74.2,61c-1.2-3.2-4.7-4.9-8-3.8l0,0c-3.3,1.2-5,4.8-3.7,8.1l10.4,28.3"/>
			<g>
				<path class="st1-icon-accessories" d="M52.4,55c-3.2,1.1-4.8,4.7-3.7,7.9l12.5,33.8"/>
				<path class="st1-icon-accessories" d="M75.1,100l-15-41.4c-1.1-3.1-4.6-4.8-7.8-3.7l0,0"/>
			</g>
			<g>
				<path class="st1-icon-accessories" d="M43.5,66.4c-3.2,1.1-4.3,4.4-3.1,7.6l12.5,33.8"/>
				<path class="st1-icon-accessories" d="M51.3,70c-1.1-3.1-4.6-4.8-7.8-3.7l0,0"/>
			</g>
			<g>
				<path class="st1-icon-accessories" d="M37,83.5c-3.2,1.1-4.3,4.4-3.1,7.6L46.4,125c1.4,3.7,4.2,8.8,7,12.1c2.7,3.3,11.6,15.5,11.6,15.5"/>
				<path class="st1-icon-accessories" d="M45.3,87.1c-1.1-3.1-3.5-5.4-8.2-3.6l0,0"/>
			</g>
			<path class="st1-icon-accessories" d="M46.4,121.4c0,0,15.9-2.7,21.9,6.3c6.1,9.1,9.7,20,9.7,20"/>
			<path class="st1-icon-accessories" d="M71.1,158.9l27.2-10.3c1.5-0.6,3.2,0.2,3.7,1.7l0.6,1.7"/>
			<path class="st1-icon-accessories" d="M108.4,155.8l-37.8,13.7c-1.8,0.6-3.7-0.3-4.4-2l-3.7-10.3c-0.6-1.8,0.3-3.7,2-4.4l37.8-13.7
				c1.8-0.6,3.7,0.3,4.4,2l3.7,10.3C111.1,153.2,110.2,155.2,108.4,155.8z"/>
		</g>
	</g>
	<g id="mDsuN4.tif">
		<path class="st0-icon-accessories" d="M134.6,81.5H265l7.6,81.1c0.2,2.1-1.3,3.9-3.3,4.2l-16.9,2.3c-34.2,4.7-68.9,4.7-103.1,0l-17.1-2.3
			c-2-0.3-3.5-2.1-3.3-4.1L134.6,81.5z"/>
		<path class="st3-icon-accessories" d="M134.6,81.5H265l7.6,81.1c0.2,2.1-1.3,3.9-3.3,4.2l-16.9,2.3c-34.2,4.7-68.9,4.7-103.1,0l-17.1-2.3
			c-2-0.3-3.5-2.1-3.3-4.1L134.6,81.5z"/>
		<path class="st2-icon-accessories" d="M134.6,81.5l16.3,31.3c3.7,6.5,10.5,10.5,18,10.5h61.3c7.3,0,14.1-3.9,17.8-10.2L265,81.5H134.6z"/>
		<path class="st1-icon-accessories" d="M134.6,81.5H265l7.6,81.1c0.2,2.1-1.3,3.9-3.3,4.2l-16.9,2.3c-34.2,4.7-68.9,4.7-103.1,0l-17.1-2.3
			c-2-0.3-3.5-2.1-3.3-4.1L134.6,81.5z"/>
		<path class="st1-icon-accessories" d="M134.6,81.5l16.3,31.3c3.7,6.5,10.5,10.5,18,10.5h61.3c7.3,0,14.1-3.9,17.8-10.2L265,81.5H134.6z"/>
		<g>
			<path class="st2-icon-accessories" d="M231.6,34.1c-10.6-16.2-30.8-16.2-30.8-16.2s-20.1,0-30.8,16.2c-10.6,16.2-23.9,47.4-23.9,47.4h10.9
				L174.4,46C177,40.6,181,36,186,32.9c3.8-2.4,8.8-4.3,14.8-4.3s11,1.9,14.8,4.3c5,3.1,8.9,7.7,11.6,13.1l17.5,35.6h10.9
				C255.5,81.5,242.2,50.3,231.6,34.1z"/>
			<path class="st0-icon-accessories" d="M175.4,27.8l4.9,9.7c0,0,11.4-8.1,20.5-9c9.7-0.9,19.5,9,19.5,9l5.9-11.5c0,0-17.7-8.5-25.4-8.5
				C188,17.5,175.4,27.8,175.4,27.8z"/>
			<path class="st3-icon-accessories" d="M175.4,27.8l4.9,9.7c0,0,11.4-8.1,20.5-9c9.7-0.9,19.5,9,19.5,9l5.9-11.5c0,0-17.7-8.5-25.4-8.5
				C188,17.5,175.4,27.8,175.4,27.8z"/>
			<path class="st1-icon-accessories" d="M231.6,34.1c-10.6-16.2-30.8-16.2-30.8-16.2s-20.1,0-30.8,16.2c-10.6,16.2-23.9,47.4-23.9,47.4h10.9
				L174.4,46C177,40.6,181,36,186,32.9c3.8-2.4,8.8-4.3,14.8-4.3s11,1.9,14.8,4.3c5,3.1,8.9,7.7,11.6,13.1l17.5,35.6h10.9
				C255.5,81.5,242.2,50.3,231.6,34.1z"/>
			<line class="st1-icon-accessories" x1="175.4" y1="27.8" x2="180.3" y2="37.5"/>
			<line class="st1-icon-accessories" x1="226.2" y1="27.8" x2="221.2" y2="37.5"/>
		</g>
		<path class="st0-icon-accessories" d="M200.8,149.4L200.8,149.4c-5,0-9-4-9-9v-36.6h18v36.6C209.8,145.3,205.8,149.4,200.8,149.4z"/>
		<path class="st1-icon-accessories" d="M200.8,149.4L200.8,149.4c-5,0-9-4-9-9v-36.6h18v36.6C209.8,145.3,205.8,149.4,200.8,149.4z"/>
		<line class="st4-icon-accessories" x1="157.4" y1="93" x2="179.5" y2="93"/>
	</g>
	<line class="st1-icon-accessories" x1="24.5" y1="173.1" x2="295.7" y2="173.1"/>
	<g id="WqxXlS.tif">
		<ellipse class="st2-icon-accessories" cx="104.6" cy="159" rx="9.3" ry="10.6"/>
		<ellipse class="st1-icon-accessories" cx="104.6" cy="159" rx="9.3" ry="10.6"/>
		<g>
			<path class="st2-icon-accessories" d="M174.9,162.3l-61.5-20c-2.6-0.9-4.1-3.7-3.2-6.3l3.8-11.7c0.9-2.6,3.7-4.1,6.3-3.2l61.5,20
				c2.6,0.9,4.1,3.7,3.2,6.3l-3.8,11.7C180.4,161.7,177.5,163.2,174.9,162.3z"/>
			<path class="st1-icon-accessories" d="M174.9,162.3l-61.5-20c-2.6-0.9-4.1-3.7-3.2-6.3l3.8-11.7c0.9-2.6,3.7-4.1,6.3-3.2l61.5,20
				c2.6,0.9,4.1,3.7,3.2,6.3l-3.8,11.7C180.4,161.7,177.5,163.2,174.9,162.3z"/>
		</g>
		<path class="st2-icon-accessories" d="M182.1,169.9h-69.5c-2.8,0-5-2.2-5-5v-12.3c0-2.8,2.2-5,5-5h69.5c2.8,0,5,2.2,5,5v12.3
			C187.1,167.7,184.8,169.9,182.1,169.9z"/>
		<path class="st1-icon-accessories" d="M182.1,169.9h-69.5c-2.8,0-5-2.2-5-5v-12.3c0-2.8,2.2-5,5-5h69.5c2.8,0,5,2.2,5,5v12.3
			C187.1,167.7,184.8,169.9,182.1,169.9z"/>
		<rect x="104.4" y="146.5" class="st0-icon-accessories" width="8" height="24.5"/>
		<g>
			<path class="st0-icon-accessories" d="M152.6,172.7H127c-1.7,0-3-1.4-3-3v-22.5c0-1.7,1.3-3,3-3h25.6c1.6,0,3,1.3,3,3v22.5
				C155.6,171.3,154.2,172.7,152.6,172.7z"/>
			<path class="st2-icon-accessories" d="M149.1,166.4h-18.6c-0.1,0-0.1,0-0.1-0.1v-15.8c0-0.1,0-0.1,0.1-0.1h18.6c0.1,0,0.1,0,0.1,0.1L149.1,166.4
				C149.2,166.4,149.1,166.4,149.1,166.4z"/>
			<path class="st1-icon-accessories" d="M152.6,172.7H127c-1.7,0-3-1.4-3-3v-22.5c0-1.7,1.3-3,3-3h25.6c1.6,0,3,1.3,3,3v22.5
				C155.6,171.3,154.2,172.7,152.6,172.7z"/>
			<path class="st1-icon-accessories" d="M149.1,166.4h-18.6c-0.1,0-0.1,0-0.1-0.1v-15.8c0-0.1,0-0.1,0.1-0.1h18.6c0.1,0,0.1,0,0.1,0.1L149.1,166.4
				C149.2,166.4,149.1,166.4,149.1,166.4z"/>
			<line class="st1-icon-accessories" x1="141.8" y1="158.9" x2="154.9" y2="158.9"/>
		</g>
		<rect x="104.4" y="146.5" class="st1-icon-accessories" width="8" height="24.5"/>
	</g>
	<g id="B5gbji.tif">
		<g>
			<path class="st2-icon-accessories" d="M212.7,163.2c-7.3-22.4,0-39.9,0-39.9s34.1-13,66.3,0.3c0,0,7.3,17.5,0,39.8c0,0-19.5,6.5-34.4,6.2
				C229.6,169.3,212.7,163.2,212.7,163.2z"/>
		</g>
		<path class="st4-icon-accessories" d="M216.6,125.4c0,0-7.3,15.7,0,35.7"/>
		<path class="st1-icon-accessories" d="M212.7,123.3c0,0,32.3-14,66.3,0.3"/>
		<path class="st1-icon-accessories" d="M279,163.5c0,0-32.3,14-66.3-0.3"/>
		<path class="st1-icon-accessories" d="M212.7,123.3c0,0-7.3,17.5,0,39.9"/>
		<path class="st1-icon-accessories" d="M279,123.6c0,0,7.3,17.5,0,39.8"/>
		<path class="st1-icon-accessories" d="M211,129.9c0,0,26.8-8.1,69.6,0"/>
		<path class="st1-icon-accessories" d="M280.6,157.7c0,0-26.8,8.1-69.6,0"/>
		<line class="st1-icon-accessories" x1="209.4" y1="144.2" x2="282.2" y2="144.2"/>
		<path class="st1-icon-accessories" d="M279.9,126.3c0,0,4.6-6.2,10.1-1.5c6,5.2-3.2,20.2-9.4,32.3"/>
		<path class="st1-icon-accessories" d="M211.8,126.3c0,0-4.6-6.2-10.1-1.5c-6,5.2,3.2,20.2,9.4,32.3"/>
	</g>
</g>
</svg>
