<svg id="Layer_1" data-name="Layer 1" xmlns="http://www.w3.org/2000/svg" viewBox="0 0 25.33 31.33">
	<defs>
		<style>.cls-white{fill:#fff;}.cls-red{fill:#d41c1b;}.cls-3{fill:#edeff2;}.cls-4{fill:#afc9e0;}.cls-5{fill:#8da8b5;}.cls-6{fill:#f9941d;}.cls-7{fill:#2e1414;}</style>
	</defs>

	<path class="cls-white" d="M25.26,20.68l-3.18,3.19L20,22.27,17.3,24.93l-2.65-2.12L12,24.93,9.34,22.27l-2.12,1.6L4,20.68,2.62,22.1a12.68,12.68,0,0,0,3.31,7.24,11.84,11.84,0,0,0,8.72,3.55,11.86,11.86,0,0,0,8.72-3.55,12.68,12.68,0,0,0,3.31-7.24Z" transform="translate(-2.33 -1.83)"/><path class="cls-white" d="M22.52,6.63,20.1,6.1l-1.21-.27-.2.27L17.3,8,14.65,6.36,12,8,10.61,6.1l-.21-.27L9.19,6.1l-2.41.53c.18-.23.36-.46.56-.68,2-2.34,4.57-3.84,7.31-3.84S19.92,3.61,22,6c.2.22.38.45.56.68Zm0,0" transform="translate(-2.33 -1.83)"/><path class="cls-red" d="M20.37,6l.21.25,1.94.43c-.18-.23-.36-.46-.56-.68-2-2.34-4.57-3.84-7.31-3.84-.27,0-.53,0-.8.05A10.27,10.27,0,0,1,20.37,6Zm0,0" transform="translate(-2.33 -1.83)"/><path class="cls-red" d="M26.68,22.1l-1.42-1.42-.8.8.63.62a13.08,13.08,0,0,1-2.68,6.52s-1.83,3.15-8.56,4C17,34.13,23.49,31.43,26,24.93,26.94,22.52,26.68,22.1,26.68,22.1Zm-1.42-1.42" transform="translate(-2.33 -1.83)"/><path class="cls-3" d="M24.73,18.56a11.25,11.25,0,0,1-.39,3.05l-2.26,2.26L20,22.27,17.3,24.93l-2.65-2.12L12,24.93,9.34,22.27l-2.12,1.6L5,21.61a11.25,11.25,0,0,1-.39-3.05c0-4.78,2.48-10.06,6-12.46L12,8l2.65-1.59L17.3,8,18.69,6.1c3.56,2.4,6,7.68,6,12.46Zm0,0" transform="translate(-2.33 -1.83)"/><path class="cls-4" d="M18.69,6.1l-.59.79a16.36,16.36,0,0,1,5,11.67,10.88,10.88,0,0,1-.4,3.05l-1.57,1.57.91.69,2.26-2.26a11.25,11.25,0,0,0,.39-3.05c0-4.78-2.48-10.06-6-12.46Zm0,0" transform="translate(-2.33 -1.83)"/><path class="cls-4" d="M8.26,23.09l-1,.78L5,21.61a11.25,11.25,0,0,1-.39-3.05,14.17,14.17,0,0,1,.15-2.06c1.39,0,2.88,2.29,3.39,5.33q.11.65.15,1.26Zm0,0" transform="translate(-2.33 -1.83)"/><path class="cls-4" d="M9.87,16.44" transform="translate(-2.33 -1.83)"/><path class="cls-4" d="M26.5,13.16c-.64,1.41-1.38,2.05-2.12,2.19A17.51,17.51,0,0,0,22.82,11c1-2,2.9-4,3.9-3.55s.73,3.56-.22,5.71Zm0,0" transform="translate(-2.33 -1.83)"/><path class="cls-5" d="M26.72,7.45a1.38,1.38,0,0,0-1.26.29c.64.94.28,3.54-.56,5.41a5.31,5.31,0,0,1-.75,1.28c.08.31.16.61.23.92.74-.14,1.48-.78,2.12-2.2.95-2.14,1.29-5.23.22-5.7Zm0,0" transform="translate(-2.33 -1.83)"/><path class="cls-6" d="M14.65,21.35c1.06-.53,1.59-5.44,1.59-5.44a7.35,7.35,0,0,0-1.59-1.06,7.35,7.35,0,0,0-1.59,1.06s.53,4.91,1.59,5.44Zm0,0" transform="translate(-2.33 -1.83)"/><path class="cls-7" d="M13.21,18.48a12.56,12.56,0,0,0,.51,1.88,2.14,2.14,0,0,0,.82,1.21l.11.06.11-.06a2.19,2.19,0,0,0,.82-1.21,23.56,23.56,0,0,0,.91-4.42v-.13l-.1-.09a8.25,8.25,0,0,0-1.64-1.1l-.11,0-.11,0a8.32,8.32,0,0,0-1.65,1.1l-.1.09,0,.13S12.94,17.17,13.21,18.48Zm1.44-3.34A7.3,7.3,0,0,1,16,16q0,.19-.09.63a25.64,25.64,0,0,1-.51,2.68A7.34,7.34,0,0,1,15,20.54a1.66,1.66,0,0,1-.31.49,2.4,2.4,0,0,1-.46-.84,15.67,15.67,0,0,1-.66-2.74c-.11-.65-.18-1.19-.21-1.43A7.3,7.3,0,0,1,14.65,15.14Zm2.65-.86a.49.49,0,0,0,.49-.49.57.57,0,0,1,.57-.57.56.56,0,0,1,.57.57.49.49,0,1,0,1,0,1.55,1.55,0,0,0-3.1,0A.49.49,0,0,0,17.3,14.28Zm9.45-1a11.11,11.11,0,0,0,.91-3.67c0-.75,0-2-.83-2.41a1,1,0,0,0-.43-.09c-1.13,0-2.52,1.59-3.37,3l-.22.35-.2-.36a14.18,14.18,0,0,0-2.52-3.19l-.66-.62,3,.67h.06a.28.28,0,0,0,.24-.13.29.29,0,0,0,0-.33q-.28-.37-.57-.69c-2.23-2.58-4.83-3.94-7.52-3.94S9.36,3.19,7.13,5.76l-.58.7a.29.29,0,0,0,0,.33.28.28,0,0,0,.23.13h.07l3-.67-.67.62a16.81,16.81,0,0,0-4.92,11.7,13.82,13.82,0,0,0,.09,1.58l0,.35-.35-.08H4a.32.32,0,0,0-.19.07L2.42,21.91a.26.26,0,0,0-.08.23c.92,6.7,5.76,11,12.31,11S26,28.84,27,22.14a.29.29,0,0,0-.08-.23l-1.42-1.42a.27.27,0,0,0-.19-.08h-.06l-.34.08,0-.35a11.87,11.87,0,0,0,.1-1.58,14.7,14.7,0,0,0-.27-2.81l0-.2.18-.07A4.07,4.07,0,0,0,26.75,13.27ZM7.47,6.19,8,5.6a9.4,9.4,0,0,1,6.61-3.2,9.42,9.42,0,0,1,6.61,3.2l.57.59L19,5.55h-.06a.27.27,0,0,0-.22.11L17.23,7.58,14.79,6.12a.23.23,0,0,0-.14,0,.28.28,0,0,0-.15,0L12.07,7.58,10.63,5.66a.28.28,0,0,0-.23-.11h-.06ZM5.07,16a15.35,15.35,0,0,1,5.28-9.38l.2-.15,1.22,1.63a.28.28,0,0,0,.23.11.23.23,0,0,0,.14,0l2.51-1.5,2.51,1.5a.23.23,0,0,0,.14,0,.3.3,0,0,0,.23-.11l1.22-1.63.2.15c3.24,2.46,5.5,7.36,5.5,11.92a11.33,11.33,0,0,1-.35,2.84l0,.06-2,2-1.93-1.44A.25.25,0,0,0,20,22a.28.28,0,0,0-.2.09l-2.47,2.47-2.45-2a.32.32,0,0,0-.18-.06.39.39,0,0,0-.18.06l-2.45,2L9.54,22.08a.25.25,0,0,0-.2-.09.27.27,0,0,0-.17.06l-.68.51-.06-.42v-.09a2.34,2.34,0,0,0,0-.26C7.91,19,6.65,16.74,5.24,16.3L5,16.24Zm-.14,1.11,0-.36.33.16c1.1.56,2.14,2.59,2.54,4.95,0,.34.09.64.12.94V23l-.71.53-2-2,0-.06a10.89,10.89,0,0,1-.35-2.84C4.85,18.13,4.88,17.66,4.93,17.13Zm20.33,3.95,1.12,1.12,0,.13a12.58,12.58,0,0,1-2.89,6.44h0l-.75.78h0a11.51,11.51,0,0,1-7.81,3H14.4a11.55,11.55,0,0,1-7.81-3h0l-.75-.78h0a12.68,12.68,0,0,1-2.9-6.44V22.2L4,21.08l3,3a.32.32,0,0,0,.2.08.27.27,0,0,0,.17-.06l1.93-1.44,2.48,2.48a.28.28,0,0,0,.2.08.27.27,0,0,0,.17-.06l2.48-2,2.47,2a.32.32,0,0,0,.18.06.28.28,0,0,0,.2-.08L20,22.65l1.93,1.44a.25.25,0,0,0,.17.06.32.32,0,0,0,.2-.08Zm-.66-6-.09-.36a17.47,17.47,0,0,0-1.32-3.58L23.14,11l.06-.12c.93-1.72,2.42-3.23,3.19-3.23a.46.46,0,0,1,.21,0c.8.36.61,3.15-.36,5.33a4,4,0,0,1-1.34,1.8Zm-13.67-.74a1.07,1.07,0,1,0-1.06-1.06A1.07,1.07,0,0,0,10.93,14.32Z" transform="translate(-2.33 -1.83)"/></svg>