<?xml version="1.0" encoding="utf-8"?>
<!-- Generator: Adobe Illustrator 26.1.0, SVG Export Plug-In . SVG Version: 6.00 Build 0)  -->
<svg version="1.1" id="Layer_1" xmlns="http://www.w3.org/2000/svg" xmlns:xlink="http://www.w3.org/1999/xlink" x="0px" y="0px"
	 viewBox="0 0 200 200" style="enable-background:new 0 0 200 200;" xml:space="preserve">
<style type="text/css">
	.Drop_x0020_Shadow{fill:none;}
	.Outer_x0020_Glow_x0020_5_x0020_pt{fill:none;}
	.Blue_x0020_Neon{fill:none;stroke:#8AACDA;stroke-width:7;stroke-linecap:round;stroke-linejoin:round;}
	.Chrome_x0020_Highlight{fill:url(#SVGID_1_);stroke:#FFFFFF;stroke-width:0.3629;stroke-miterlimit:1;}
	.Jive_GS{fill:#FFDD00;}
	.Alyssa_GS{fill:#A6D0E4;}
	.st0-badge-brain{fill:#FFFFFF;}
	.st1-badge-brain{opacity:0.2;}
	.st2-badge-brain{fill:#D41C1B;}
	.st3-badge-brain{clip-path:url(#Ellipse_29_00000116202527998238821240000014309535483700663957_);fill:#FFFFFF;}
</style>
<linearGradient id="SVGID_1_" gradientUnits="userSpaceOnUse" x1="0" y1="0" x2="6.123234e-17" y2="-1">
	<stop  offset="0" style="stop-color:#656565"/>
	<stop  offset="0.618" style="stop-color:#1B1B1B"/>
	<stop  offset="0.6292" style="stop-color:#545454"/>
	<stop  offset="0.9831" style="stop-color:#3E3E3E"/>
</linearGradient>
<g>
	<circle id="Ellipse_27" class="st0-badge-brain" cx="100" cy="100" r="100"/>
	<g id="Groupe_77" transform="translate(0.218 0.218)" class="st1-badge-brain">
		<circle id="Ellipse_27-2" class="st2-badge-brain" cx="99.8" cy="99.8" r="100"/>
	</g>
	<circle id="Ellipse_29" class="st2-badge-brain" cx="100" cy="100" r="83.3"/>
	<g>
		<defs>
			<circle id="SVGID_00000042726856236559779140000011895825278561152389_" cx="100" cy="100" r="83.3"/>
		</defs>
		<clipPath id="SVGID_00000020394755405251281390000005046298961591956147_">
			<use xlink:href="#SVGID_00000042726856236559779140000011895825278561152389_"  style="overflow:visible;"/>
		</clipPath>
	</g>
</g>
<g>
	<defs>
		<circle id="Ellipse_29_00000087414208047437207960000006190270856936994490_" cx="100" cy="100" r="83.3"/>
	</defs>
	<clipPath id="Ellipse_29_00000155142103048041127420000015950081344311893171_">
		<use xlink:href="#Ellipse_29_00000087414208047437207960000006190270856936994490_"  style="overflow:visible;"/>
	</clipPath>
	<path style="clip-path:url(#Ellipse_29_00000155142103048041127420000015950081344311893171_);fill:#FFFFFF;" d="M58.9,123.2
		c-0.5-0.5-1.1-0.7-1.8-0.2c-4.6,2.9-9.2,5.9-13.8,9c-0.8,0.5-1.3,1.3-1.3,2.3c0,1.6,1.6,2.8,3.1,2.3c0.7-0.2,1.1-0.7,1.8-1
		c4.4-2.8,8.7-5.7,12.9-8.5c0.8-0.5,1-1.1,0.3-2C59.7,124.3,59.4,123.7,58.9,123.2z M43.7,64c1.1,1.1,2.5,2,3.8,2.9
		c0.3,0.3,0.7,0.8,0.7,1.3c0,0.5-0.5,0.8-0.8,1.1c-0.5,0.5-1.3,0.8-1.6,1.3c-0.5,0.5-1,1.1-0.7,1.8c0.3,0.7,1.1,0.5,1.8,0.5
		c1.3,0,2.8-0.2,4.1-0.2c2.3,0,4.4,0,6.7,0.3c2.5,0.3,4.9,0.8,7.4,1.3c4.1,1,7.9,2.9,11.5,4.8c5.1,2.5,10,5.1,14.9,7.5
		c1.3,0.7,2.5,1.1,3.8,1.8c0,0,0,0,0-0.2c-0.2-0.2-0.3-0.3-0.5-0.5c-2-2.1-4.1-4.3-6.1-6.4c-2.6-2.8-5.2-5.4-7.9-8.2
		c-1.3-1.3-2.8-2.6-4.1-4.1c-3.1-3.6-7-6.2-11.6-7.7c-4.1-1.3-8.2-2-12.3-2.8c-2.3-0.5-4.8-1.1-7-2c-1.5-0.5-2.9-1.3-4.4-2
		c-0.5-0.3-1.1-0.5-1.5,0.2c-0.2,0.3-0.3,0.8-0.2,1.3C40.3,59.4,41.6,61.9,43.7,64z M107.9,104.8c1.1-1.6,2.1-3.4,2.9-5.2
		c1.3-2.3,2.6-4.6,4.4-6.6c3.6-3.9,7.9-6.9,12.8-8.8c2.8-1.1,5.4-2.6,7.9-4.6l12.8-8l-12.8,5.6c-1.6-0.3-3.3-0.7-4.9-0.5
		c-2.6,0.2-4.9,1.3-6.2,3.8c-1,1.8-2.1,3.1-3.9,4.1c-2.6,1.5-5.2,2.9-7.9,4.4c-2.9,1.6-6.1,3.3-9.3,4.4c-2,0.7-3.9,0.8-5.9,0
		c-2-0.8-4.1-1.6-5.9-2.6c-3.3-1.5-6.4-3.3-9.5-4.8c-3.8-2-7.7-3.8-11.5-5.7c-5.7-3.1-12-4.4-18.3-4.4c-1.8,0-3.6,0.2-5.4,0.2
		c-2.9,0-5.7,0.2-8.7,0.2c-3.3,0-6.6-0.5-9.8-1.5c-1.6-0.5-2.9,0.7-2.8,2.3c0.3,2.9,1.5,5.7,3.4,8c2.3,2.8,5.2,4.8,8.8,5.7
		c0.7,0.2,1.3,0.5,1.5,1.1c0.2,0.7-0.2,1.1-0.8,1.6c-1.8,1.5-2,3.4-0.2,4.9c0.7,0.7,1.5,1,2.5,1.3c2,0.7,3.9,0.5,6.1,0
		c1.1-0.2,2,0.7,1.6,1.8c-0.2,0.3-0.2,0.7-0.3,1c-0.2,1.1-0.2,2.3,0.8,3.1c1,1,2.3,1.5,3.6,1.3c2.8-0.2,5.6-0.5,8.5-0.8
		c2.1-0.2,4.4-0.3,6.6-0.5c1.6,0,3.1,0,4.8,0.2c1.5,0.2,2.8,0.5,3.9,1.3c0.3,0.3,0.7,0.8,0.8,1.3c0,0.5-0.3,1-0.8,1.3
		c-2.1,1-4.3,2-6.4,2.9c-2.9,1.3-5.9,2.8-8.8,4.1c-1.5,0.7-1.8,2.5-0.8,3.6c0.8,1,1.5,2,2.3,2.8c1,1.1,2.6,1,3.4-0.2
		c0.3-0.5,0.7-1.1,1.1-1.6c0.7-0.8,1.3-1.8,2.3-2.6c0.8-0.7,1.8-1,2.8-1.5c3.1-1.3,6.4-1.5,9.7-1.8c2.5-0.2,4.9-0.3,7.4-0.8
		c4.3-0.7,8.2-2.3,12.1-4.4C104.1,108.9,106.3,107.1,107.9,104.8z M164.4,62.7c-2.3-2.6-4.9-4.9-7.5-6.7c-3.6-2.5-7.5-4.4-11.6-5.6
		c-3.6-1.1-7-1.6-10.3-1.6h-4.1c-0.7,0-1.3,0-2.1,0.2c-5.4,0.7-10.3,2.3-14.7,4.8c-4.9,2.6-9,6.1-12.3,10.2
		c-3.9,4.9-6.7,10.5-8.2,16.5c-0.2,0.3,0,0.5,0.2,0.7c0.7,0.7,1.1,1.1,1.8,1.8l0.7,0.7c1.8,1.8,3.8,3.8,5.6,5.7
		c1.6-0.3,3.3-1.1,4.6-1.8c3.1-1.6,6.4-3.4,9.5-5.1l2.8-1.5c1.1-0.7,2-1.5,2.5-2.5c1.8-3.6,6.4-6.2,10.8-6.2c0.7,0,1.5,0,2.1,0.2
		l2.5,0.5L161,64l-21,17.5c-2.3,2.5-5.1,4.4-8.2,5.9c-0.8,0.3-1.5,0.7-2.3,1c-1.5,0.7-2.9,1.3-4.4,2.1c-3.6,1.8-6.4,4.3-8.4,7.2
		c-1.5,2.1-2.8,4.6-4.1,7c-2,3.8-4.6,6.6-7.7,8.5c-1,0.7-2.1,1.1-3.1,1.8l-0.5,0.3c0.5,0.7,1.1,1.3,1.6,2c2.9,2.9,5.7,5.4,8.7,7.2
		c0.8,0.5,1.6,1,2.5,1.5l0.7,0.3c0.8,0.3,1.5,0.7,2.1,1l0.7,0.3c0.8,0.3,1.8,0.7,2.6,1h0.2c4.3,1.5,8.7,2.1,13.3,2.1
		C167.5,130.9,187.1,93.8,164.4,62.7z"/>
</g>
<g>
	<path class="st0-badge-brain" d="M78.7,162.5C78.7,162.6,78.7,162.6,78.7,162.5l6.6,0c0.1,0,0.1,0,0.2,0.1c0.1,0.1,0.1,0.1,0.1,0.2v2.3
		c0,0.1,0,0.1-0.1,0.2c-0.1,0.1-0.1,0.1-0.2,0.1H74.5c-0.1,0-0.1,0-0.2-0.1c-0.1-0.1-0.1-0.1-0.1-0.2V163c0-0.1,0-0.3,0.1-0.4
		c0.8-0.8,1.6-1.6,2.4-2.5c0.8-0.9,1.3-1.5,1.5-1.7c0.4-0.5,0.9-1,1.4-1.5c1.5-1.6,2.2-2.8,2.2-3.6c0-0.6-0.2-1-0.6-1.4
		c-0.4-0.4-0.9-0.5-1.6-0.5c-0.6,0-1.2,0.2-1.6,0.5c-0.4,0.4-0.6,0.8-0.6,1.4v0.6c0,0.1,0,0.1-0.1,0.2c-0.1,0.1-0.1,0.1-0.2,0.1
		h-2.8c-0.1,0-0.1,0-0.2-0.1c-0.1-0.1-0.1-0.1-0.1-0.2v-1.1c0-0.9,0.3-1.6,0.8-2.3c0.5-0.7,1.2-1.2,2-1.5s1.7-0.5,2.8-0.5
		c1.1,0,2.1,0.2,3,0.6c0.8,0.4,1.5,1,1.9,1.7c0.5,0.7,0.7,1.5,0.7,2.4c0,0.7-0.2,1.4-0.5,2.1s-0.8,1.5-1.5,2.3
		c-0.5,0.6-1,1.2-1.6,1.8s-1.4,1.5-2.6,2.6L78.7,162.5C78.7,162.5,78.7,162.5,78.7,162.5z"/>
	<path class="st0-badge-brain" d="M89.2,164.3c-1-1-1.5-2.3-1.5-4v-6.3c0-1.7,0.5-3,1.5-4c1-1,2.4-1.5,4.2-1.5c1.8,0,3.2,0.5,4.2,1.5
		c1,1,1.5,2.3,1.5,4v6.3c0,1.7-0.5,3-1.5,4c-1,1-2.4,1.5-4.2,1.5C91.6,165.7,90.2,165.2,89.2,164.3z M95.1,162.2
		c0.4-0.4,0.6-1,0.6-1.8v-6.6c0-0.7-0.2-1.3-0.6-1.8c-0.4-0.4-1-0.7-1.7-0.7c-0.7,0-1.3,0.2-1.7,0.7c-0.4,0.4-0.6,1-0.6,1.8v6.6
		c0,0.7,0.2,1.3,0.6,1.8c0.4,0.4,1,0.7,1.7,0.7C94.1,162.8,94.7,162.6,95.1,162.2z"/>
	<path class="st0-badge-brain" d="M105.8,162.5C105.8,162.6,105.9,162.6,105.8,162.5l6.6,0c0.1,0,0.1,0,0.2,0.1c0.1,0.1,0.1,0.1,0.1,0.2v2.3
		c0,0.1,0,0.1-0.1,0.2c-0.1,0.1-0.1,0.1-0.2,0.1h-10.8c-0.1,0-0.1,0-0.2-0.1c-0.1-0.1-0.1-0.1-0.1-0.2V163c0-0.1,0-0.3,0.1-0.4
		c0.8-0.8,1.6-1.6,2.4-2.5c0.8-0.9,1.3-1.5,1.5-1.7c0.4-0.5,0.9-1,1.4-1.5c1.5-1.6,2.2-2.8,2.2-3.6c0-0.6-0.2-1-0.6-1.4
		c-0.4-0.4-0.9-0.5-1.6-0.5c-0.6,0-1.2,0.2-1.6,0.5c-0.4,0.4-0.6,0.8-0.6,1.4v0.6c0,0.1,0,0.1-0.1,0.2c-0.1,0.1-0.1,0.1-0.2,0.1
		h-2.8c-0.1,0-0.1,0-0.2-0.1c-0.1-0.1-0.1-0.1-0.1-0.2v-1.1c0-0.9,0.3-1.6,0.8-2.3c0.5-0.7,1.2-1.2,2-1.5c0.8-0.4,1.7-0.5,2.8-0.5
		c1.1,0,2.1,0.2,3,0.6c0.8,0.4,1.5,1,1.9,1.7c0.5,0.7,0.7,1.5,0.7,2.4c0,0.7-0.2,1.4-0.5,2.1s-0.8,1.5-1.5,2.3
		c-0.5,0.6-1,1.2-1.6,1.8c-0.6,0.6-1.4,1.5-2.6,2.6L105.8,162.5C105.8,162.5,105.8,162.5,105.8,162.5z"/>
	<path class="st0-badge-brain" d="M119.3,162.5C119.3,162.6,119.3,162.6,119.3,162.5l6.6,0c0.1,0,0.1,0,0.2,0.1c0.1,0.1,0.1,0.1,0.1,0.2v2.3
		c0,0.1,0,0.1-0.1,0.2c-0.1,0.1-0.1,0.1-0.2,0.1h-10.8c-0.1,0-0.1,0-0.2-0.1c-0.1-0.1-0.1-0.1-0.1-0.2V163c0-0.1,0-0.3,0.1-0.4
		c0.8-0.8,1.6-1.6,2.4-2.5c0.8-0.9,1.3-1.5,1.5-1.7c0.4-0.5,0.9-1,1.4-1.5c1.5-1.6,2.2-2.8,2.2-3.6c0-0.6-0.2-1-0.6-1.4
		c-0.4-0.4-0.9-0.5-1.6-0.5s-1.2,0.2-1.6,0.5c-0.4,0.4-0.6,0.8-0.6,1.4v0.6c0,0.1,0,0.1-0.1,0.2c-0.1,0.1-0.1,0.1-0.2,0.1H115
		c-0.1,0-0.1,0-0.2-0.1c-0.1-0.1-0.1-0.1-0.1-0.2v-1.1c0-0.9,0.3-1.6,0.8-2.3c0.5-0.7,1.2-1.2,2-1.5c0.8-0.4,1.7-0.5,2.8-0.5
		c1.1,0,2.1,0.2,3,0.6c0.8,0.4,1.5,1,1.9,1.7c0.5,0.7,0.7,1.5,0.7,2.4c0,0.7-0.2,1.4-0.5,2.1s-0.8,1.5-1.5,2.3
		c-0.5,0.6-1,1.2-1.6,1.8c-0.6,0.6-1.4,1.5-2.6,2.6L119.3,162.5C119.2,162.5,119.2,162.5,119.3,162.5z"/>
</g>
</svg>
