<?xml version="1.0" encoding="utf-8"?>
<!-- Generator: Adobe Illustrator 26.3.1, SVG Export Plug-In . SVG Version: 6.00 Build 0)  -->
<svg version="1.1" id="Layer_1" xmlns="http://www.w3.org/2000/svg" xmlns:xlink="http://www.w3.org/1999/xlink" x="0px" y="0px"
	 viewBox="0 0 25 25" style="enable-background:new 0 0 25 25;" xml:space="preserve">
<style type="text/css">
	.Drop_x0020_Shadow{fill:none;}
	.Outer_x0020_Glow_x0020_5_x0020_pt{fill:none;}
	.Blue_x0020_Neon{fill:none;stroke:#8AACDA;stroke-width:7;stroke-linecap:round;stroke-linejoin:round;}
	.Chrome_x0020_Highlight{fill:url(#SVGID_1_);stroke:#FFFFFF;stroke-width:0.3629;stroke-miterlimit:1;}
	.Jive_GS{fill:#FFDD00;}
	.Alyssa_GS{fill:#A6D0E4;}
	.st0{fill:#2E1414;}
	.st1{fill:#D41C1B;}
</style>
<linearGradient id="SVGID_1_" gradientUnits="userSpaceOnUse" x1="-670.5" y1="-371.5" x2="-670.5" y2="-372.5">
	<stop  offset="0" style="stop-color:#656565"/>
	<stop  offset="0.618" style="stop-color:#1B1B1B"/>
	<stop  offset="0.6292" style="stop-color:#545454"/>
	<stop  offset="0.9831" style="stop-color:#3E3E3E"/>
</linearGradient>
<path class="st0" d="M22.9,4.4L22.9,4.4c0-1.5-1.2-2.7-2.7-2.7l0,0H4.7l0,0c-1.4,0-2.6,1.2-2.7,2.6l0,0l0,0c0,0,0,0,0,0h0l0,0.1
	c0,1.3,0.9,2.4,2.1,2.6L9.7,14l0,8.5c0,0.3,0.1,0.5,0.4,0.6s0.5,0.1,0.7,0l1.6-0.9c0.4-0.2,0.5-0.7,0.3-1c-0.2-0.4-0.7-0.5-1-0.3
	l0,0l-0.5,0.3v-6.8c0.3-0.1,0.6-0.4,0.6-0.7c0-0.4-0.3-0.8-0.8-0.8h-0.2L6.2,7.2h12.6L14.1,13H13c-0.4,0-0.8,0.3-0.8,0.8
	c0,0.4,0.3,0.8,0.8,0.8h0.7v5.3L13.4,20c-0.4,0.2-0.5,0.7-0.3,1c0.2,0.4,0.7,0.5,1,0.3l0.7-0.4c0.2-0.1,0.4-0.4,0.4-0.7V14l5.4-6.8
	C22,6.9,22.9,5.8,22.9,4.4L22.9,4.4z M20.2,5.7L20.2,5.7H4.8c-0.7,0-1.2-0.6-1.2-1.2l0,0l0,0l0,0c0-0.6,0.5-1.2,1.2-1.2h15.4l0,0
	l0,0c0.7,0,1.2,0.5,1.2,1.2l0,0C21.4,5.1,20.9,5.7,20.2,5.7z"/>
<path class="st1" d="M14.2,11.5l2.1-2.6c0.3-0.3,0.2-0.8-0.1-1.1s-0.8-0.2-1.1,0.1l-2.1,2.6c-0.3,0.3-0.2,0.8,0.1,1.1
	S14,11.8,14.2,11.5z"/>
</svg>
