<?xml version="1.0" encoding="utf-8"?>
<!-- Generator: Adobe Illustrator 26.0.3, SVG Export Plug-In . SVG Version: 6.00 Build 0)  -->
<svg version="1.1" id="Layer_1" xmlns="http://www.w3.org/2000/svg" xmlns:xlink="http://www.w3.org/1999/xlink" x="0px" y="0px"
	 viewBox="0 0 30 35" style="enable-background:new 0 0 30 35;" xml:space="preserve">
<style type="text/css">
	.st0{fill:#AFC9E0;}
	.st1{fill:#8DA8B5;}
	.st2{fill:none;stroke:#2E1414;stroke-width:0.5;stroke-miterlimit:10;}
	.st3{fill:#EDEFF2;}
	.st4{fill:#F9941D;}
	.st5{fill:#2E1414;}
</style>
<g>
	<path class="st0" d="M24.8,24.3c-4.5,0-6.9-2-6.9-4.3s5.4-4.1,8.5-4.1c1.6,0,2.8,1.1,2.8,2.4c0,1.2-1,2.2-2.3,2.4
		c0.3,0.4,0.6,0.9,0.6,1.4C27.4,23.4,26.3,24.3,24.8,24.3L24.8,24.3z"/>
	<path class="st1" d="M23,16.5c-0.5,2.2-1,5.7,0.6,7.8c-3.7-0.3-5.7-2.2-5.7-4.2C17.9,18.5,20.4,17.1,23,16.5L23,16.5z"/>
	<path class="st2" d="M24.8,24.3c-4.5,0-6.9-2-6.9-4.3s5.4-4.1,8.5-4.1c1.6,0,2.8,1.1,2.8,2.4c0,1.2-1,2.2-2.3,2.4
		c0.3,0.4,0.6,0.9,0.6,1.4C27.4,23.4,26.3,24.3,24.8,24.3L24.8,24.3z"/>
	<path class="st0" d="M5.2,24.3c4.5,0,6.9-2,6.9-4.3s-5.4-4.1-8.5-4.1c-1.6,0-2.8,1.1-2.8,2.4c0,1.2,1,2.2,2.3,2.4
		c-0.3,0.4-0.6,0.9-0.6,1.4C2.6,23.4,3.7,24.3,5.2,24.3L5.2,24.3z"/>
	<path class="st1" d="M7,16.5c0.5,2.2,1,5.7-0.6,7.8c3.7-0.3,5.7-2.2,5.7-4.2C12.1,18.5,9.6,17.1,7,16.5L7,16.5z"/>
	<path class="st2" d="M5.2,24.3c4.5,0,6.9-2,6.9-4.3s-5.4-4.1-8.5-4.1c-1.6,0-2.8,1.1-2.8,2.4c0,1.2,1,2.2,2.3,2.4
		c-0.3,0.4-0.6,0.9-0.6,1.4C2.6,23.4,3.7,24.3,5.2,24.3L5.2,24.3z"/>
	<path class="st1" d="M16,26.5h-2L13.4,32c-0.1,0.7,0.4,1.2,1.1,1.2h1c0.7,0,1.2-0.6,1.1-1.2L16,26.5z"/>
	<path class="st0" d="M14,26.5h-2l-1.7,5.2c-0.2,0.7,0.3,1.5,1.1,1.5h1c0.6,0,1-0.4,1.1-1L14,26.5z"/>
	<path class="st0" d="M18,26.5h-2l0.6,5.7c0.1,0.6,0.5,1,1.1,1h1c0.8,0,1.3-0.7,1.1-1.5L18,26.5z"/>
	<path class="st2" d="M16,26.5h-2L13.4,32c-0.1,0.7,0.4,1.2,1.1,1.2h1c0.7,0,1.2-0.6,1.1-1.2L16,26.5z"/>
	<path class="st2" d="M14,26.5h-2l-1.7,5.2c-0.2,0.7,0.3,1.5,1.1,1.5h1c0.6,0,1-0.4,1.1-1L14,26.5z"/>
	<path class="st2" d="M18,26.5h-2l0.6,5.7c0.1,0.6,0.5,1,1.1,1h1c0.8,0,1.3-0.7,1.1-1.5L18,26.5z"/>
	<path class="st3" d="M21,21c0-4.1-2.7-6-6-6s-6,1.9-6,6s2.7,7.5,6,7.5S21,25.1,21,21L21,21z"/>
	<path class="st0" d="M15,21.9c2.3,0,4.4-0.5,6-1.5c-0.2-3.7-2.8-5.4-6-5.4s-5.8,1.7-6,5.4C10.6,21.4,12.7,21.9,15,21.9L15,21.9z"/>
	<path class="st2" d="M21,21c0-4.1-2.7-6-6-6s-6,1.9-6,6s2.7,7.5,6,7.5S21,25.1,21,21L21,21z"/>
	<path class="st4" d="M18.2,29.3c-0.1-0.6-0.5-2-0.8-2.7c-0.2-0.5,0-1.1,0.5-1.3c0.5-0.2,1.1,0,1.3,0.5c0.4,0.9,0.8,2.4,1,3.2
		c0.1,0.5-0.3,1.1-0.8,1.2C18.9,30.2,18.3,29.9,18.2,29.3L18.2,29.3z"/>
	<path class="st4" d="M11.8,29.3c0.1-0.6,0.5-2,0.8-2.7c0.2-0.5,0-1.1-0.5-1.3c-0.5-0.2-1.1,0-1.3,0.5c-0.4,0.9-0.8,2.4-1,3.2
		c-0.1,0.5,0.3,1.1,0.8,1.2C11.1,30.2,11.7,29.9,11.8,29.3L11.8,29.3z"/>
	<path class="st2" d="M18.2,29.3c-0.1-0.6-0.5-2-0.8-2.7c-0.2-0.5,0-1.1,0.5-1.3c0.5-0.2,1.1,0,1.3,0.5c0.4,0.9,0.8,2.4,1,3.2
		c0.1,0.5-0.3,1.1-0.8,1.2C18.9,30.2,18.3,29.9,18.2,29.3L18.2,29.3z"/>
	<path class="st2" d="M11.8,29.3c0.1-0.6,0.5-2,0.8-2.7c0.2-0.5,0-1.1-0.5-1.3c-0.5-0.2-1.1,0-1.3,0.5c-0.4,0.9-0.8,2.4-1,3.2
		c-0.1,0.5,0.3,1.1,0.8,1.2C11.1,30.2,11.7,29.9,11.8,29.3L11.8,29.3z"/>
	<path class="st3" d="M22.9,13.8c0,4.4-3.5,6.4-7.9,6.4s-7.9-2-7.9-6.4s3.5-7.9,7.9-7.9S22.9,9.4,22.9,13.8L22.9,13.8z"/>
	<path class="st0" d="M16.9,20C9.8,18.9,9.2,9.9,11.3,6.8c-2.5,1.3-4.2,4-4.2,7c0,4.4,3.5,6.4,7.9,6.4C15.6,20.2,16.3,20.1,16.9,20
		L16.9,20z"/>
	<path class="st5" d="M11.9,12.6c-0.2,0-0.4-0.2-0.4-0.4c0-0.3-0.2-0.5-0.5-0.5s-0.5,0.2-0.5,0.5c0,0.2-0.2,0.4-0.4,0.4
		s-0.4-0.2-0.4-0.4c0-0.7,0.6-1.3,1.3-1.3s1.3,0.6,1.3,1.3C12.3,12.4,12.1,12.6,11.9,12.6L11.9,12.6z"/>
	<path class="st5" d="M19.9,12.6c-0.2,0-0.4-0.2-0.4-0.4c0-0.3-0.2-0.5-0.5-0.5s-0.5,0.2-0.5,0.5c0,0.2-0.2,0.4-0.4,0.4
		c-0.2,0-0.4-0.2-0.4-0.4c0-0.7,0.6-1.3,1.3-1.3c0.7,0,1.3,0.6,1.3,1.3C20.3,12.4,20.1,12.6,19.9,12.6L19.9,12.6z"/>
	<path class="st4" d="M16.5,13.5c0-0.8-1.5-1.5-1.5-1.5s-1.5,0.7-1.5,1.6l1.3,4.1c0.1,0.2,0.3,0.2,0.3,0L16.5,13.5z"/>
	<path class="st2" d="M16.5,13.5c0-0.8-1.5-1.5-1.5-1.5s-1.5,0.7-1.5,1.6l1.3,4.1c0.1,0.2,0.3,0.2,0.3,0L16.5,13.5z"/>
	<path class="st5" d="M14.9,1.9c-0.4,0.3-2.3,2,0,5.4c0,0.1,0.1,0.1,0.2,0c2.3-3.4,0.4-5.1,0-5.4C15,1.8,15,1.8,14.9,1.9z"/>
	<path class="st2" d="M22.9,13.8c0,4.4-3.5,6.4-7.9,6.4s-7.9-2-7.9-6.4s3.5-7.9,7.9-7.9S22.9,9.4,22.9,13.8L22.9,13.8z"/>
</g>
<path class="st5" d="M5.4,19.9c0,0-0.6,0-1.3,0.2c-0.3,0.1-0.7,0.2-1,0.4c0,0-0.1,0-0.1,0.1v0.7c0.1-0.1,0.2-0.3,0.3-0.4
	c0.7-0.5,2-0.5,2-0.5c0.1,0,0.3-0.1,0.3-0.2C5.7,20,5.5,19.9,5.4,19.9z"/>
<path class="st5" d="M26.9,20.5L26.9,20.5c0,0,0-0.1-0.1-0.1c-0.9-0.6-2.2-0.6-2.3-0.6s-0.2,0.1-0.2,0.3c0,0.2,0.2,0.2,0.3,0.2
	c0,0,0.6,0,1.2,0.2c0.3,0.1,0.6,0.2,0.8,0.3c0.1,0.1,0.2,0.2,0.3,0.3V20.5z"/>
</svg>
