<svg id="Groupe_507" data-name="Groupe 507" xmlns="http://www.w3.org/2000/svg" xmlns:xlink="http://www.w3.org/1999/xlink" width="30.849" height="38.561" viewBox="0 0 30.849 38.561">
  <defs>
    <clipPath id="clip-path">
      <rect id="Rectangle_667" data-name="Rectangle 667" width="30.849" height="38.561" fill="none"/>
    </clipPath>
  </defs>
  <g id="Groupe_510" data-name="Groupe 510">
    <g id="Groupe_509" data-name="Groupe 509" clip-path="url(#clip-path)">
      <path id="Tracé_317" data-name="Tracé 317" d="M33.454,230.4l-3.769,3.769-2.512-1.884-3.14,3.14-3.14-2.512-3.14,2.512-3.14-3.14L12.1,234.167,8.331,230.4l-1.683,1.683a15.073,15.073,0,0,0,3.925,8.567,14.007,14.007,0,0,0,10.319,4.2,14.007,14.007,0,0,0,10.319-4.2,15.075,15.075,0,0,0,3.925-8.567Z" transform="translate(-6.019 -207.176)" fill="#fff"/>
      <path id="Tracé_318" data-name="Tracé 318" d="M75.465,11.749,72.6,11.115l-1.432-.321-.239.321-1.645,2.192-3.14-1.884L63,13.307l-1.646-2.192-.238-.321-1.432.321-2.864.634c.214-.276.433-.547.666-.81C59.9,8.163,62.9,6.4,66.144,6.4s6.243,1.765,8.655,4.541c.232.264.452.534.666.81" transform="translate(-51.271 -5.158)" fill="#fff"/>
      <path id="Tracé_319" data-name="Tracé 319" d="M149.912,10.939c.086.1.164.2.247.3l2.3.51c-.213-.276-.434-.547-.666-.81-2.412-2.776-5.408-4.541-8.655-4.541a9.106,9.106,0,0,0-.942.055,12.154,12.154,0,0,1,7.713,4.486" transform="translate(-128.267 -5.158)" fill="#d41c1b"/>
      <path id="Tracé_320" data-name="Tracé 320" d="M157.386,232.081,155.7,230.4l-.942.942.741.741a15.438,15.438,0,0,1-3.177,7.716s-2.161,3.721-10.125,4.7c3.719,1.828,11.413-1.371,14.419-9.072,1.076-2.852.768-3.342.768-3.342" transform="translate(-128.267 -207.176)" fill="#d41c1b"/>
      <path id="Tracé_321" data-name="Tracé 321" d="M54.059,69.218a13.155,13.155,0,0,1-.465,3.6L50.918,75.5l-2.512-1.884-3.14,3.14-3.14-2.512-3.14,2.512-3.14-3.14L33.333,75.5l-2.675-2.676a13.141,13.141,0,0,1-.465-3.6c0-5.659,2.939-11.908,7.147-14.753l1.646,2.192,3.14-1.884,3.14,1.884,1.645-2.192c4.208,2.845,7.147,9.094,7.147,14.753" transform="translate(-27.252 -48.508)" fill="#edeff2"/>
      <path id="Tracé_322" data-name="Tracé 322" d="M194.144,54.465l-.7.931a19.386,19.386,0,0,1,5.962,13.822,13.16,13.16,0,0,1-.465,3.6l-1.868,1.868,1.076.808,2.676-2.676a13.154,13.154,0,0,0,.465-3.6c0-5.659-2.939-11.908-7.147-14.753" transform="translate(-174.484 -48.508)" fill="#afc9e0"/>
      <path id="Tracé_323" data-name="Tracé 323" d="M34.558,187.769l-1.225.917-2.675-2.676a13.141,13.141,0,0,1-.465-3.6,16.884,16.884,0,0,1,.176-2.437c1.646-.019,3.41,2.713,4.013,6.312.082.509.144,1,.176,1.489" transform="translate(-27.252 -161.695)" fill="#afc9e0"/>
      <path id="Tracé_324" data-name="Tracé 324" d="M94.2,179.2" transform="translate(-84.978 -161.002)" fill="#afc9e0"/>
      <path id="Tracé_325" data-name="Tracé 325" d="M254.772,76.777c-.747,1.671-1.626,2.436-2.506,2.594a20.812,20.812,0,0,0-1.84-5.15c1.206-2.374,3.429-4.735,4.61-4.2,1.269.565.867,4.221-.264,6.758" transform="translate(-225.874 -62.467)" fill="#afc9e0"/>
      <path id="Tracé_326" data-name="Tracé 326" d="M269.476,70.213a1.606,1.606,0,0,0-1.484.351c.754,1.114.325,4.188-.664,6.406a6.979,6.979,0,0,1-.89,1.515c.1.358.188.717.269,1.079.879-.157,1.759-.923,2.506-2.594,1.13-2.536,1.533-6.191.264-6.757" transform="translate(-240.314 -62.661)" fill="#8da8b5"/>
      <path id="Tracé_327" data-name="Tracé 327" d="M96.711,129.256A1.256,1.256,0,1,1,95.455,128a1.256,1.256,0,0,1,1.256,1.256" transform="translate(-84.978 -114.827)" fill="#2e1414"/>
      <path id="Tracé_333" data-name="Tracé 333" d="M96.711,129.256A1.256,1.256,0,1,1,95.455,128a1.256,1.256,0,0,1,1.256,1.256" transform="translate(-75.978 -114.827)" fill="#2e1414"/>
      <path id="Tracé_328" data-name="Tracé 328" d="M134.486,167.693c1.256-.628,1.884-6.437,1.884-6.437A9.035,9.035,0,0,0,134.486,160a9.025,9.025,0,0,0-1.884,1.256s.628,5.809,1.884,6.437" transform="translate(-119.612 -143.687)" fill="#f9941d"/>
    </g>
  </g>
  <g id="Groupe_512" data-name="Groupe 512">
    <g id="Groupe_511" data-name="Groupe 511" clip-path="url(#clip-path)">
      <path id="Tracé_330" data-name="Tracé 330" d="M29.718,13.953c1.149-2.58,1.791-6.766-.052-7.585-1.525-.691-3.573,1.409-4.872,3.505a17.063,17.063,0,0,0-3.035-3.844l2.545.565a.628.628,0,0,0,.632-1c-.222-.287-.45-.565-.691-.837C21.544,1.645,18.388,0,15.119,0S8.694,1.645,5.993,4.754c-.242.274-.47.554-.691.841a.628.628,0,0,0,.632,1l2.545-.565A20.164,20.164,0,0,0,2.558,20.1,15.4,15.4,0,0,0,2.674,22a.618.618,0,0,0-.56.161L.431,23.849a.628.628,0,0,0-.179.529c1.119,8.083,6.953,13.3,14.867,13.3s13.748-5.222,14.867-13.3a.627.627,0,0,0-.178-.529l-1.683-1.683a.617.617,0,0,0-.56-.161A15.457,15.457,0,0,0,27.68,20.1a18.581,18.581,0,0,0-.321-3.383,5.06,5.06,0,0,0,2.358-2.761m-14.6-12.7a10.774,10.774,0,0,1,7.611,3.7L20.28,4.411a.629.629,0,0,0-.639.236L18.1,6.707,15.443,5.114a.63.63,0,0,0-.647,0L12.141,6.707,10.6,4.648a.629.629,0,0,0-.639-.236l-2.449.546a10.769,10.769,0,0,1,7.611-3.7M10.206,6.218l1.27,1.7a.628.628,0,0,0,.826.161l2.817-1.69,2.817,1.69a.628.628,0,0,0,.826-.161l1.27-1.7c3.73,2.836,6.392,8.552,6.392,13.88a12.659,12.659,0,0,1-.405,3.285l-2.166,2.166-2.076-1.558a.629.629,0,0,0-.821.058l-2.742,2.743-2.7-2.161a.628.628,0,0,0-.785,0l-2.7,2.161L9.283,24.05a.628.628,0,0,0-.822-.058l-.407.305c-.02-.142-.036-.276-.063-.428C7.4,20.362,5.831,17.7,4.075,17.142c.756-4.377,3.086-8.609,6.131-10.924M4.219,23.383a12.675,12.675,0,0,1-.4-3.285c0-.552.036-1.107.092-1.664,1.084.549,2.352,2.671,2.849,5.638.063.4.107.76.138,1.1l-.508.381ZM4.905,32a14.653,14.653,0,0,1-3.363-7.484L2.558,23.5l3.324,3.324a.628.628,0,0,0,.821.059l2.077-1.558,2.755,2.755a.628.628,0,0,0,.837.046l2.748-2.2,2.748,2.2a.628.628,0,0,0,.836-.047l2.755-2.755,2.076,1.558a.628.628,0,0,0,.821-.059L27.68,23.5,28.7,24.514A14.659,14.659,0,0,1,25.333,32l-.878.913a13.388,13.388,0,0,1-9.336,3.517A13.387,13.387,0,0,1,5.783,32.91m21.3-17.46A21.383,21.383,0,0,0,25.5,11.162c1.261-2.336,3.1-3.894,3.654-3.65.646.288.6,3.266-.582,5.927a4.477,4.477,0,0,1-1.489,2.011" transform="translate(-0.245 0.612)" fill="#2e1414"/>
    </g>
  </g>
  <g id="Groupe_514" data-name="Groupe 514">
    <g id="Groupe_513" data-name="Groupe 513" clip-path="url(#clip-path)">
      <path id="Tracé_331" data-name="Tracé 331" d="M107,134.4" transform="translate(-96.523 -120.597)" fill="#2e1414"/>
      <path id="Tracé_332" data-name="Tracé 332" d="M128.419,162.512a.629.629,0,0,0,.562,0c1.472-.736,2.17-6.714,2.2-6.8a.628.628,0,0,0-.152-.642,9.542,9.542,0,0,0-2.047-1.374.626.626,0,0,0-.562,0,9.545,9.545,0,0,0-2.047,1.374.628.628,0,0,0-.152.642c.032.084.729,6.062,2.2,6.8m.281-7.549a9.225,9.225,0,0,1,1.137.728c-.252.61-.641,5.08-1.137,5.515-.495-.437-.884-4.906-1.137-5.516a9.464,9.464,0,0,1,1.137-.727" transform="translate(-113.826 -137.94)" fill="#2e1414"/>
    </g>
  </g>
</svg>
