<svg xmlns="http://www.w3.org/2000/svg" xmlns:xlink="http://www.w3.org/1999/xlink" width="25" height="25" viewBox="0 0 25 25">
  <defs>
    <clipPath id="clip-path">
      <rect id="Rectangle_733" data-name="Rectangle 733" width="25" height="25" fill="#2e1414"/>
    </clipPath>
  </defs>
  <g id="Groupe_604" data-name="Groupe 604" transform="translate(-0.5 -0.5)">
    <g id="Groupe_603" data-name="Groupe 603" transform="translate(0.5 0.5)" clip-path="url(#clip-path)">
      <path id="Tracé_371" data-name="Tracé 371" d="M22.8,5.859H19.822A3.66,3.66,0,0,0,16.895,0a3.287,3.287,0,0,0-2.823,1.371A14.219,14.219,0,0,0,12.5,4.628a14.218,14.218,0,0,0-1.572-3.257A3.287,3.287,0,0,0,8.105,0,3.66,3.66,0,0,0,5.178,5.859H2.2A2.2,2.2,0,0,0,0,8.057V9.521a2.2,2.2,0,0,0,1.465,2.071V22.8a2.2,2.2,0,0,0,2.2,2.2H21.338a2.2,2.2,0,0,0,2.2-2.2V11.593A2.2,2.2,0,0,0,25,9.521V8.057a2.2,2.2,0,0,0-2.2-2.2M16.895,1.465a2.2,2.2,0,0,1,0,4.395H13.588c.09-.225.175-.442.256-.647,1.122-2.847,1.549-3.747,3.05-3.747m-2.93,22.07h-2.93V7.324h2.93ZM5.908,3.662a2.2,2.2,0,0,1,2.2-2.2c1.5,0,1.928.9,3.05,3.747.081.205.166.422.256.647H8.105a2.2,2.2,0,0,1-2.2-2.2M1.465,8.057A.733.733,0,0,1,2.2,7.324H9.57v2.93H2.2a.733.733,0,0,1-.732-.732ZM2.93,22.8V11.719H9.57V23.535H3.662A.733.733,0,0,1,2.93,22.8m18.408.732H15.43V11.719H22.07V22.8a.733.733,0,0,1-.732.732m2.2-14.014a.733.733,0,0,1-.732.732H15.43V7.324H22.8a.733.733,0,0,1,.732.732Z" transform="translate(-0.291 -0.291)" fill="#2e1414"/>
    </g>
  </g>
</svg>
