<?xml version="1.0" encoding="utf-8"?>
<!-- Generator: Adobe Illustrator 26.1.0, SVG Export Plug-In . SVG Version: 6.00 Build 0)  -->
<svg version="1.1" id="Layer_1" xmlns="http://www.w3.org/2000/svg" xmlns:xlink="http://www.w3.org/1999/xlink" x="0px" y="0px"
	 viewBox="0 0 200 200" style="enable-background:new 0 0 200 200;" xml:space="preserve">
<style type="text/css">
	.Drop_x0020_Shadow{fill:none;}
	.Outer_x0020_Glow_x0020_5_x0020_pt{fill:none;}
	.Blue_x0020_Neon{fill:none;stroke:#8AACDA;stroke-width:7;stroke-linecap:round;stroke-linejoin:round;}
	.Chrome_x0020_Highlight{fill:url(#SVGID_1_);stroke:#FFFFFF;stroke-width:0.3629;stroke-miterlimit:1;}
	.Jive_GS{fill:#FFDD00;}
	.Alyssa_GS{fill:#A6D0E4;}
	.st0-badge-topuser{fill:#D41C1B;}
	.st1-badge-topuser{opacity:0.7;fill:#FFFFFF;}
	.st2-badge-topuser{opacity:0.2;fill:#D41C1B;}
	.st3-badge-topuser{opacity:0.2;fill:#FFFFFF;}
	.st4-badge-topuser{clip-path:url(#SVGID_00000047040059959829900340000007936559339137229452_);}
	.st5-badge-topuser{fill:#FFFFFF;}
</style>
<linearGradient id="SVGID_1_" gradientUnits="userSpaceOnUse" x1="0" y1="0" x2="6.123234e-17" y2="-1">
	<stop  offset="0" style="stop-color:#656565"/>
	<stop  offset="0.618" style="stop-color:#1B1B1B"/>
	<stop  offset="0.6292" style="stop-color:#545454"/>
	<stop  offset="0.9831" style="stop-color:#3E3E3E"/>
</linearGradient>
<path class="st0-badge-topuser" d="M183,174.6l13.2-11c0.4-0.4,0.6-1,0.4-1.5c-0.2-0.5-0.7-0.9-1.3-0.9c-7.8-0.3-15.6-1.1-23.3-2.3
	c-1.8,1.5-3.9,2.7-6.3,3.3c-4.9,1.3-8.8,4.9-10.5,9.6c-2.4,6.7-9.1,10.8-16.1,10c-1.2-0.1-2.4-0.1-3.5,0c16.7,7.8,34.5,13,52.8,15.5
	c0.5,0.1,1-0.1,1.3-0.5c0.3-0.4,0.4-0.9,0.2-1.4l-5.3-14.2l-1.9-5.1c-0.1-0.3-0.1-0.7,0.1-1.1C182.7,174.9,182.9,174.8,183,174.6z"
	/>
<path class="st0-badge-topuser" d="M60.9,181.9c-7.1,0.8-13.7-3.3-16.1-10c-1.7-4.7-5.7-8.3-10.5-9.6c-2.5-0.6-4.6-1.8-6.4-3.5
	c-8,1.3-16,2.1-24.1,2.4c-0.6,0-1.1,0.4-1.3,0.9c-0.2,0.5,0,1.1,0.4,1.5l13.2,11c0.2,0.1,0.3,0.3,0.4,0.5c0.2,0.3,0.2,0.7,0.1,1.1
	l-1.9,5.1l-5.3,14.2c-0.2,0.5-0.1,1,0.2,1.4c0.3,0.4,0.8,0.6,1.3,0.5c18.4-2.5,36.2-7.8,53-15.6C62.8,181.7,61.8,181.7,60.9,181.9z"
	/>
<path class="st1-badge-topuser" d="M173.7,173.5c0,0.6,0.3,1.1,0.8,1.4c2.8,1.7,5.8,2.9,9,3.6l-0.9-2.3c-0.1-0.3-0.1-0.7,0.1-1.1c0,0,0,0,0-0.1
	c-2.3-0.7-4.5-1.7-6.6-2.9c-0.5-0.3-1.1-0.3-1.6,0C174,172.5,173.7,173,173.7,173.5z"/>
<path class="st1-badge-topuser" d="M24.6,172.2c-0.5-0.3-1.1-0.3-1.6,0c-2.1,1.2-4.3,2.2-6.6,2.9c0,0,0,0,0,0.1c0.2,0.3,0.2,0.7,0.1,1.1l-0.9,2.3
	c3.2-0.8,6.2-2,9-3.6c0.5-0.3,0.8-0.8,0.8-1.4C25.4,173,25.1,172.5,24.6,172.2z"/>
<path class="st2-badge-topuser" d="M109.5,11c4,3.1,9.2,4.1,14,2.6c6.8-2.1,14.1,0.7,17.7,6.9c2.6,4.4,7.1,7.2,12.1,7.5c7.1,0.5,12.9,5.8,14,12.8
	c0.8,5,4,9.2,8.6,11.4c6.4,3,9.9,10.1,8.5,17c-1,4.9,0.4,10.1,3.9,13.7c4.9,5.1,5.6,13,1.8,18.9c-2.8,4.2-3.3,9.5-1.3,14.2
	c2.7,6.6,0.6,14.1-5.2,18.3c-4.1,2.9-6.5,7.7-6.4,12.8c0.2,7.1-4.6,13.4-11.4,15.2c-4.9,1.3-8.8,4.9-10.5,9.6
	c-2.4,6.7-9.1,10.8-16.1,10c-5-0.6-10,1.3-13.3,5.2c-4.7,5.4-12.4,6.8-18.7,3.5c-4.5-2.4-9.8-2.4-14.3,0c-6.3,3.3-14,1.9-18.7-3.5
	c-3.3-3.8-8.3-5.7-13.3-5.2c-7.1,0.8-13.7-3.3-16.1-10c-1.7-4.7-5.7-8.3-10.5-9.6c-6.9-1.8-11.6-8.1-11.4-15.2
	c0.1-5-2.3-9.8-6.4-12.8c-5.8-4.1-7.9-11.7-5.2-18.3c1.9-4.7,1.4-10-1.3-14.2C6,95.9,6.7,88.1,11.6,82.9c3.5-3.6,4.9-8.8,3.9-13.7
	c-1.5-6.9,2-14,8.5-17c4.6-2.1,7.8-6.4,8.6-11.4c1.1-7,7-12.3,14-12.8c5-0.3,9.6-3.2,12.1-7.5c3.6-6.1,10.9-9,17.7-6.9
	c4.8,1.5,10.1,0.5,14-2.6C96.1,6.6,103.9,6.6,109.5,11L109.5,11z M109.5,11"/>
<path class="st0-badge-topuser" d="M107.4,30.4c3.1,2.5,7.2,3.2,11,2.1c5.3-1.6,11,0.6,13.9,5.4c2,3.4,5.6,5.6,9.5,5.9c5.5,0.4,10.1,4.5,11,10
	c0.6,3.9,3.2,7.2,6.7,8.9c5,2.4,7.8,7.9,6.6,13.3c-0.8,3.9,0.3,7.9,3.1,10.7c3.8,4,4.4,10.1,1.4,14.8c-2.2,3.3-2.5,7.5-1,11.1
	c2.1,5.1,0.4,11.1-4.1,14.3c-3.2,2.3-5.1,6-5,10c0.1,5.6-3.6,10.5-9,11.9c-3.8,1-6.9,3.8-8.3,7.5c-1.9,5.2-7.1,8.5-12.6,7.8
	c-3.9-0.5-7.8,1.1-10.4,4c-3.6,4.2-9.7,5.3-14.6,2.7c-3.5-1.8-7.7-1.8-11.2,0c-4.9,2.6-11,1.5-14.6-2.7c-2.6-3-6.5-4.5-10.4-4
	c-5.5,0.6-10.8-2.6-12.6-7.8c-1.3-3.7-4.4-6.5-8.3-7.5c-5.4-1.4-9.1-6.3-9-11.9c0.1-3.9-1.8-7.7-5-10c-4.5-3.2-6.2-9.2-4.1-14.3
	c1.5-3.6,1.1-7.8-1-11.1c-3-4.7-2.5-10.8,1.4-14.8c2.7-2.9,3.9-6.9,3.1-10.7c-1.2-5.4,1.6-10.9,6.6-13.3c3.6-1.7,6.1-5,6.7-8.9
	c0.9-5.5,5.4-9.6,11-10c3.9-0.3,7.5-2.5,9.5-5.9c2.8-4.8,8.6-7,13.9-5.4c3.8,1.2,7.9,0.4,11-2.1C96.9,26.9,103.1,26.9,107.4,30.4
	L107.4,30.4z M107.4,30.4"/>
<path class="st3-badge-topuser" d="M120.3,51.1c0.2,0.1,0.4,0.1,0.6,0.1c0.6,0,1.2-0.4,1.4-0.9l2.5-6c0.2-0.4,0.2-0.8,0-1.2
	c-0.2-0.4-0.4-0.7-0.8-0.8c-0.2-0.1-0.4-0.1-0.6-0.1c-0.6,0-1.2,0.4-1.4,0.9l-2.5,6c-0.2,0.4-0.2,0.8,0,1.2
	C119.6,50.7,119.9,51,120.3,51.1z M150.3,80.7c0.2,0,0.4,0,0.6-0.1l6-2.5c0.5-0.2,0.9-0.7,0.9-1.2c0.1-0.5-0.2-1.1-0.6-1.4
	c-0.3-0.2-0.6-0.3-0.9-0.3c-0.2,0-0.4,0-0.6,0.1l-6,2.5c-0.7,0.3-1.1,1-0.9,1.7C148.9,80.2,149.6,80.7,150.3,80.7z M77.8,50.3
	c0.2,0.6,0.8,0.9,1.4,0.9c0.5,0,1-0.3,1.3-0.7c0.3-0.4,0.3-1,0.1-1.4L78,43.1c-0.2-0.5-0.7-0.9-1.2-1c-0.1,0-0.2,0-0.2,0
	c-0.5,0-0.9,0.2-1.2,0.6c-0.3,0.5-0.4,1.1-0.1,1.6L77.8,50.3z M50.3,77.8l-6-2.5c-0.2-0.1-0.4-0.1-0.6-0.1c-0.3,0-0.7,0.1-0.9,0.3
	c-0.4,0.3-0.7,0.9-0.6,1.4c0.1,0.5,0.4,1,0.9,1.2l6,2.5c0.2,0.1,0.4,0.1,0.6,0.1h0c0.7,0,1.4-0.5,1.5-1.2C51.4,78.7,51,78,50.3,77.8
	z M100,49.3c0.8,0,1.5-0.7,1.5-1.5V36.9c0-0.8-0.7-1.5-1.5-1.5s-1.5,0.7-1.5,1.5v10.9C98.5,48.6,99.2,49.3,100,49.3z M145.1,53.8
	c-0.1,0-0.2,0-0.4,0c-0.4,0-0.8,0.2-1.1,0.5l-7.7,7.7c-0.4,0.4-0.6,1.1-0.3,1.7c0.2,0.6,0.8,0.9,1.4,0.9c0.4,0,0.8-0.2,1.1-0.4
	l7.7-7.7c0.4-0.4,0.6-0.9,0.4-1.5C146.1,54.4,145.6,53.9,145.1,53.8z M62,64.1c0.3,0.3,0.7,0.4,1.1,0.4c0.6,0,1.2-0.4,1.4-0.9
	c0.2-0.6,0.1-1.2-0.3-1.7l-7.7-7.7c-0.3-0.3-0.7-0.5-1.1-0.5c-0.1,0-0.3,0-0.4,0c-0.5,0.1-1,0.6-1.1,1.1c-0.1,0.5,0,1.1,0.5,1.5
	L62,64.1z M49.3,100c0-0.8-0.7-1.5-1.5-1.5H36.9c-0.8,0-1.5,0.7-1.5,1.5c0,0.8,0.7,1.5,1.5,1.5h10.9C48.6,101.5,49.3,100.8,49.3,100
	z M163.1,98.5h-10.9c-0.8,0-1.5,0.7-1.5,1.5c0,0.8,0.7,1.5,1.5,1.5h10.9c0.8,0,1.5-0.7,1.5-1.5C164.7,99.2,164,98.5,163.1,98.5z
	 M79.7,148.9c-0.2-0.1-0.4-0.1-0.6-0.1c-0.6,0-1.2,0.4-1.4,0.9l-2.5,6c-0.3,0.8,0,1.7,0.8,2c0.2,0.1,0.4,0.1,0.6,0.1
	c0.6,0,1.2-0.4,1.4-0.9l2.5-6c0.2-0.4,0.2-0.8,0-1.2C80.4,149.3,80.1,149,79.7,148.9z M49.7,119.3c-0.2,0-0.4,0-0.6,0.1l-6,2.5
	c-0.5,0.2-0.9,0.7-0.9,1.2c-0.1,0.5,0.2,1.1,0.6,1.4c0.3,0.2,0.6,0.3,0.9,0.3c0.2,0,0.4,0,0.6-0.1l6-2.5c0.7-0.3,1.1-1,0.9-1.7
	C51.1,119.8,50.4,119.3,49.7,119.3z M122.2,149.7c-0.2-0.6-0.8-0.9-1.4-0.9c-0.5,0-1,0.3-1.3,0.7c-0.3,0.4-0.3,1-0.1,1.4l2.5,6.1
	c0.2,0.5,0.7,0.9,1.2,1c0.1,0,0.2,0,0.2,0c0.5,0,0.9-0.2,1.2-0.6c0.3-0.5,0.4-1.1,0.1-1.6L122.2,149.7z M156.9,121.9l-6-2.5
	c-0.2-0.1-0.4-0.1-0.6-0.1c-0.7,0-1.4,0.5-1.5,1.2c-0.1,0.7,0.2,1.4,0.9,1.7l6,2.5c0.2,0.1,0.4,0.1,0.6,0.1c0.3,0,0.7-0.1,0.9-0.3
	c0.4-0.3,0.7-0.9,0.6-1.4C157.8,122.6,157.4,122.2,156.9,121.9z M100,150.7c-0.8,0-1.5,0.7-1.5,1.5v10.9c0,0.8,0.7,1.5,1.5,1.5
	c0.8,0,1.5-0.7,1.5-1.5v-10.9C101.5,151.4,100.8,150.7,100,150.7z M63,135.4c-0.4,0-0.8,0.2-1.1,0.4l-7.7,7.7
	c-0.4,0.4-0.6,1-0.4,1.5c0.1,0.5,0.6,1,1.1,1.1c0.1,0,0.2,0,0.4,0c0.4,0,0.8-0.2,1.1-0.5l7.7-7.7c0.4-0.4,0.6-1.1,0.3-1.7
	C64.2,135.8,63.7,135.4,63,135.4z M138,135.9c-0.3-0.3-0.7-0.4-1.1-0.4c-0.6,0-1.2,0.4-1.4,0.9c-0.2,0.6-0.1,1.2,0.3,1.7l7.7,7.7
	c0.3,0.3,0.7,0.5,1.1,0.5c0.1,0,0.3,0,0.4,0c0.5-0.1,1-0.6,1.1-1.1c0.1-0.5,0-1.1-0.5-1.5L138,135.9z"/>
<g>
	<defs>
		<path id="SVGID_00000089532681173583439770000000949663315810463417_" d="M107.4,30.4c3.1,2.5,7.2,3.2,11,2.1
			c5.3-1.6,11,0.6,13.9,5.4c2,3.4,5.6,5.6,9.5,5.9c5.5,0.4,10.1,4.5,11,10c0.6,3.9,3.2,7.2,6.7,8.9c5,2.4,7.8,7.9,6.6,13.3
			c-0.8,3.9,0.3,7.9,3.1,10.7c3.8,4,4.4,10.1,1.4,14.8c-2.2,3.3-2.5,7.5-1,11.1c2.1,5.1,0.4,11.1-4.1,14.3c-3.2,2.3-5.1,6-5,10
			c0.1,5.6-3.6,10.5-9,11.9c-3.8,1-6.9,3.8-8.3,7.5c-1.9,5.2-7.1,8.5-12.6,7.8c-3.9-0.5-7.8,1.1-10.4,4c-3.6,4.2-9.7,5.3-14.6,2.7
			c-3.5-1.8-7.7-1.8-11.2,0c-4.9,2.6-11,1.5-14.6-2.7c-2.6-3-6.5-4.5-10.4-4c-5.5,0.6-10.8-2.6-12.6-7.8c-1.3-3.7-4.4-6.5-8.3-7.5
			c-5.4-1.4-9.1-6.3-9-11.9c0.1-3.9-1.8-7.7-5-10c-4.5-3.2-6.2-9.2-4.1-14.3c1.5-3.6,1.1-7.8-1-11.1c-3-4.7-2.5-10.8,1.4-14.8
			c2.7-2.9,3.9-6.9,3.1-10.7c-1.2-5.4,1.6-10.9,6.6-13.3c3.6-1.7,6.1-5,6.7-8.9c0.9-5.5,5.4-9.6,11-10c3.9-0.3,7.5-2.5,9.5-5.9
			c2.8-4.8,8.6-7,13.9-5.4c3.8,1.2,7.9,0.4,11-2.1C96.9,26.9,103.1,26.9,107.4,30.4L107.4,30.4z M107.4,30.4"/>
	</defs>
	<clipPath id="SVGID_00000032609647529503247750000010755414151715367325_">
		<use xlink:href="#SVGID_00000089532681173583439770000000949663315810463417_"  style="overflow:visible;"/>
	</clipPath>
	
		<g id="Groupe_de_masques_5_00000096020357668965621470000012946254463222429591_" transform="translate(3.063 3.063)" style="clip-path:url(#SVGID_00000032609647529503247750000010755414151715367325_);">
		<path id="Tracé_1_00000139973491853759073470000005403174315352180895_" class="st5-badge-topuser" d="M109.6,154.8c-3.4,4-8.5,7.3-16.2,12.6
			c-0.5,0.3-0.8,0.8-0.9,1.3c-0.4,2.5-1,5-1.8,7.4c-0.1,0.2,0,0.4,0.2,0.4c0.1,0,0.2,0,0.2,0c9.3-3.9,18.8-15.3,19-21.5
			c0-0.2-0.2-0.3-0.3-0.3C109.7,154.7,109.6,154.7,109.6,154.8z M137.6,102.3l-26.4-7.7c-0.3-0.1-0.6-0.3-0.8-0.6
			c-3.6-5.1-10.2-7.2-16.1-5.1c-6.3,2.2-10.1,8.7-8.9,15.3l0.2,1.1c0.5,5.5,4.3,10.2,9.6,11.8l0,0c0,0,0.1,0,0.3,0.1
			c0.1,0,0.2,0.1,0.3,0.1c1.6,0.5,6.1,2.3,6.6,6.3c0.1,0.6-0.4,1.2-1,1.3c0,0-0.1,0-0.1,0c-10,0.3-19.7,3.6-27.8,9.5
			c-13,9.5-20.6,24.7-20.3,40.8c0,0.4,0.3,0.7,0.7,0.6c0.2,0,0.4-0.1,0.5-0.2c3-3.5,6.5-6.6,10.3-9.2c-4.6,10.1-5.7,21.5-3.1,32.3
			c0.1,0.3,0.4,0.6,0.8,0.5c0.2-0.1,0.4-0.2,0.5-0.5c1.1-5.4,5.9-17.1,20.2-27.5s22.1-14.4,26.8-20.3c4.8-5.7,7.1-13.1,6.2-20.5
			c-0.9-5.8-2.7-11.5-6.8-14c-4.9-2.9-11.1-4.9-9.5-10.4c0.6-2,1.9-3.6,3.7-4.5c1.5-0.8,3.1-1.2,4.7-1.2c9.9,0.2,19.7,1,29.4,2.5
			c0.1,0,0.1,0,0.1-0.1C137.7,102.4,137.7,102.3,137.6,102.3L137.6,102.3z M101.7,132.6c-14.7,2.5-26.4,13.6-29.8,28
			c0,0.1-0.1,0.1-0.2,0.1c-0.1,0-0.1-0.1-0.1-0.1c-0.8-15,10.8-27.7,25.7-28.5c1.5-0.1,2.9,0,4.4,0.1c0.1,0,0.2,0.1,0.1,0.2
			C101.8,132.6,101.8,132.6,101.7,132.6z M76.1,95.8C87,94.7,86.2,87.3,97,85.9c3.8-0.6,7.7,0.1,10.9,2.2c0.1,0.1,0.3,0.1,0.3,0
			c0.1-0.1,0.1-0.3,0-0.3l0,0c-3-3.5-7.6-5-12-4c-10.5,1.4-10.6,8.3-19.6,9.7c-5.1,0.7-10.3-0.5-14.6-3.4c-0.1-0.1-0.2-0.1-0.3,0
			c-0.1,0.1-0.1,0.2,0,0.3l0,0C65.3,94.5,70.7,96.5,76.1,95.8z"/>
	</g>
</g>
<g>
	<path class="st5-badge-topuser" d="M78.6,73C78.6,73,78.6,73.1,78.6,73l6.6,0c0.1,0,0.1,0,0.2,0.1c0.1,0.1,0.1,0.1,0.1,0.2v2.3
		c0,0.1,0,0.1-0.1,0.2c-0.1,0.1-0.1,0.1-0.2,0.1H74.4c-0.1,0-0.1,0-0.2-0.1c-0.1-0.1-0.1-0.1-0.1-0.2v-2.2c0-0.1,0-0.3,0.1-0.4
		c0.8-0.8,1.6-1.6,2.4-2.5c0.8-0.9,1.3-1.5,1.5-1.7c0.4-0.5,0.9-1,1.4-1.5c1.5-1.6,2.2-2.8,2.2-3.6c0-0.6-0.2-1-0.6-1.4
		c-0.4-0.4-0.9-0.5-1.6-0.5c-0.6,0-1.2,0.2-1.6,0.5c-0.4,0.4-0.6,0.8-0.6,1.4v0.6c0,0.1,0,0.1-0.1,0.2c-0.1,0.1-0.1,0.1-0.2,0.1
		h-2.8c-0.1,0-0.1,0-0.2-0.1C74,64.6,74,64.5,74,64.4v-1.1c0-0.9,0.3-1.6,0.8-2.3c0.5-0.7,1.2-1.2,2-1.5s1.7-0.5,2.8-0.5
		c1.1,0,2.1,0.2,3,0.6c0.8,0.4,1.5,1,1.9,1.7c0.5,0.7,0.7,1.5,0.7,2.4c0,0.7-0.2,1.4-0.5,2.1s-0.8,1.5-1.5,2.3
		c-0.5,0.6-1,1.2-1.6,1.8s-1.4,1.5-2.6,2.6L78.6,73C78.6,73,78.6,73,78.6,73z"/>
	<path class="st5-badge-topuser" d="M89.1,74.8c-1-1-1.5-2.3-1.5-4v-6.3c0-1.7,0.5-3,1.5-4c1-1,2.4-1.5,4.2-1.5c1.8,0,3.2,0.5,4.2,1.5
		c1,1,1.5,2.3,1.5,4v6.3c0,1.7-0.5,3-1.5,4c-1,1-2.4,1.5-4.2,1.5C91.5,76.2,90.1,75.7,89.1,74.8z M95,72.7c0.4-0.4,0.6-1,0.6-1.8
		v-6.6c0-0.7-0.2-1.3-0.6-1.8c-0.4-0.4-1-0.7-1.7-0.7c-0.7,0-1.3,0.2-1.7,0.7c-0.4,0.4-0.6,1-0.6,1.8v6.6c0,0.7,0.2,1.3,0.6,1.8
		c0.4,0.4,1,0.7,1.7,0.7C94,73.3,94.5,73.1,95,72.7z"/>
	<path class="st5-badge-topuser" d="M105.7,73C105.7,73,105.7,73.1,105.7,73l6.6,0c0.1,0,0.1,0,0.2,0.1c0.1,0.1,0.1,0.1,0.1,0.2v2.3
		c0,0.1,0,0.1-0.1,0.2c-0.1,0.1-0.1,0.1-0.2,0.1h-10.8c-0.1,0-0.1,0-0.2-0.1c-0.1-0.1-0.1-0.1-0.1-0.2v-2.2c0-0.1,0-0.3,0.1-0.4
		c0.8-0.8,1.6-1.6,2.4-2.5c0.8-0.9,1.3-1.5,1.5-1.7c0.4-0.5,0.9-1,1.4-1.5c1.5-1.6,2.2-2.8,2.2-3.6c0-0.6-0.2-1-0.6-1.4
		c-0.4-0.4-0.9-0.5-1.6-0.5c-0.6,0-1.2,0.2-1.6,0.5c-0.4,0.4-0.6,0.8-0.6,1.4v0.6c0,0.1,0,0.1-0.1,0.2c-0.1,0.1-0.1,0.1-0.2,0.1
		h-2.8c-0.1,0-0.1,0-0.2-0.1c-0.1-0.1-0.1-0.1-0.1-0.2v-1.1c0-0.9,0.3-1.6,0.8-2.3c0.5-0.7,1.2-1.2,2-1.5c0.8-0.4,1.7-0.5,2.8-0.5
		c1.1,0,2.1,0.2,3,0.6c0.8,0.4,1.5,1,1.9,1.7c0.5,0.7,0.7,1.5,0.7,2.4c0,0.7-0.2,1.4-0.5,2.1s-0.8,1.5-1.5,2.3
		c-0.5,0.6-1,1.2-1.6,1.8c-0.6,0.6-1.4,1.5-2.6,2.6L105.7,73C105.7,73,105.7,73,105.7,73z"/>
	<path class="st5-badge-topuser" d="M119.1,73C119.1,73,119.2,73.1,119.1,73l6.6,0c0.1,0,0.1,0,0.2,0.1c0.1,0.1,0.1,0.1,0.1,0.2v2.3
		c0,0.1,0,0.1-0.1,0.2c-0.1,0.1-0.1,0.1-0.2,0.1h-10.8c-0.1,0-0.1,0-0.2-0.1c-0.1-0.1-0.1-0.1-0.1-0.2v-2.2c0-0.1,0-0.3,0.1-0.4
		c0.8-0.8,1.6-1.6,2.4-2.5c0.8-0.9,1.3-1.5,1.5-1.7c0.4-0.5,0.9-1,1.4-1.5c1.5-1.6,2.2-2.8,2.2-3.6c0-0.6-0.2-1-0.6-1.4
		c-0.4-0.4-0.9-0.5-1.6-0.5s-1.2,0.2-1.6,0.5c-0.4,0.4-0.6,0.8-0.6,1.4v0.6c0,0.1,0,0.1-0.1,0.2c-0.1,0.1-0.1,0.1-0.2,0.1h-2.8
		c-0.1,0-0.1,0-0.2-0.1c-0.1-0.1-0.1-0.1-0.1-0.2v-1.1c0-0.9,0.3-1.6,0.8-2.3c0.5-0.7,1.2-1.2,2-1.5c0.8-0.4,1.7-0.5,2.8-0.5
		c1.1,0,2.1,0.2,3,0.6c0.8,0.4,1.5,1,1.9,1.7c0.5,0.7,0.7,1.5,0.7,2.4c0,0.7-0.2,1.4-0.5,2.1s-0.8,1.5-1.5,2.3
		c-0.5,0.6-1,1.2-1.6,1.8c-0.6,0.6-1.4,1.5-2.6,2.6L119.1,73C119.1,73,119.1,73,119.1,73z"/>
</g>
</svg>
