<?xml version="1.0" encoding="utf-8"?>
<!-- Generator: Adobe Illustrator 26.1.0, SVG Export Plug-In . SVG Version: 6.00 Build 0)  -->
<svg version="1.1" id="Layer_1" xmlns="http://www.w3.org/2000/svg" xmlns:xlink="http://www.w3.org/1999/xlink" x="0px" y="0px"
	 viewBox="0 0 320.2 190.6" style="enable-background:new 0 0 320.2 190.6;" xml:space="preserve">
<style type="text/css">
	.Drop_x0020_Shadow{fill:none;}
	.Outer_x0020_Glow_x0020_5_x0020_pt{fill:none;}
	.Blue_x0020_Neon{fill:none;stroke:#8AACDA;stroke-width:7;stroke-linecap:round;stroke-linejoin:round;}
	.Chrome_x0020_Highlight{fill:url(#SVGID_1_);stroke:#FFFFFF;stroke-width:0.3629;stroke-miterlimit:1;}
	.Jive_GS{fill:#FFDD00;}
	.Alyssa_GS{fill:#A6D0E4;}
	.st0-icon-home{fill:#D41C1B;stroke:#262544;stroke-width:4;stroke-linecap:round;stroke-linejoin:round;stroke-miterlimit:10;}
	.st1-icon-home{fill:#FFFFFF;stroke:#262544;stroke-width:4;stroke-linecap:round;stroke-linejoin:round;stroke-miterlimit:10;}
	.st2-icon-home{fill:none;stroke:#262544;stroke-width:4;stroke-linecap:round;stroke-linejoin:round;stroke-miterlimit:10;}
	.st3-icon-home{fill:#D41C1B;}
	.st4-icon-home{fill:none;stroke:#FFFFFF;stroke-width:5;stroke-linecap:round;stroke-linejoin:round;stroke-miterlimit:10;}
	.st5-icon-home{opacity:0.2;fill:#D41C1B;}
	.st6-icon-home{fill:#FFFFFF;}
</style>
<linearGradient id="SVGID_1_" gradientUnits="userSpaceOnUse" x1="-522.897" y1="-288.7115" x2="-522.897" y2="-289.7115">
	<stop  offset="0" style="stop-color:#656565"/>
	<stop  offset="0.618" style="stop-color:#1B1B1B"/>
	<stop  offset="0.6292" style="stop-color:#545454"/>
	<stop  offset="0.9831" style="stop-color:#3E3E3E"/>
</linearGradient>
<g>
	<g>
		<g>
			<path class="st0-icon-home" d="M46.7,170.3L46.7,170.3c-2.8,0-5-2.2-5-5v-148c0-2.7,2.2-5,5-5h0c2.8,0,5,2.2,5,5v148
				C51.7,168.1,49.4,170.3,46.7,170.3z"/>
			<path class="st0-icon-home" d="M68.3,170.3L68.3,170.3c-2.8,0-5-2.2-5-5v-148c0-2.7,2.2-5,5-5h0c2.8,0,5,2.2,5,5v148
				C73.3,168.1,71.1,170.3,68.3,170.3z"/>
			<path class="st0-icon-home" d="M90,170.3L90,170.3c-2.8,0-5-2.2-5-5v-148c0-2.7,2.2-5,5-5h0c2.7,0,5,2.2,5,5v148
				C95,168.1,92.8,170.3,90,170.3z"/>
			<path class="st0-icon-home" d="M111.7,170.3L111.7,170.3c-2.8,0-5-2.2-5-5v-148c0-2.7,2.2-5,5-5h0c2.8,0,5,2.2,5,5v148
				C116.7,168.1,114.4,170.3,111.7,170.3z"/>
			<path class="st0-icon-home" d="M133.3,170.3L133.3,170.3c-2.8,0-5-2.2-5-5v-148c0-2.7,2.2-5,5-5h0c2.7,0,5,2.2,5,5v148
				C138.3,168.1,136.1,170.3,133.3,170.3z"/>
			<path class="st0-icon-home" d="M155,170.3L155,170.3c-2.8,0-5-2.2-5-5v-148c0-2.7,2.2-5,5-5l0,0c2.8,0,5,2.2,5,5v148
				C160,168.1,157.8,170.3,155,170.3z"/>
		</g>
		<rect x="41.7" y="27.3" class="st1-icon-home" width="118.3" height="129.6"/>
		<g>
			<path class="st2-icon-home" d="M41.7,139.8c0,0,6.2,1,13.9-2.8s15.4-6.7,22.4-3.8c7,2.9,16,6.6,23,6.6"/>
			<path class="st2-icon-home" d="M160.1,139.8c0,0-6.2,1-13.9-2.8c-7.7-3.8-15.4-6.7-22.4-3.8s-16,6.6-23,6.6"/>
		</g>
		<g>
			<path class="st2-icon-home" d="M160.1,44.2c0,0-6.2-1-13.9,2.8c-7.7,3.8-15.4,6.7-22.4,3.8s-16-6.6-23-6.6"/>
			<path class="st2-icon-home" d="M41.7,44.2c0,0,6.2-1,13.9,2.8S71,53.7,78,50.8c7-2.9,16-6.6,23-6.6"/>
		</g>
		<g>
			<g>
				<path class="st0-icon-home" d="M41.7,139.8c0,0,6.2,1,13.9-2.8s15.4-6.7,22.4-3.8c7,2.9,16,6.6,23,6.6h-0.1c6.9,0,16-3.7,23-6.6
					s14.6,0,22.4,3.8c7.7,3.8,13.9,2.8,13.9,2.8V44.2c0,0-6.2-1-13.9,2.8c-7.7,3.8-15.4,6.7-22.4,3.8s-16-6.6-23-6.6h0.1
					c-6.9,0-16,3.7-23,6.6c-7,2.9-14.6,0-22.4-3.8s-13.9-2.8-13.9-2.8V139.8z"/>
			</g>
		</g>
		<g>
			<path class="st1-icon-home" d="M100.8,92.1H92c-8.2,0-14.9-6.7-14.9-14.9v-7c0-3.4,2.8-6.2,6.2-6.2h2.1c8.6,0,15.5,6.9,15.5,15.5V92.1z"/>
			<path class="st1-icon-home" d="M100.8,92.1h8.8c8.2,0,14.9-6.7,14.9-14.9v-7c0-3.4-2.8-6.2-6.2-6.2h-2.1c-8.6,0-15.5,6.9-15.5,15.5V92.1z"
				/>
			<path class="st1-icon-home" d="M100.8,92h8.8c8.2,0,14.9,6.7,14.9,14.9v7c0,3.4-2.8,6.2-6.2,6.2h-2.1c-8.6,0-15.5-6.9-15.5-15.5V92z"/>
			<path class="st1-icon-home" d="M100.8,92H92c-8.2,0-14.9,6.7-14.9,14.9v7c0,3.4,2.8,6.2,6.2,6.2h2.1c8.6,0,15.5-6.9,15.5-15.5V92z"/>
		</g>
		<path class="st1-icon-home" d="M60.9,78h-6.3c-1.7,0-3-1.3-3-3v-6.3c0-1.7,1.3-3,3-3h6.3c1.7,0,3,1.3,3,3V75C63.9,76.7,62.6,78,60.9,78z"/>
		<path class="st1-icon-home" d="M60.9,120.2h-6.3c-1.7,0-3-1.3-3-3V111c0-1.7,1.3-3,3-3h6.3c1.7,0,3,1.3,3,3v6.3
			C63.9,118.9,62.6,120.2,60.9,120.2z"/>
	</g>
	<g>
		<g>
			<path class="st3-icon-home" d="M232.2,146.8h24c4.9,0,13.7-4.7,15.8-10.9h2.1c1.4,0,2.5-1.1,2.5-2.5c0-1.4-1.1-2.5-2.5-2.5h-2
				c-2.2-6.4-12.8-11.3-17.8-11.3h-22h0h-24c-4.9,0-13.7,4.7-15.8,10.9h-2.1c-1.4,0-2.5,1.1-2.5,2.5c0,1.4,1.1,2.5,2.5,2.5h2
				c2.2,6.4,12.8,11.3,17.8,11.3H232.2L232.2,146.8z"/>
		</g>
		<path class="st4-icon-home" d="M229.2,143L229.2,143h23.7c4.2,0,11.3-2.8,14.4-6.7"/>
		<path class="st5-icon-home" d="M269.6,154.6h2.7c2,0,3.7-1.7,3.7-3.9v0c0-2.1-1.7-3.9-3.7-3.9h-16.6h-76.2v21.6h3.7l11.4,0.9h74.9
			c3.8,0,7-3.3,7-7.4C276.5,157.9,273.4,154.6,269.6,154.6z"/>
		<path class="st2-icon-home" d="M195.8,154.6h73.7c3.8,0,7,3.3,7,7.4v0c0,4.1-3.1,7.4-7,7.4h-74.9"/>
		<path class="st2-icon-home" d="M268.3,161.6l-73.7,0c-3.8,0-7-3.3-7-7.4v0c0-4.1,3.1-7.4,7-7.4l74.9,0"/>
		<path class="st2-icon-home" d="M255.7,146.8h16.6c2,0,3.7,1.7,3.7,3.9v0c0,2.1-1.7,3.9-3.7,3.9h-16.6"/>
		<path class="st2-icon-home" d="M207.9,169.3h-16.6c-2,0-3.7-1.7-3.7-3.9l0,0c0-2.1,1.7-3.9,3.7-3.9h16.6"/>
		<g>
			<path class="st2-icon-home" d="M232.2,146.8h24c4.9,0,13.7-4.7,15.8-10.9h2.1c1.4,0,2.5-1.1,2.5-2.5c0-1.4-1.1-2.5-2.5-2.5h-2
				c-2.2-6.4-12.8-11.3-17.8-11.3h-22h0h-24c-4.9,0-13.7,4.7-15.8,10.9h-2.1c-1.4,0-2.5,1.1-2.5,2.5c0,1.4,1.1,2.5,2.5,2.5h2
				c2.2,6.4,12.8,11.3,17.8,11.3H232.2L232.2,146.8z"/>
		</g>
		<line class="st2-icon-home" x1="206.2" y1="131.5" x2="258.2" y2="131.5"/>
	</g>
	<g>
		<g>
			<path class="st6-icon-home" d="M189.1,117.8c-7.1-28.3,0-52.2,0-52.2l-2-5.7l6.4,1.6c0,0,23.9-7.1,52.2,0l4.8-1.3l-1.3,5.4
				c0,0,7.1,23.9,0,52.2l1.5,5.9l-5.8-2.8c0,0-22.8,7.8-51.1,0.7l-6.7,3L189.1,117.8z"/>
			<path class="st2-icon-home" d="M189.1,117.8c-7.1-28.3,0-52.2,0-52.2l-2-5.7l6.4,1.6c0,0,23.9-7.1,52.2,0l4.8-1.3l-1.3,5.4
				c0,0,7.1,23.9,0,52.2l1.5,5.9l-5.8-2.8c0,0-22.8,7.8-51.1,0.7l-6.7,3L189.1,117.8z"/>
		</g>
		<g>
			<g>
				<line class="st2-icon-home" x1="198.8" y1="72.9" x2="211.9" y2="85.8"/>
				<line class="st2-icon-home" x1="211.9" y1="72.9" x2="198.8" y2="85.8"/>
			</g>
			<circle class="st0-icon-home" cx="205.3" cy="79.3" r="3.7"/>
		</g>
		<g>
			<g>
				<line class="st2-icon-home" x1="225.5" y1="72.9" x2="238.5" y2="85.8"/>
				<line class="st2-icon-home" x1="238.5" y1="72.9" x2="225.4" y2="85.8"/>
			</g>
			<circle class="st0-icon-home" cx="232" cy="79.3" r="3.7"/>
		</g>
		<g>
			<g>
				<line class="st2-icon-home" x1="198.8" y1="99.6" x2="211.9" y2="112.5"/>
				<line class="st2-icon-home" x1="211.9" y1="99.6" x2="198.8" y2="112.5"/>
			</g>
			<circle class="st1-icon-home" cx="205.3" cy="106" r="3.7"/>
		</g>
		<g>
			<g>
				<line class="st2-icon-home" x1="225.5" y1="99.6" x2="238.5" y2="112.5"/>
				<line class="st2-icon-home" x1="238.5" y1="99.6" x2="225.4" y2="112.5"/>
			</g>
			<circle class="st0-icon-home" cx="232" cy="106" r="3.7"/>
		</g>
	</g>
	<line class="st2-icon-home" x1="24.5" y1="172.8" x2="295.7" y2="172.8"/>
	<g id="QUAznY.tif">
		<path class="st3-icon-home" d="M204.5,96.2c-16.2-12.2-23.5-25-28.2-32.4c-4.7-7.5-7.9-13.4-27.1-13.4c-19.2,0-22.4,6-27.1,13.4
			c-4.7,7.5-12,20.2-28.2,32.4c-16.2,12.2-15.1,37.2-13.1,44.1c2,6.9,5.1,23.1,24.4,27.5s43.9,3.5,43.9,3.5s24.7,0.9,43.9-3.5
			c19.3-4.4,22.4-20.7,24.4-27.5S220.6,108.3,204.5,96.2z"/>
		<path class="st6-icon-home" d="M112.7,118.8c0,0,8.8-4.7,37.3-4.7s38.7,3.7,34.3,7.1c-4.4,3.4-15.8,8.8-29.4,8.7
			C141.3,129.9,132.4,133.6,112.7,118.8z"/>
		<path class="st5-icon-home" d="M112.7,118.8c0,0,8.8-4.7,37.3-4.7s38.7,3.7,34.3,7.1c-4.4,3.4-15.8,8.8-29.4,8.7
			C141.3,129.9,132.4,133.6,112.7,118.8z"/>
		<path class="st2-icon-home" d="M204.5,96.2c-16.2-12.2-23.5-25-28.2-32.4c-4.7-7.5-7.9-13.4-27.1-13.4c-19.2,0-22.4,6-27.1,13.4
			c-4.7,7.5-12,20.2-28.2,32.4c-16.2,12.2-15.1,37.2-13.1,44.1c2,6.9,5.1,23.1,24.4,27.5s43.9,3.5,43.9,3.5s24.7,0.9,43.9-3.5
			c19.3-4.4,22.4-20.7,24.4-27.5S220.6,108.3,204.5,96.2z"/>
		<g>
			<path class="st2-icon-home" d="M149.2,114.1c0,0-23.6,0.4-34.9,3.3"/>
			<path class="st2-icon-home" d="M97.7,106c0,0,8.6,5,17.1,15.2c8.3,9.9,35.4,8.8,35.4,8.8"/>
			<path class="st2-icon-home" d="M123.5,102.3c0,0,6.5,5.2,9.2,11.8"/>
			<path class="st2-icon-home" d="M150,114.1c0,0,23.6,0.4,34.9,3.3"/>
			<path class="st2-icon-home" d="M201.5,106c0,0-8.6,5.1-17.1,15.2c-7.9,9.4-34.2,8.8-34.2,8.8"/>
			<path class="st2-icon-home" d="M175.7,102.3c0,0-6.5,5.2-9.2,11.8"/>
		</g>
	</g>
	<path class="st4-icon-home" d="M250.5,140.3"/>
	<path class="st4-icon-home" d="M262,137"/>
</g>
</svg>
