<?xml version="1.0" encoding="utf-8"?>
<!-- Generator: Adobe Illustrator 26.1.0, SVG Export Plug-In . SVG Version: 6.00 Build 0)  -->
<svg version="1.1" id="Layer_1" xmlns="http://www.w3.org/2000/svg" xmlns:xlink="http://www.w3.org/1999/xlink" x="0px" y="0px"
	 viewBox="0 0 320.2 190.6" style="enable-background:new 0 0 320.2 190.6;" xml:space="preserve">
<style type="text/css">
	.Drop_x0020_Shadow{fill:none;}
	.Outer_x0020_Glow_x0020_5_x0020_pt{fill:none;}
	.Blue_x0020_Neon{fill:none;stroke:#8AACDA;stroke-width:7;stroke-linecap:round;stroke-linejoin:round;}
	.Chrome_x0020_Highlight{fill:url(#SVGID_1_);stroke:#FFFFFF;stroke-width:0.3629;stroke-miterlimit:1;}
	.Jive_GS{fill:#FFDD00;}
	.Alyssa_GS{fill:#A6D0E4;}
	.st0-icon-clothes{opacity:0.2;fill:#D41C1B;}
	.st1-icon-clothes{fill:none;stroke:#FFFFFF;stroke-width:5;stroke-linecap:round;stroke-linejoin:round;stroke-miterlimit:10;}
	.st2-icon-clothes{fill:none;stroke:#FFFFFF;stroke-width:7;stroke-linecap:round;stroke-linejoin:round;stroke-miterlimit:10;}
	.st3-icon-clothes{fill:none;stroke:#262544;stroke-width:4;stroke-linecap:round;stroke-linejoin:round;stroke-miterlimit:10;}
	.st4-icon-clothes{fill:#262544;}
	.st5-icon-clothes{fill:#D41C1B;}
	.st6-icon-clothes{fill:#FFFFFF;}
</style>
<linearGradient id="SVGID_1_" gradientUnits="userSpaceOnUse" x1="-522.897" y1="-288.7115" x2="-522.897" y2="-289.7115">
	<stop  offset="0" style="stop-color:#656565"/>
	<stop  offset="0.618" style="stop-color:#1B1B1B"/>
	<stop  offset="0.6292" style="stop-color:#545454"/>
	<stop  offset="0.9831" style="stop-color:#3E3E3E"/>
</linearGradient>
<g>
	<path class="st0-icon-clothes" d="M176.8,46.8c-9.1-10.6-13.7-18.1-45.1-13.1c-4.8,0.8-9.8,0.8-14.6,0c-31.4-5-36,2.4-45.1,13.1
		c-9.8,11.4-9.8,36.1-9.8,36.1h23.9v59.6h38.2h38.2V82.9h23.9C186.6,82.9,186.6,58.2,176.8,46.8z"/>
	<path class="st1-icon-clothes" d="M183.4,75.9c-0.9-7.2-3.1-18.9-8.4-26.7c-4.8-7.1-8.8-12.1-19.5-13.3"/>
	<line class="st2-icon-clothes" x1="89.6" y1="61.6" x2="89.6" y2="116"/>
	<path class="st3-icon-clothes" d="M176.8,46.8c-7.8-11.6-13.7-18.1-45.1-13.1c-4.8,0.8-9.8,0.8-14.6,0c-31.4-5-37.4,1.4-45.1,13.1
		c-9.1,13.8-9.8,36.1-9.8,36.1h23.9v59.6h38.2h38.2V82.9h23.9C186.6,82.9,185.6,59.8,176.8,46.8z"/>
	<line class="st3-icon-clothes" x1="162.7" y1="63.7" x2="162.7" y2="138.3"/>
	<line class="st3-icon-clothes" x1="86.2" y1="63.7" x2="86.2" y2="138.3"/>
	<path class="st3-icon-clothes" d="M125.9,53c10.5,0,19.3-8.9,21.6-20.8c-4.4,0.1-9.5,0.6-15.8,1.6c-4.8,0.8-9.8,0.8-14.6,0
		c-4.9-0.8-9.1-1.3-12.8-1.5C106.6,44.2,115.4,53,125.9,53z"/>
	<path class="st4-icon-clothes" d="M125.9,53c10.5,0,19.3-8.9,21.6-20.8c-4.4,0.1-9.5,0.6-15.8,1.6c-4.8,0.8-9.8,0.8-14.6,0
		c-4.9-0.8-9.1-1.3-12.8-1.5C106.6,44.2,115.4,53,125.9,53z"/>
	<line class="st4-icon-clothes" x1="86" y1="61.6" x2="86" y2="110.3"/>
	<path class="st2-icon-clothes" d="M88.5,61.6"/>
</g>
<g>
	<path class="st5-icon-clothes" d="M104.4,172.1H50.7c-3.4,0-6.1-2.7-6.1-6.1v-57.9c0-3.4,2.7-6.1,6.1-6.1h53.8c3.4,0,6.1,2.7,6.1,6.1V166
		C110.6,169.3,107.8,172.1,104.4,172.1z"/>
	<path class="st3-icon-clothes" d="M104.4,172.1H50.7c-3.4,0-6.1-2.7-6.1-6.1v-57.9c0-3.4,2.7-6.1,6.1-6.1h53.8c3.4,0,6.1,2.7,6.1,6.1V166
		C110.6,169.3,107.8,172.1,104.4,172.1z"/>
	<path class="st3-icon-clothes" d="M51.5,133v4.9c0,2.7,2.2,5,5,5h8.3c2.7,0,5,2.2,5,5v3.4"/>
	<g>
		<line class="st3-icon-clothes" x1="77.5" y1="126.3" x2="77.5" y2="150.8"/>
		<g>
			<polygon class="st6-icon-clothes" points="61.9,106.3 55.6,112.4 66.2,126.3 72.1,119.4 			"/>
			<polygon class="st3-icon-clothes" points="61.9,106.3 77.4,126.3 66.2,126.3 55.6,112.4 			"/>
			<line class="st4-icon-clothes" x1="66.2" y1="126.3" x2="72.1" y2="119.4"/>
			<polygon class="st4-icon-clothes" points="77.4,126.3 66.2,126.3 72.1,119.4 			"/>
			<line class="st3-icon-clothes" x1="72.1" y1="119.4" x2="66.2" y2="126.3"/>
		</g>
		<g>
			<polygon class="st6-icon-clothes" points="93.2,106.3 99.5,112.4 88.9,126.3 83,119.4 			"/>
			<polygon class="st3-icon-clothes" points="93.2,106.3 77.7,126.3 88.9,126.3 99.5,112.4 			"/>
			<line class="st4-icon-clothes" x1="88.9" y1="126.3" x2="83" y2="119.4"/>
			<polygon class="st4-icon-clothes" points="77.7,126.3 88.9,126.3 83,119.4 			"/>
			<line class="st3-icon-clothes" x1="83" y1="119.4" x2="88.9" y2="126.3"/>
		</g>
	</g>
	<circle class="st4-icon-clothes" cx="84.7" cy="134.3" r="1.7"/>
	<circle class="st4-icon-clothes" cx="84.7" cy="141.2" r="1.7"/>
</g>
<line class="st3-icon-clothes" x1="24.6" y1="172.9" x2="295.8" y2="172.9"/>
<g>
	<circle class="st5-icon-clothes" cx="252.4" cy="86.7" r="6.7"/>
	<path class="st5-icon-clothes" d="M245.3,35.9c0,0-1.6,7.9-3.9,8.5s-6.4,3.2-6.4,3.2s11,6.1,16.6,6c5.7-0.1,18.8-7.7,18.8-7.7s-6.7-0.4-7.8-2.9
		c-1.1-2.5-2.8-7.1-2.8-7.1H245.3z"/>
	<path class="st5-icon-clothes" d="M298.7,124.8c0,0-13.9-19.3-15.3-21.3c-1.4-2.1-2.9-11.5-2.9-11.5l-21.6-0.4l-1,1.3l3.5,7.2l5.5,4v7.4l-9-3.1
		l-5.3-4.8v44.2h2.9l6.8-1.3l6.5,0.5l1.9-2l3.7-0.7l4.3-2.9h5.8l2.8-2.6l5.5-5.5c0,0,7-2,8.2-3.8
		C302.1,127.5,298.7,124.8,298.7,124.8z M238.2,111.4V104l5.5-4l3.5-7.2l-1-1.3L224.6,92c0,0-1.4,9.4-2.9,11.5
		c-1.4,2.1-15.3,21.3-15.3,21.3s-3.4,2.7-2.2,4.5c1.2,1.7,8.2,3.8,8.2,3.8l5.5,5.5l2.8,2.6h5.8l4.3,2.9l3.7,0.7l1.9,2l6.5-0.5
		l6.8,1.3h2.9v-44.2l-5.3,4.8L238.2,111.4z"/>
	<path class="st0-icon-clothes" d="M225.3,81.1c0,0-1-7.2-4.5-10.2c-3.5-3-7.1-17.5-3.5-20.1c3.6-2.5,9.2-8.9,17.7-3.1s18.8,6,18.8,6
		s11.2-3.7,14-5.8c2.8-2.1,12.3-3.5,16.1-0.3c3.8,3.2,8.8,12.3,2.4,19.7c-6.3,7.4-5.9,17-5.9,17l-21.2-1.1l-6.1-2.9L248,82L227,84.2
		L225.3,81.1z"/>
	<g>
		<path class="st4-icon-clothes" d="M301.4,126.7l-14.2-20.5c-2.9-4.2-4.6-8.8-5.1-13.5c1-0.7,1.6-1.9,1.6-3.1V85c0-1.5-0.8-2.7-2-3.4
			c0.1-3.9,2.1-7.2,4.3-10.7c2.3-3.7,4.7-7.6,5.2-12.7c0.4-5.2-2.6-10.3-7.8-13c-3.8-2-8-2.2-11.6-1l0-0.1c0,0-4.7,0.3-7.5-2.2
			c-1.2-1.1-1.9-2.5-2-4.2c0-1.1-0.3-2.1-1.1-2.9c-0.5-0.6-1.2-0.9-2-1.1c0.1-2,0.6-5.2,1-6.4c0.2-0.6,0.3-1.3,0.3-2
			c0-3.6-3.6-6.6-7.9-6.6s-7.9,3-7.9,6.6c0,0.7,0.1,1.3,0.4,1.9c0.4,1.3,0.9,4.4,1,6.5c-0.7,0.2-1.4,0.6-2,1.1
			c-0.8,0.8-1.1,1.8-1.1,2.7c-0.1,1.9-0.8,3.3-2,4.4c-2.8,2.4-7.4,2.2-7.6,2.2c-0.1,0-0.1,0-0.2,0c-3.6-1.2-7.7-0.9-11.4,1.1
			c-5.2,2.7-8.2,7.8-7.8,13c0.4,5.1,2.8,8.9,5.2,12.7c2.1,3.5,4.2,6.8,4.3,10.7c-1.2,0.7-2,1.9-2,3.4v4.7c0,1.3,0.6,2.4,1.6,3.1
			c-0.5,4.6-2.2,9.3-5.1,13.5l-14.2,20.5c-0.8,1.2-1,2.7-0.4,4c0.6,1.2,1.7,2,3.1,2.2c3.3,0.4,5.8,1.8,7.6,4.4
			c0.6,0.9,1.5,1.4,2.5,1.6h0c0,0.9,0.3,1.8,0.9,2.5c0.9,1.1,2.3,1.6,3.7,1.4c3.4-0.5,6.4,0.3,9,2.5c0.9,0.7,2,1,3,0.9
			c0.2,0.9,0.8,1.7,1.6,2.3c0.7,0.5,1.5,0.7,2.3,0.7c0.6,0,1.1-0.1,1.7-0.4c2.5-1,4.9-1.3,7.4-0.7c0,0.1-0.1,0.2-0.1,0.4v23
			c0,0.9,0.7,1.7,1.7,1.7h9.6c0.9,0,1.7-0.8,1.7-1.7v-23c0-0.1,0-0.3-0.1-0.4c2.5-0.6,4.9-0.3,7.4,0.7c1.3,0.6,2.8,0.4,4-0.4
			c0.8-0.6,1.4-1.4,1.6-2.3c1.1,0.1,2.1-0.2,3-0.9c2.6-2.1,5.5-3,9-2.4c1.4,0.2,2.8-0.3,3.7-1.4c0.6-0.7,0.9-1.6,0.9-2.5h0
			c1-0.2,1.9-0.8,2.5-1.6c1.8-2.6,4.3-4.1,7.6-4.4c1.4-0.2,2.5-1,3.1-2.2C302.4,129.4,302.2,127.9,301.4,126.7L301.4,126.7z
			 M243.2,44.6c1.9-1.7,3-3.9,3.1-6.9c0-0.2,0.1-0.3,0.2-0.4c0.1-0.2,0.4-0.2,0.6-0.2h11.1c0.2,0,0.4,0.1,0.6,0.2
			c0.1,0.1,0.2,0.2,0.2,0.6c0.2,2.8,1.2,5.1,3.1,6.7c1.5,1.3,3.3,2.1,5,2.5c-1.6,1.1-7.7,4.8-14.3,4.8c-6.7,0-12.8-3.8-14.4-4.8
			C239.9,46.7,241.7,45.9,243.2,44.6L243.2,44.6z M222,69.2c-2.2-3.6-4.3-6.9-4.7-11.2c-0.3-3.8,2-7.6,6-9.7
			c3.3-1.7,8.2-2.3,12.4,1.1c0.1,0,7.9,5.8,16.9,5.8c9,0,16.8-5.7,16.8-5.8c4.1-3.4,9.1-2.8,12.4-1.1c4,2.1,6.3,5.9,6,9.7
			c-0.4,4.2-2.5,7.6-4.7,11.2c-2.2,3.6-4.5,7.3-4.8,11.9h-19.8c-1.5-1.5-3.7-2.4-6-2.4c-2.3,0-4.4,0.9-6,2.4h-19.8
			C226.5,76.5,224.2,72.8,222,69.2L222,69.2z M252.6,92.6c-3,0-5.3-2.4-5.3-5.3c0-2.9,2.4-5.3,5.3-5.3c2.9,0,5.3,2.4,5.3,5.3
			C257.9,90.3,255.5,92.6,252.6,92.6L252.6,92.6z M253.8,95.9c-0.6,1.9-1.5,3.7-2.6,5.4c-2.8,4.1-6.8,7.2-11.3,8.9v-5.4
			c4.1-2,7.3-5.5,9-9.7c1.1,0.5,2.4,0.9,3.7,0.9C253,96,253.4,95.9,253.8,95.9L253.8,95.9z M257,96.8c1.8,3.4,4.7,6.2,8.2,8v5.4
			c-4.2-1.5-7.9-4.3-10.7-8C255.6,100.4,256.4,98.6,257,96.8L257,96.8z M298.7,129.3c-0.1,0.2-0.2,0.2-0.4,0.2
			c-4.3,0.5-7.7,2.5-10,5.9c0,0-0.1,0.2-0.4,0.2c-0.1,0-0.2,0-0.3,0l-8-23.7c-0.3-0.9-1.3-1.4-2.1-1.1c-0.9,0.3-1.3,1.3-1.1,2.1
			l8.7,25.7c0.1,0.3,0,0.6-0.1,0.7c-0.1,0.1-0.3,0.2-0.6,0.2c-4.4-0.6-8.3,0.4-11.6,3.1c-0.4,0.3-0.9,0.1-1.2-0.2
			c0-0.1-7-22.9-7-22.9c-0.3-0.9-1.2-1.4-2.1-1.1c-0.9,0.3-1.4,1.2-1.1,2.1l7.3,24.5c0,0.4-0.2,0.6-0.3,0.6c-0.1,0.1-0.4,0.2-0.8,0
			c-4.1-1.7-8.2-1.7-12.3,0c-0.3,0.1-0.6,0-0.7-0.1c-0.1-0.1-0.4-0.3-0.4-0.7v-16c0-0.9-0.8-1.7-1.7-1.7s-1.7,0.8-1.7,1.7v16
			c0,0.4-0.3,0.6-0.4,0.7c-0.1,0.1-0.4,0.2-0.7,0c-4-1.7-8.2-1.7-12.3,0c-0.4,0.2-0.6,0-0.8,0c-0.1-0.1-0.3-0.3-0.3-0.7l7.3-24.5
			c0.3-0.9-0.2-1.8-1.1-2.1c-0.9-0.3-1.8,0.2-2.1,1.1c0,0-7,22.9-7,22.9c-0.3,0.3-0.8,0.5-1.2,0.2c-3.3-2.8-7.2-3.8-11.6-3.2
			c-0.4,0-0.6-0.1-0.6-0.2c-0.1-0.1-0.2-0.3-0.1-0.6l8.7-25.7c0.3-0.9-0.2-1.8-1.1-2.1c-0.9-0.3-1.8,0.2-2.1,1.1l-8,23.7
			c-0.1,0-0.2,0-0.3,0c-0.2,0-0.3-0.2-0.4-0.2c-2.3-3.4-5.7-5.4-10-5.9c-0.2,0-0.3-0.1-0.4-0.2c0-0.1-0.1-0.3,0.1-0.6l14.2-20.5
			c3.1-4.5,5-9.5,5.6-14.6h19.6c-1.5,3.8-4.5,7-8.3,8.6c-0.6,0.2-1,0.9-1,1.5v8.7c0,0.5,0.2,1,0.6,1.3c0.3,0.2,0.6,0.4,1,0.4
			c0.1,0,0.3,0,0.4,0c5.5-1.4,10.4-4.6,14-9.1c3.6,4.4,8.5,7.6,14,9.1c0.1,0,0.3,0,0.4,0c0.4,0,0.7-0.1,1-0.4
			c0.4-0.3,0.6-0.8,0.6-1.3v-8.7c0-0.7-0.4-1.3-1-1.5c-3.9-1.6-6.9-4.8-8.3-8.6h19.5c0.6,5,2.5,10.1,5.6,14.6l14.2,20.5
			C298.9,129,298.8,129.2,298.7,129.3L298.7,129.3z M298.7,129.3"/>
	</g>
</g>
<g>
	<path class="st6-icon-clothes" d="M168.9,171.9h-63.1c-4.6,0-8.3-3.7-8.3-8.3v0c0-4.6,3.7-8.3,8.3-8.3h63.1c4.6,0,8.3,3.7,8.3,8.3v0
		C177.2,168.2,173.5,171.9,168.9,171.9z"/>
	<path class="st3-icon-clothes" d="M168.9,171.9h-63.1c-4.6,0-8.3-3.7-8.3-8.3v0c0-4.6,3.7-8.3,8.3-8.3h63.1c4.6,0,8.3,3.7,8.3,8.3v0
		C177.2,168.2,173.5,171.9,168.9,171.9z"/>
	<line class="st3-icon-clothes" x1="104.5" y1="163.6" x2="169.9" y2="163.6"/>
</g>
<g>
	<path class="st6-icon-clothes" d="M160,155.1H96.9c-4.6,0-8.3-3.7-8.3-8.3v0c0-4.6,3.7-8.3,8.3-8.3H160c4.6,0,8.3,3.7,8.3,8.3v0
		C168.3,151.4,164.5,155.1,160,155.1z"/>
	<path class="st3-icon-clothes" d="M160,155.1H96.9c-4.6,0-8.3-3.7-8.3-8.3v0c0-4.6,3.7-8.3,8.3-8.3H160c4.6,0,8.3,3.7,8.3,8.3v0
		C168.3,151.4,164.5,155.1,160,155.1z"/>
	<line class="st3-icon-clothes" x1="95.6" y1="146.8" x2="161" y2="146.8"/>
</g>
<g>
	<path class="st6-icon-clothes" d="M167,137.6h-63.1c-4.6,0-8.3-3.7-8.3-8.3v0c0-4.6,3.7-8.3,8.3-8.3H167c4.6,0,8.3,3.7,8.3,8.3v0
		C175.3,133.8,171.6,137.6,167,137.6z"/>
	<path class="st3-icon-clothes" d="M167,137.6h-63.1c-4.6,0-8.3-3.7-8.3-8.3v0c0-4.6,3.7-8.3,8.3-8.3H167c4.6,0,8.3,3.7,8.3,8.3v0
		C175.3,133.8,171.6,137.6,167,137.6z"/>
	<line class="st3-icon-clothes" x1="102.7" y1="129.3" x2="168" y2="129.3"/>
</g>
<g>
	<path class="st5-icon-clothes" d="M219.2,103h11.1c7.8,0,13.8,7,12.5,14.7l-6.8,41.1c0,0-5.3-0.1-5.7,0l-0.4-2.2v2.1c0,7.9-6.4,14.2-14.2,14.2
		h-22.8h-17.1l-25.1-47.2l12.1-32.8h55L219.2,103z"/>
	<polygon class="st6-icon-clothes" points="189.2,119.1 171,119.1 171,144.4 189.2,155.3 207.3,144.4 207.3,119.1 	"/>
	<path class="st3-icon-clothes" d="M217.9,159V92.8h-55l-12.1,32.8l25.1,47.2h17.1h22.8c7.9,0,14.2-6.4,14.2-14.2v-44.5"/>
	<line class="st3-icon-clothes" x1="171.7" y1="105" x2="171.7" y2="92.8"/>
	<line class="st3-icon-clothes" x1="177.2" y1="105" x2="177.2" y2="92.8"/>
	<line class="st3-icon-clothes" x1="202" y1="105" x2="202" y2="92.8"/>
	<line class="st3-icon-clothes" x1="207.6" y1="105" x2="207.6" y2="92.8"/>
	<path class="st3-icon-clothes" d="M230.4,158.7c-0.4-0.1,5.7,0,5.7,0l6.8-41.1c1.3-7.7-4.7-14.7-12.5-14.7h-11.1"/>
	<polygon class="st3-icon-clothes" points="189.2,119.1 171,119.1 171,144.4 189.2,155.3 207.3,144.4 207.3,119.1 	"/>
	<line class="st3-icon-clothes" x1="171" y1="126.3" x2="207.3" y2="126.3"/>
</g>
</svg>
