<?xml version="1.0" encoding="utf-8"?>
<!-- Generator: Adobe Illustrator 25.4.1, SVG Export Plug-In . SVG Version: 6.00 Build 0)  -->
<svg version="1.1" id="logo-benu-sis-blanc" xmlns="http://www.w3.org/2000/svg" xmlns:xlink="http://www.w3.org/1999/xlink" x="0px" y="0px"
	 viewBox="0 0 54.5 226.2" style="enable-background:new 0 0 54.5 226.2;" xml:space="preserve">
 <style type="text/css">
	.st1-sis{fill:#FFFFFF;}
</style>
<g id="benu_sis_logo_blanc" transform="translate(-888.932 31)">
	<rect id="Rectangle_1" x="888.9" y="-31" class="st1-sis" width="54.5" height="226.2"/>
	<path id="Tracé_1" class="svg-sis" d="M920.8,36.8c-1.5,1.4-3.6,2.4-6.9,4c-0.2,0.1-0.3,0.3-0.4,0.5c-0.3,1-0.6,1.9-1.1,2.8
		c0,0.1,0,0.1,0.1,0.2c0,0,0.1,0,0.1,0c3.8-1,8.1-4.9,8.4-7.3C921.1,36.9,921,36.8,920.8,36.8C920.9,36.8,920.9,36.8,920.8,36.8z
		 M934.4,18l-9.8-4.3c-0.1-0.1-0.2-0.1-0.3-0.3c-1.1-2.2-3.6-3.3-5.9-2.8c-2.6,0.5-4.3,2.8-4.2,5.4v0.4c-0.1,2.2,1.1,4.1,3.1,5.1
		l0,0c0,0,0,0,0.1,0.1c0,0,0.1,0,0.1,0c0.6,0.3,2.2,1.2,2.2,2.8c0,0.2-0.2,0.4-0.4,0.4c0,0,0,0,0,0c-3.9-0.4-7.8,0.4-11.2,2.2
		c-5.5,3-9.2,8.5-9.9,14.7c0,0.1,0.1,0.3,0.2,0.3c0.1,0,0.1,0,0.2-0.1c1.3-1.2,2.8-2.2,4.5-3c-2.3,3.7-3.3,8-2.8,12.3
		c0,0.1,0.1,0.2,0.3,0.2c0.1,0,0.2-0.1,0.2-0.2c0.7-2,3.2-6.3,9.2-9.6s9.3-4.5,11.4-6.5c2.2-1.9,3.4-4.7,3.4-7.6
		c0-2.3-0.5-4.6-1.9-5.8c-1.7-1.4-4-2.5-3.1-4.5c0.3-0.7,0.9-1.3,1.7-1.6c0.6-0.2,1.3-0.3,1.9-0.2C926.9,16.2,930.6,17,934.4,18
		C934.4,18.1,934.4,18.1,934.4,18C934.4,18,934.4,18,934.4,18z M918.9,27.9c-5.8,0.2-10.9,3.9-12.9,9.3c0,0,0,0.1-0.1,0
		c0,0,0,0,0-0.1c0.5-5.8,5.6-10.2,11.4-9.7c0.6,0,1.1,0.1,1.7,0.3C919,27.8,919,27.8,918.9,27.9C919,27.9,919,27.9,918.9,27.9
		L918.9,27.9z M910.9,12.3c4.2,0.1,4.3-2.8,8.6-2.8c1.5-0.1,3,0.4,4.1,1.4c0,0,0.1,0,0.1,0c0,0,0-0.1,0-0.1c-1-1.5-2.7-2.3-4.4-2.2
		c-4.1,0-4.5,2.7-8,2.8c-2,0-4-0.7-5.5-2c0,0-0.1,0-0.1,0c0,0,0,0.1,0,0.1C906.8,11.3,908.8,12.4,910.9,12.3L910.9,12.3z"/>
	<g id="Groupe_1" transform="translate(898.023 72.945)">
		<path id="Tracé_2" class="svg-sis" d="M13.2,28.4v-4.1c0.1-1.5-0.4-2.9-1.4-4c-1.1-0.9-2.5-1.4-3.9-1.3H2.9v14.9h4.9
			C11.4,33.9,13.2,32.1,13.2,28.4 M7.3,2.8H2.9v13.4h4.4c1.4,0.1,2.9-0.4,3.9-1.3c1-1.1,1.5-2.5,1.4-4V8.2
			C12.6,4.6,10.8,2.8,7.3,2.8 M12.1,17.5c2.6,1.2,4,3.5,4,7v4c0,5.5-2.7,8.2-8.2,8.2H0V0h7.3c5.5,0,8.2,2.7,8.2,8.2v2.6
			C15.5,14.1,14.4,16.3,12.1,17.5"/>
	</g>
	<path id="Tracé_3" class="svg-sis" d="M914.2,114.2v36.7h-2.9l-10.5-29.2v29.2h-2.9v-36.7h2.9l10.5,29.2v-29.2H914.2z"/>
	<path id="Tracé_4" class="svg-sis" d="M934.4,75.7h-12.3v14h11v2.8h-11v14.3h12.3v2.8h-15.2V72.9h15.2V75.7z"/>
	<path id="Tracé_5" class="svg-sis" d="M934.4,114.2v29c0,5.1-2.5,7.6-7.6,7.6c-5.1,0-7.6-2.5-7.6-7.6v-29h2.9v29
		c0,3.2,1.6,4.8,4.7,4.8s4.7-1.6,4.7-4.8v-29H934.4z"/>
	<g id="Groupe_2" transform="translate(897.975 61.957)">
		<path id="Tracé_6" class="svg-sis" d="M0,0.6h36.4V0H0"/>
	</g>
</g>
</svg>
