<svg xmlns="http://www.w3.org/2000/svg" width="25.059" height="25.06" viewBox="0 0 25.059 25.06">
  <defs>
    <style>
      .cls-arrow {
        fill: #d41c1b;
      }
    </style>
  </defs>
  <g id="Groupe_366" data-name="Groupe 366" transform="translate(155 -130.94) rotate(-90)">
    <g id="Groupe_365" data-name="Groupe 365" transform="translate(-156 -155)">
      <path id="Tracé_279" data-name="Tracé 279" class="cls-arrow" d="M-148.958-129.941a1.957,1.957,0,0,1-1.384-.574l-4.795-4.785a2.919,2.919,0,0,1-.863-2.08,2.919,2.919,0,0,1,.863-2.08l4.795-4.785a1.957,1.957,0,0,1,2.139-.423,1.954,1.954,0,0,1,1.209,1.81v4.5a14.112,14.112,0,0,0,14.1-14.1v-1.566a.979.979,0,0,1,.979-.979.979.979,0,0,1,.979.979v1.566a15.95,15.95,0,0,1-4.7,11.352,15.95,15.95,0,0,1-11.352,4.7,1.96,1.96,0,0,1-1.958-1.958v-4.5h0l-.005,0,0,0-4.795,4.785a.974.974,0,0,0-.288.694.974.974,0,0,0,.288.694l4.795,4.785,0,0,.005,0h0v-1.073a.979.979,0,0,1,.979-.979.979.979,0,0,1,.979.979v1.073a1.954,1.954,0,0,1-1.209,1.81,1.965,1.965,0,0,1-.754.151Zm0,0" transform="translate(156 155)"/>
    </g>
  </g>
</svg>
