<?xml version="1.0" encoding="iso-8859-1"?>
<!-- Generator: Adobe Illustrator 27.0.0, SVG Export Plug-In . SVG Version: 6.00 Build 0)  -->
<svg version="1.1" id="Layer_1" xmlns="http://www.w3.org/2000/svg" xmlns:xlink="http://www.w3.org/1999/xlink" x="0px" y="0px"
	 viewBox="198.766 309.835 7.831 7.887" style="enable-background:new 198.766 309.835 7.831 7.887;" xml:space="preserve">
<path style="fill:#0F7E3D;" d="M199.446,310.152c-0.059,0.025-0.098,0.083-0.098,0.147c0,6.174,2.559,6.841,3.659,6.841
	c0.396,0,0.766-0.088,1.099-0.261c0.052-0.027,0.084-0.08,0.086-0.137c-0.002-0.055-0.029-0.112-0.08-0.141
	c-0.72-0.417-2.498-1.597-3.443-3.547c-0.038-0.08-0.005-0.175,0.073-0.213c0.079-0.038,0.175-0.005,0.213,0.074
	c0.071,0.147,0.149,0.288,0.229,0.427c0.031,0.053,0.064,0.104,0.096,0.156c0.048,0.078,0.098,0.155,0.149,0.23
	c0.05,0.075,0.102,0.149,0.155,0.221c0.017,0.023,0.033,0.044,0.05,0.066c1.446,1.94,3.752,3.126,4.555,3.126
	c0.088,0,0.159-0.071,0.159-0.159c0-0.088-0.071-0.159-0.159-0.159c-0.256,0-0.776-0.175-1.397-0.505
	c0.392-0.48,0.601-1.125,0.601-1.881c0-2.043-1.944-2.471-2.989-2.701c-1.406-0.309-2.227-0.99-2.785-1.548
	C199.573,310.141,199.505,310.128,199.446,310.152z"/>
</svg>
