<?xml version="1.0" encoding="utf-8"?>
<!-- Generator: Adobe Illustrator 25.4.1, SVG Export Plug-In . SVG Version: 6.00 Build 0)  -->
<svg version="1.1" id="Layer_1" xmlns="http://www.w3.org/2000/svg" xmlns:xlink="http://www.w3.org/1999/xlink" x="0px" y="0px"
	 viewBox="0 0 100 100" style="enable-background:new 0 0 100 100;" xml:space="preserve">
<style type="text/css">
	.st0{fill:#F5F7FF;}
	.st1{fill:#D41C1B;}
	.st2{fill:#2E1414;}
	.st3{enable-background:new    ;}
</style>
<g>
	<path class="st0" d="M82.6,82.6"/>
	<path class="st0" d="M17.3,28.7"/>
	<rect x="13.8" y="42.2" class="st1" width="72.4" height="7.1"/>
	<rect x="13.8" y="55.1" class="st1" width="72.4" height="7.1"/>
	<path class="st2" d="M49.9,20.2h35.5c2.4,0,4.3,1.9,4.3,4.3v35.3c0,0.8,0.6,1.4,1.4,1.4s1.4-0.6,1.4-1.4V24.5
		c0-3.9-3.2-7.1-7.1-7.1H49.9c-0.8,0-1.4,0.6-1.4,1.4C48.5,19.6,49.2,20.2,49.9,20.2L49.9,20.2z"/>
	<path class="st2" d="M41.4,20.2h2.8c0.8,0,1.4-0.6,1.4-1.4s-0.6-1.4-1.4-1.4h-2.8c-0.8,0-1.4,0.6-1.4,1.4S40.6,20.2,41.4,20.2
		L41.4,20.2z"/>
	<path class="st2" d="M15.4,68.4c-0.8,0-1.4,0.6-1.4,1.4s0.6,1.4,1.4,1.4h69.3c0.8,0,1.4-0.6,1.4-1.4s-0.6-1.4-1.4-1.4H15.4z"/>
	<g class="st3">
		<path class="st1" d="M16.1,36.2c0,0,0-0.1,0-0.1v-8.4c0-0.1,0-0.1,0-0.1s0.1-0.1,0.1-0.1h2c0.1,0,0.1,0,0.1,0.1c0,0,0,0.1,0,0.1
			v2.5c0,0,0,0.1,0,0.1c0,0,0,0,0.1,0l1.1-2.5c0-0.1,0.1-0.2,0.2-0.2h2.1c0.1,0,0.1,0,0.1,0.1c0,0,0,0.1,0,0.2l-1.8,3.7
			c0,0,0,0.1,0,0.1l1.8,4.5c0,0,0,0.1,0,0.1c0,0.1-0.1,0.1-0.2,0.1h-2.1c-0.1,0-0.2-0.1-0.2-0.2l-1-2.6c0,0,0-0.1,0-0.1s0,0-0.1,0.1
			l-0.1,0.3c0,0,0,0,0,0.1V36c0,0.1,0,0.1,0,0.1c0,0-0.1,0.1-0.1,0.1h-2C16.2,36.2,16.2,36.2,16.1,36.2z"/>
		<path class="st1" d="M24.8,36c-0.4-0.2-0.7-0.5-1-1c-0.2-0.4-0.3-0.9-0.3-1.4v-6c0-0.1,0-0.1,0.1-0.1c0,0,0.1-0.1,0.1-0.1h2
			c0.1,0,0.1,0,0.1,0.1s0.1,0.1,0.1,0.1v6.2c0,0.1,0,0.3,0.1,0.3s0.2,0.1,0.3,0.1s0.2,0,0.3-0.1s0.1-0.2,0.1-0.3v-6.2
			c0-0.1,0-0.1,0.1-0.1c0,0,0.1-0.1,0.1-0.1h2c0.1,0,0.1,0,0.1,0.1s0.1,0.1,0.1,0.1v6c0,0.5-0.1,1-0.3,1.4c-0.2,0.4-0.5,0.7-1,1
			c-0.4,0.2-0.9,0.3-1.4,0.3C25.7,36.3,25.2,36.2,24.8,36z"/>
		<path class="st1" d="M30.6,36.2c0,0,0-0.1,0-0.1v-8.4c0-0.1,0-0.1,0-0.1s0.1-0.1,0.1-0.1h2c0.1,0,0.1,0,0.1,0.1c0,0,0,0.1,0,0.1
			v6.5c0,0.1,0,0.1,0.1,0.1h2.4c0.1,0,0.1,0,0.1,0c0,0,0.1,0.1,0.1,0.1V36c0,0.1,0,0.1-0.1,0.1c0,0-0.1,0.1-0.1,0.1h-4.7
			C30.7,36.2,30.6,36.2,30.6,36.2z"/>
		<path class="st1" d="M41.6,27.5c0,0,0,0.1,0,0.1v1.6c0,0.1,0,0.1,0,0.1c0,0-0.1,0.1-0.1,0.1h-1.5c-0.1,0-0.1,0-0.1,0.1V36
			c0,0.1,0,0.1,0,0.1c0,0-0.1,0.1-0.1,0.1h-2c-0.1,0-0.1,0-0.1-0.1c0,0,0-0.1,0-0.1v-6.5c0,0,0-0.1-0.1-0.1H36c-0.1,0-0.1,0-0.1-0.1
			s0-0.1,0-0.1v-1.6c0-0.1,0-0.1,0-0.1s0.1-0.1,0.1-0.1h5.4C41.5,27.5,41.5,27.5,41.6,27.5z"/>
		<path class="st1" d="M44.4,36c-0.4-0.2-0.7-0.5-1-1c-0.2-0.4-0.3-0.9-0.3-1.4v-6c0-0.1,0-0.1,0.1-0.1c0,0,0.1-0.1,0.1-0.1h2
			c0.1,0,0.1,0,0.1,0.1s0.1,0.1,0.1,0.1v6.2c0,0.1,0,0.3,0.1,0.3s0.2,0.1,0.3,0.1s0.2,0,0.3-0.1s0.1-0.2,0.1-0.3v-6.2
			c0-0.1,0-0.1,0.1-0.1c0,0,0.1-0.1,0.1-0.1h2c0.1,0,0.1,0,0.1,0.1s0.1,0.1,0.1,0.1v6c0,0.5-0.1,1-0.3,1.4c-0.2,0.4-0.5,0.7-1,1
			c-0.4,0.2-0.9,0.3-1.4,0.3C45.3,36.3,44.8,36.2,44.4,36z"/>
		<path class="st1" d="M53.4,36.1l-0.8-3.1c0,0,0-0.1,0-0.1c0,0,0,0,0,0.1V36c0,0.1,0,0.1-0.1,0.1c0,0-0.1,0.1-0.1,0.1h-2
			c-0.1,0-0.1,0-0.1-0.1c0,0,0-0.1,0-0.1v-8.4c0-0.1,0-0.1,0-0.1s0.1-0.1,0.1-0.1h2.8c0.5,0,0.9,0.1,1.3,0.4c0.4,0.2,0.7,0.6,0.9,1
			s0.3,0.9,0.3,1.4c0,0.5-0.1,0.9-0.2,1.2c-0.2,0.4-0.4,0.7-0.7,0.9c0,0,0,0.1,0,0.1l1,3.5c0,0,0,0,0,0.1c0,0.1-0.1,0.2-0.2,0.2h-2
			C53.4,36.2,53.4,36.2,53.4,36.1z M52.6,29.5C52.5,29.5,52.5,29.5,52.6,29.5L52.5,31c0,0.1,0,0.1,0.1,0.1h0.2
			c0.2,0,0.3-0.1,0.5-0.2c0.1-0.1,0.2-0.3,0.2-0.6c0-0.3-0.1-0.5-0.2-0.6s-0.3-0.2-0.5-0.2H52.6z"/>
		<path class="st2" d="M61.6,27.8c0.4,0.2,0.7,0.6,0.9,1c0.2,0.4,0.3,0.9,0.3,1.5c0,0.5-0.1,1-0.3,1.4c-0.2,0.4-0.5,0.7-0.9,0.9
			S60.8,33,60.4,33h-0.7c0,0-0.1,0-0.1,0.1v3c0,0.1,0,0.1,0,0.1c0,0-0.1,0.1-0.1,0.1h-2c-0.1,0-0.1,0-0.1-0.1c0,0,0-0.1,0-0.1v-8.4
			c0-0.1,0-0.1,0-0.1s0.1-0.1,0.1-0.1h2.8C60.7,27.5,61.2,27.6,61.6,27.8z M60.3,30.9c0.1-0.1,0.2-0.3,0.2-0.6s-0.1-0.5-0.2-0.6
			c-0.1-0.1-0.3-0.2-0.5-0.2h-0.2c0,0-0.1,0-0.1,0.1v1.5c0,0,0,0.1,0.1,0.1h0.2C60,31.1,60.2,31.1,60.3,30.9z"/>
		<path class="st2" d="M67.5,36l-0.1-0.9c0,0,0,0,0-0.1c0,0,0,0-0.1,0h-1.1c0,0,0,0-0.1,0c0,0,0,0,0,0.1L66,36
			c0,0.1-0.1,0.2-0.2,0.2h-2c-0.1,0-0.2-0.1-0.2-0.2l1.8-8.4c0-0.1,0.1-0.2,0.2-0.2h2.3c0.1,0,0.2,0.1,0.2,0.2l1.8,8.4v0
			c0,0.1-0.1,0.2-0.2,0.2h-2C67.6,36.2,67.5,36.2,67.5,36z M66.4,33.2H67c0.1,0,0.1,0,0.1-0.1l-0.3-2.3c0,0,0-0.1,0-0.1s0,0,0,0.1
			L66.4,33.2C66.4,33.2,66.4,33.2,66.4,33.2z"/>
		<path class="st2" d="M72.2,36c-0.4-0.2-0.7-0.5-0.9-0.8C71.1,34.8,71,34.4,71,34v-0.4c0-0.1,0-0.1,0-0.1s0.1-0.1,0.1-0.1h2
			c0.1,0,0.1,0,0.1,0.1s0.1,0.1,0.1,0.1v0.3c0,0.1,0,0.2,0.1,0.3c0.1,0.1,0.2,0.1,0.3,0.1c0.1,0,0.2,0,0.2-0.1S74,34,74,33.9
			c0-0.1-0.1-0.3-0.2-0.4c-0.1-0.1-0.4-0.4-0.8-0.7c-0.4-0.3-0.8-0.6-1-0.8c-0.3-0.2-0.5-0.5-0.7-0.9c-0.2-0.4-0.3-0.8-0.3-1.3
			c0-0.5,0.1-0.9,0.3-1.3c0.2-0.4,0.5-0.7,0.9-0.9c0.4-0.2,0.9-0.3,1.4-0.3c0.5,0,1,0.1,1.4,0.3c0.4,0.2,0.7,0.5,0.9,0.9
			c0.2,0.4,0.3,0.8,0.3,1.3v0.3c0,0.1,0,0.1,0,0.1s-0.1,0-0.1,0h-1.9c-0.1,0-0.1,0-0.1,0c0,0-0.1-0.1-0.1-0.1v-0.3
			c0-0.1,0-0.2-0.1-0.3c-0.1-0.1-0.2-0.1-0.3-0.1c-0.1,0-0.2,0-0.3,0.1s-0.1,0.2-0.1,0.3c0,0.2,0.1,0.3,0.2,0.5
			c0.1,0.2,0.4,0.4,0.8,0.7c0.5,0.4,0.9,0.7,1.2,1c0.3,0.2,0.5,0.5,0.6,0.8s0.2,0.7,0.2,1.1c0,0.8-0.2,1.4-0.7,1.8
			c-0.5,0.5-1.1,0.7-1.9,0.7C73.1,36.3,72.6,36.2,72.2,36z"/>
		<path class="st2" d="M79,36c-0.4-0.2-0.7-0.5-0.9-0.8c-0.2-0.4-0.3-0.8-0.3-1.2v-0.4c0-0.1,0-0.1,0-0.1s0.1-0.1,0.1-0.1h2
			c0.1,0,0.1,0,0.1,0.1s0.1,0.1,0.1,0.1v0.3c0,0.1,0,0.2,0.1,0.3c0.1,0.1,0.2,0.1,0.3,0.1c0.1,0,0.2,0,0.2-0.1s0.1-0.2,0.1-0.3
			c0-0.1-0.1-0.3-0.2-0.4c-0.1-0.1-0.4-0.4-0.8-0.7c-0.4-0.3-0.8-0.6-1-0.8c-0.3-0.2-0.5-0.5-0.7-0.9c-0.2-0.4-0.3-0.8-0.3-1.3
			c0-0.5,0.1-0.9,0.3-1.3c0.2-0.4,0.5-0.7,0.9-0.9c0.4-0.2,0.9-0.3,1.4-0.3c0.5,0,1,0.1,1.4,0.3c0.4,0.2,0.7,0.5,0.9,0.9
			c0.2,0.4,0.3,0.8,0.3,1.3v0.3c0,0.1,0,0.1,0,0.1s-0.1,0-0.1,0h-1.9c-0.1,0-0.1,0-0.1,0c0,0-0.1-0.1-0.1-0.1v-0.3
			c0-0.1,0-0.2-0.1-0.3c-0.1-0.1-0.2-0.1-0.3-0.1c-0.1,0-0.2,0-0.3,0.1S80,29.7,80,29.8c0,0.2,0.1,0.3,0.2,0.5
			c0.1,0.2,0.4,0.4,0.8,0.7c0.5,0.4,0.9,0.7,1.2,1c0.3,0.2,0.5,0.5,0.6,0.8s0.2,0.7,0.2,1.1c0,0.8-0.2,1.4-0.7,1.8
			c-0.5,0.5-1.1,0.7-1.9,0.7C79.9,36.3,79.4,36.2,79,36z"/>
	</g>
	<path class="st2" d="M51.4,77.8l34-0.1c3.9,0,7.1-3.2,7.1-7.1V35.3c0-0.8-0.6-1.4-1.4-1.4s-1.4,0.6-1.4,1.4v35.3
		c0,2.4-1.9,4.3-4.3,4.3H49.9l0,0l-4.1,0H14.6c-2.4,0-4.3-1.9-4.3-4.3v-15V32.3v-7.8c0-2.4,1.9-4.3,4.3-4.3h21.2
		c0.8,0,1.4-0.6,1.4-1.4s-0.6-1.4-1.4-1.4H14.6c-3.9,0-7.1,3.2-7.1,7.1v7.8v23.4v15c0,3.9,3.2,7.1,7.1,7.1l31.2,0"/>
</g>
</svg>
