<?xml version="1.0" encoding="utf-8"?>
<!-- Generator: Adobe Illustrator 26.1.0, SVG Export Plug-In . SVG Version: 6.00 Build 0)  -->
<svg version="1.1" id="Layer_1" xmlns="http://www.w3.org/2000/svg" xmlns:xlink="http://www.w3.org/1999/xlink" x="0px" y="0px"
	 viewBox="0 0 100 100" style="enable-background:new 0 0 100 100;" xml:space="preserve">
<style type="text/css">
	.st0-tel{fill:#F5F7FF;}
	.st1-tel{fill:#D41C1B;}
	.st2-tel{clip-path:url(#SVGID_00000036217451429484086550000004156212269392699290_);fill:#2E1414;}
	.st3-tel{fill:#2E1414;}
</style>
<g>
	<path class="st0-tel" d="M18.1,15.5h69.1c2.2,0,4,1.8,4,4v54.5c0,2.2-1.8,4-4,4H18.1c-2.2,0-4-1.8-4-4V19.5
		C14.1,17.2,15.9,15.5,18.1,15.5L18.1,15.5z M18.1,15.5"/>
	<path class="st1-tel" d="M38,77.9H27.4c-2.9,0-5.3-2.4-5.3-5.3v4c0,2.9,2.4,5.3,5.3,5.3H38c2.9,0,5.3-2.4,5.3-5.3v-4
		C43.4,75.5,41,77.9,38,77.9L38,77.9z M38,77.9"/>
	<path class="st1-tel" d="M51.3,22.1h31.9c0.7,0,1.3,0.6,1.3,1.3v8c0,0.7-0.6,1.3-1.3,1.3H51.3c-0.7,0-1.3-0.6-1.3-1.3v-8
		C50,22.7,50.6,22.1,51.3,22.1L51.3,22.1z M51.3,22.1"/>
	<path class="st1-tel" d="M43.4,26.1c0,9.5-7.7,17.3-17.3,17.3S8.8,35.6,8.8,26.1S16.6,8.8,26.1,8.8S43.4,16.6,43.4,26.1L43.4,26.1z
		 M43.4,26.1"/>
	<path class="st0-tel" d="M38,26.1c0,6.6-5.4,12-12,12s-12-5.4-12-12s5.4-12,12-12S38,19.5,38,26.1L38,26.1z M38,26.1"/>
	<g>
		<defs>
			<rect id="SVGID_1_" x="7.5" y="7.5" width="85" height="85"/>
		</defs>
		<clipPath id="SVGID_00000114781980684916514220000005465453890759682442_">
			<use xlink:href="#SVGID_1_"  style="overflow:visible;"/>
		</clipPath>
		<path style="clip-path:url(#SVGID_00000114781980684916514220000005465453890759682442_);fill:#2E1414;" d="M91.2,42
			c-0.7,0-1.3,0.6-1.3,1.3V46c0,0.7,0.6,1.3,1.3,1.3c0.7,0,1.3-0.6,1.3-1.3v-2.7C92.5,42.6,91.9,42,91.2,42L91.2,42z M91.2,42"/>
		<path style="clip-path:url(#SVGID_00000114781980684916514220000005465453890759682442_);fill:#2E1414;" d="M87.2,14.1H40.3
			c-3.2-4-7.9-6.4-13-6.8c-5.1-0.4-10.1,1.3-13.9,4.8c-3.8,3.4-6,8.3-6.1,13.4c-0.1,5.1,1.9,10,5.5,13.6v34.8c0,1.9,1,3.6,2.7,4.6
			v4.7c0,5.1,4.2,9.3,9.3,9.3s9.3-4.2,9.3-9.3h4c2.6,0,5-1.6,6.1-4h43.1c2.9,0,5.3-2.4,5.3-5.3V51.3c0-0.7-0.6-1.3-1.3-1.3
			c-0.7,0-1.3,0.6-1.3,1.3v22.6c0,1.5-1.2,2.7-2.7,2.7H44.7V26.1c0-3.3-0.9-6.5-2.5-9.3h45c1.5,0,2.7,1.2,2.7,2.7V38
			c0,0.7,0.6,1.3,1.3,1.3c0.7,0,1.3-0.6,1.3-1.3V19.5C92.5,16.5,90.1,14.1,87.2,14.1L87.2,14.1z M26.1,10.2c6.4,0,12.3,3.9,14.7,9.8
			c2.5,6,1.1,12.8-3.5,17.4C32.8,41.9,26,43.3,20,40.8c-6-2.5-9.8-8.3-9.8-14.7C10.2,17.3,17.3,10.2,26.1,10.2L26.1,10.2z
			 M24.8,89.8c-3.7,0-6.6-3-6.6-6.6v-4h3.2c1.1,2.4,3.4,4,6.1,4h4C31.4,86.9,28.4,89.8,24.8,89.8L24.8,89.8z M42,76.6
			c0,2.2-1.8,4-4,4H27.4c-2.2,0-4-1.8-4-4V48.7c0-0.7-0.6-1.3-1.3-1.3c-0.7,0-1.3,0.6-1.3,1.3v27.9h-2.7c-1.5,0-2.7-1.2-2.7-2.7
			V41.3c4.2,3,9.5,4,14.5,2.9c5-1.1,9.4-4.2,12-8.7V76.6z M42,76.6"/>
	</g>
	<path class="st3-tel" d="M85.9,23.4c0-1.5-1.2-2.7-2.7-2.7H51.3c-1.5,0-2.7,1.2-2.7,2.7v8c0,1.5,1.2,2.7,2.7,2.7h31.9
		c1.5,0,2.7-1.2,2.7-2.7V23.4z M51.3,31.4v-8h31.9v8H51.3z M51.3,31.4"/>
	<path class="st3-tel" d="M59.3,40.7c0-2.2-1.8-4-4-4h-2.7c-2.2,0-4,1.8-4,4v2.7c0,2.2,1.8,4,4,4h2.7c2.2,0,4-1.8,4-4V40.7z M56.6,43.4
		c0,0.7-0.6,1.3-1.3,1.3h-2.7c-0.7,0-1.3-0.6-1.3-1.3v-2.7c0-0.7,0.6-1.3,1.3-1.3h2.7c0.7,0,1.3,0.6,1.3,1.3V43.4z M56.6,43.4"/>
	<path class="st3-tel" d="M72.6,40.7c0-2.2-1.8-4-4-4h-2.7c-2.2,0-4,1.8-4,4v2.7c0,2.2,1.8,4,4,4h2.7c2.2,0,4-1.8,4-4V40.7z M69.9,43.4
		c0,0.7-0.6,1.3-1.3,1.3h-2.7c-0.7,0-1.3-0.6-1.3-1.3v-2.7c0-0.7,0.6-1.3,1.3-1.3h2.7c0.7,0,1.3,0.6,1.3,1.3V43.4z M69.9,43.4"/>
	<path class="st3-tel" d="M85.9,40.7c0-2.2-1.8-4-4-4h-2.7c-2.2,0-4,1.8-4,4v2.7c0,2.2,1.8,4,4,4h2.7c2.2,0,4-1.8,4-4V40.7z M83.2,43.4
		c0,0.7-0.6,1.3-1.3,1.3h-2.7c-0.7,0-1.3-0.6-1.3-1.3v-2.7c0-0.7,0.6-1.3,1.3-1.3h2.7c0.7,0,1.3,0.6,1.3,1.3V43.4z M83.2,43.4"/>
	<path class="st3-tel" d="M59.3,54c0-2.2-1.8-4-4-4h-2.7c-2.2,0-4,1.8-4,4v2.7c0,2.2,1.8,4,4,4h2.7c2.2,0,4-1.8,4-4V54z M56.6,56.6
		c0,0.7-0.6,1.3-1.3,1.3h-2.7c-0.7,0-1.3-0.6-1.3-1.3V54c0-0.7,0.6-1.3,1.3-1.3h2.7c0.7,0,1.3,0.6,1.3,1.3V56.6z M56.6,56.6"/>
	<path class="st3-tel" d="M72.6,54c0-2.2-1.8-4-4-4h-2.7c-2.2,0-4,1.8-4,4v2.7c0,2.2,1.8,4,4,4h2.7c2.2,0,4-1.8,4-4V54z M69.9,56.6
		c0,0.7-0.6,1.3-1.3,1.3h-2.7c-0.7,0-1.3-0.6-1.3-1.3V54c0-0.7,0.6-1.3,1.3-1.3h2.7c0.7,0,1.3,0.6,1.3,1.3V56.6z M69.9,56.6"/>
	<path class="st3-tel" d="M85.9,54c0-2.2-1.8-4-4-4h-2.7c-2.2,0-4,1.8-4,4v2.7c0,2.2,1.8,4,4,4h2.7c2.2,0,4-1.8,4-4V54z M83.2,56.6
		c0,0.7-0.6,1.3-1.3,1.3h-2.7c-0.7,0-1.3-0.6-1.3-1.3V54c0-0.7,0.6-1.3,1.3-1.3h2.7c0.7,0,1.3,0.6,1.3,1.3V56.6z M83.2,56.6"/>
	<path class="st3-tel" d="M55.3,63.3h-2.7c-2.2,0-4,1.8-4,4v2.7c0,2.2,1.8,4,4,4h2.7c2.2,0,4-1.8,4-4v-2.7
		C59.3,65.1,57.5,63.3,55.3,63.3L55.3,63.3z M56.6,69.9c0,0.7-0.6,1.3-1.3,1.3h-2.7c-0.7,0-1.3-0.6-1.3-1.3v-2.7
		c0-0.7,0.6-1.3,1.3-1.3h2.7c0.7,0,1.3,0.6,1.3,1.3V69.9z M56.6,69.9"/>
	<path class="st3-tel" d="M68.6,63.3h-2.7c-2.2,0-4,1.8-4,4v2.7c0,2.2,1.8,4,4,4h2.7c2.2,0,4-1.8,4-4v-2.7
		C72.6,65.1,70.8,63.3,68.6,63.3L68.6,63.3z M69.9,69.9c0,0.7-0.6,1.3-1.3,1.3h-2.7c-0.7,0-1.3-0.6-1.3-1.3v-2.7
		c0-0.7,0.6-1.3,1.3-1.3h2.7c0.7,0,1.3,0.6,1.3,1.3V69.9z M69.9,69.9"/>
	<path class="st3-tel" d="M81.9,63.3h-2.7c-2.2,0-4,1.8-4,4v2.7c0,2.2,1.8,4,4,4h2.7c2.2,0,4-1.8,4-4v-2.7
		C85.9,65.1,84.1,63.3,81.9,63.3L81.9,63.3z M83.2,69.9c0,0.7-0.6,1.3-1.3,1.3h-2.7c-0.7,0-1.3-0.6-1.3-1.3v-2.7
		c0-0.7,0.6-1.3,1.3-1.3h2.7c0.7,0,1.3,0.6,1.3,1.3V69.9z M83.2,69.9"/>
	<path class="st3-tel" d="M26.1,39.4c5.4,0,10.2-3.2,12.3-8.2c2.1-5,0.9-10.7-2.9-14.5c-3.8-3.8-9.5-4.9-14.5-2.9
		c-5,2.1-8.2,6.9-8.2,12.3C12.8,33.4,18.8,39.4,26.1,39.4L26.1,39.4z M26.1,15.5c4.3,0,8.2,2.6,9.8,6.6c1.6,4,0.7,8.5-2.3,11.6
		c-3,3-7.6,3.9-11.6,2.3c-4-1.6-6.6-5.5-6.6-9.8C15.5,20.2,20.2,15.5,26.1,15.5L26.1,15.5z M26.1,15.5"/>
	<path class="st1-tel" d="M23.4,30.1c-0.5,0-1-0.3-1.2-0.8c-0.2-0.5-0.1-1.1,0.3-1.5l2.3-2.3v-4.8c0-0.7,0.6-1.3,1.3-1.3
		s1.3,0.6,1.3,1.3v5.3c0,0.4-0.1,0.7-0.4,0.9C24.1,29.9,24.2,30.1,23.4,30.1L23.4,30.1z M23.4,30.1"/>
	<path class="st0-tel" d="M28.7,71.2h8c0.7,0,1.3-0.6,1.3-1.3c0-0.7-0.6-1.3-1.3-1.3h-8c-0.7,0-1.3,0.6-1.3,1.3
		C27.4,70.7,28,71.2,28.7,71.2L28.7,71.2z M28.7,71.2"/>
</g>
</svg>
