<?xml version="1.0" encoding="utf-8"?>
<!-- Generator: Adobe Illustrator 26.1.0, SVG Export Plug-In . SVG Version: 6.00 Build 0)  -->
<svg version="1.1" id="Layer_1" xmlns="http://www.w3.org/2000/svg" xmlns:xlink="http://www.w3.org/1999/xlink" x="0px" y="0px"
	 viewBox="0 0 100 100" style="enable-background:new 0 0 100 100;" xml:space="preserve">
<style type="text/css">
	.st0-voucher{fill:#D41C1B;}
	.st1-voucher{fill:#2E1414;}
	.st2-voucher{fill:#F8F9F9;}
</style>
<g>
	<path class="st0-voucher" d="M57.4,61.1c-0.8,0-1.4-0.4-1.7-1.1c-0.3-0.7-0.1-1.5,0.4-2l18.5-18.5c0.7-0.7,1.9-0.7,2.6,0
		c0.7,0.7,0.7,1.9,0,2.6L58.7,60.6C58.4,60.9,57.9,61.1,57.4,61.1L57.4,61.1z M57.4,61.1"/>
	<path class="st0-voucher" d="M44.5,72.2c-1,0-1.8-0.8-1.8-1.8v-5.5c0-1,0.8-1.8,1.8-1.8s1.8,0.8,1.8,1.8v5.5C46.3,71.3,45.5,72.2,44.5,72.2
		L44.5,72.2z M44.5,72.2"/>
	<path class="st0-voucher" d="M44.5,59.2c-1,0-1.8-0.8-1.8-1.8v-3.7c0-1,0.8-1.8,1.8-1.8s1.8,0.8,1.8,1.8v3.7C46.3,58.4,45.5,59.2,44.5,59.2
		L44.5,59.2z M44.5,59.2"/>
	<path class="st0-voucher" d="M44.5,37.1c-1,0-1.8-0.8-1.8-1.8v-5.5c0-1,0.8-1.8,1.8-1.8s1.8,0.8,1.8,1.8v5.5C46.3,36.2,45.5,37.1,44.5,37.1
		L44.5,37.1z M44.5,37.1"/>
	<path class="st0-voucher" d="M44.5,48.2c-1,0-1.8-0.8-1.8-1.8v-3.7c0-1,0.8-1.8,1.8-1.8s1.8,0.8,1.8,1.8v3.7C46.3,47.3,45.5,48.2,44.5,48.2
		L44.5,48.2z M44.5,48.2"/>
	<g>
		<path class="st0-voucher" d="M90.7,55.5v14.8H68.5L90.7,55.5z M90.7,55.5"/>
		<path class="st1-voucher" d="M90.7,72.2H9.3c-1,0-1.8-0.8-1.8-1.8V56.4c0-0.7,0.4-1.3,0.9-1.6c1.7-1,2.7-2.8,2.7-4.8c0-2-1-3.8-2.7-4.8
			c-0.6-0.3-0.9-0.9-0.9-1.6V29.7c0-1,0.8-1.8,1.8-1.8h81.3c1,0,1.8,0.8,1.8,1.8v13.9c0,0.7-0.4,1.3-0.9,1.6c-1.7,1-2.7,2.8-2.7,4.8
			c0,2,1,3.8,2.7,4.8c0.6,0.3,0.9,0.9,0.9,1.6v13.9C92.5,71.3,91.7,72.2,90.7,72.2L90.7,72.2z M11.2,68.5h77.6V57.4
			c-2.3-1.7-3.7-4.5-3.7-7.4c0-2.9,1.4-5.6,3.7-7.4V31.5H11.2v11.1c2.3,1.7,3.7,4.5,3.7,7.4c0,2.9-1.4,5.6-3.7,7.4V68.5z M11.2,68.5
			"/>
	</g>
	<path class="st0-voucher" d="M77.7,57.4c0,2-1.7,3.7-3.7,3.7c-2,0-3.7-1.7-3.7-3.7s1.7-3.7,3.7-3.7C76.1,53.7,77.7,55.4,77.7,57.4
		L77.7,57.4z M77.7,57.4"/>
	<path class="st0-voucher" d="M62.9,42.6c0,2-1.7,3.7-3.7,3.7c-2,0-3.7-1.7-3.7-3.7s1.7-3.7,3.7-3.7C61.3,38.9,62.9,40.6,62.9,42.6
		L62.9,42.6z M62.9,42.6"/>
	<path class="st0-voucher" d="M27.8,44.5c-1,0-1.1-0.3-5-4.2c-0.7-0.7-0.7-1.9,0-2.6c0.7-0.7,1.9-0.7,2.6,0l2.4,2.4l2.4-2.4
		c0.7-0.7,1.9-0.7,2.6,0c0.7,0.7,0.7,1.9,0,2.6C28.8,44.3,28.8,44.5,27.8,44.5L27.8,44.5z M27.8,44.5"/>
	<path class="st0-voucher" d="M35.2,62.9H20.4c-1,0-1.8-0.8-1.8-1.8c0-1,0.8-1.8,1.8-1.8h14.8c1,0,1.8,0.8,1.8,1.8
		C37.1,62.1,36.2,62.9,35.2,62.9L35.2,62.9z M35.2,62.9"/>
	<path class="st0-voucher" d="M20.4,40.8h14.8c1,0,1.8,0.8,1.8,1.8v11.1c0,1-0.8,1.8-1.8,1.8H20.4c-1,0-1.8-0.8-1.8-1.8V42.6
		C18.6,41.6,19.4,40.8,20.4,40.8L20.4,40.8z M20.4,40.8"/>
	<rect x="26" y="40.8" class="st2-voucher" width="3.7" height="5.5"/>
</g>
</svg>
