<?xml version="1.0" encoding="utf-8"?>
<!-- Generator: Adobe Illustrator 26.1.0, SVG Export Plug-In . SVG Version: 6.00 Build 0)  -->
<svg version="1.1" id="Layer_1" xmlns="http://www.w3.org/2000/svg" xmlns:xlink="http://www.w3.org/1999/xlink" x="0px" y="0px"
	 viewBox="0 0 100 100" style="enable-background:new 0 0 100 100;" xml:space="preserve">
<style type="text/css">
	.st0-kultur{fill:#D41C1B;}
	.st1-kultur{fill:#F5F7FF;}
	.st2-kultur{fill:#2E1414;}
	.st3-kultur{fill:none;}
	.st4-kultur{font-family:'BarlowCondensed-Black';}
	.st5-kultur{font-size:12.8192px;}
	.st6-kultur{letter-spacing:1;}
</style>
<g>
	<path class="st0-kultur" d="M65.5,24.5h17c1.6,0,2.8,1.3,2.8,2.8V50c0,1.6-1.3,2.8-2.8,2.8h-17c-1.6,0-2.8-1.3-2.8-2.8V27.3
		C62.7,25.7,64,24.5,65.5,24.5L65.5,24.5z M65.5,24.5"/>
	<path class="st1-kultur" d="M79.6,40.9c1.7-2.1,2-5,0.8-7.5c-1.2-2.4-3.7-4-6.4-4s-5.2,1.5-6.4,4c-1.2,2.4-0.9,5.3,0.8,7.5
		c-3,1.7-5.1,6.6-5.7,10c0.4,1.2,1.5,2,2.8,2h17c1.2,0,2.3-0.8,2.7-1.9C84.7,47.5,82.6,42.6,79.6,40.9L79.6,40.9z M79.6,40.9"/>
	<path class="st1-kultur" d="M82.6,82.6"/>
	<path class="st1-kultur" d="M17.3,28.7"/>
	<rect x="34.6" y="64.2" class="st0-kultur" width="11.4" height="5.7"/>
	<path class="st2-kultur" d="M49.9,20.2h35.5c2.4,0,4.3,1.9,4.3,4.3v35.3c0,0.8,0.6,1.4,1.4,1.4c0.8,0,1.4-0.6,1.4-1.4V24.5
		c0-3.9-3.2-7.1-7.1-7.1H49.9c-0.8,0-1.4,0.6-1.4,1.4C48.5,19.6,49.2,20.2,49.9,20.2L49.9,20.2z M49.9,20.2"/>
	<path class="st2-kultur" d="M41.4,20.2h2.8c0.8,0,1.4-0.6,1.4-1.4c0-0.8-0.6-1.4-1.4-1.4h-2.8c-0.8,0-1.4,0.6-1.4,1.4
		C40,19.6,40.6,20.2,41.4,20.2L41.4,20.2z M41.4,20.2"/>
	<g>
		<path class="st2-kultur" d="M86.8,50V27.3c0-2.4-1.9-4.3-4.3-4.3h-17c-2.4,0-4.3,1.9-4.3,4.3V50c0,2.4,1.9,4.3,4.3,4.3h17
			C84.9,54.3,86.8,52.4,86.8,50L86.8,50z M64.1,50V27.3c0-0.8,0.6-1.4,1.4-1.4h17c0.8,0,1.4,0.6,1.4,1.4V50c0,0.8-0.6,1.4-1.4,1.4
			h-17C64.8,51.4,64.1,50.8,64.1,50L64.1,50z M64.1,50"/>
	</g>
	<path class="st2-kultur" d="M55.6,42.9h-27c-0.8,0-1.4,0.6-1.4,1.4c0,0.8,0.6,1.4,1.4,1.4h27c0.8,0,1.4-0.6,1.4-1.4
		C57,43.5,56.4,42.9,55.6,42.9L55.6,42.9z M55.6,42.9"/>
	<path class="st2-kultur" d="M55.6,50h-27c-0.8,0-1.4,0.6-1.4,1.4c0,0.8,0.6,1.4,1.4,1.4h27c0.8,0,1.4-0.6,1.4-1.4C57,50.6,56.4,50,55.6,50
		L55.6,50z M55.6,50"/>
	<path class="st2-kultur" d="M55.6,57.1h-27c-0.8,0-1.4,0.6-1.4,1.4c0,0.8,0.6,1.4,1.4,1.4h27c0.8,0,1.4-0.6,1.4-1.4
		C57,57.7,56.4,57.1,55.6,57.1L55.6,57.1z M55.6,57.1"/>
	<path class="st2-kultur" d="M14.5,45.7h7.1c0.8,0,1.4-0.6,1.4-1.4c0-0.8-0.6-1.4-1.4-1.4h-7.1c-0.8,0-1.4,0.6-1.4,1.4
		C13,45.1,13.7,45.7,14.5,45.7L14.5,45.7z M14.5,45.7"/>
	<path class="st2-kultur" d="M14.5,52.8h7.1c0.8,0,1.4-0.6,1.4-1.4c0-0.8-0.6-1.4-1.4-1.4h-7.1c-0.8,0-1.4,0.6-1.4,1.4
		C13,52.2,13.7,52.8,14.5,52.8L14.5,52.8z M14.5,52.8"/>
	<path class="st2-kultur" d="M23,58.5c0-0.8-0.6-1.4-1.4-1.4h-7.1c-0.8,0-1.4,0.6-1.4,1.4c0,0.8,0.6,1.4,1.4,1.4h7.1
		C22.3,59.9,23,59.3,23,58.5L23,58.5z M23,58.5"/>
	<path class="st2-kultur" d="M14.5,68.4c-0.8,0-1.4,0.6-1.4,1.4s0.6,1.4,1.4,1.4h2.8c0.8,0,1.4-0.6,1.4-1.4s-0.6-1.4-1.4-1.4H14.5z
		 M14.5,68.4"/>
	<path class="st2-kultur" d="M23,71.3h2.8c0.8,0,1.4-0.6,1.4-1.4s-0.6-1.4-1.4-1.4H23c-0.8,0-1.4,0.6-1.4,1.4S22.2,71.3,23,71.3L23,71.3z
		 M23,71.3"/>
	<path class="st2-kultur" d="M62.7,57.1c-0.8,0-1.4,0.6-1.4,1.4c0,0.8,0.6,1.4,1.4,1.4h2.8c0.8,0,1.4-0.6,1.4-1.4c0-0.8-0.6-1.4-1.4-1.4
		H62.7z M62.7,57.1"/>
	<path class="st2-kultur" d="M71.2,57.1c-0.8,0-1.4,0.6-1.4,1.4c0,0.8,0.6,1.4,1.4,1.4h2.8c0.8,0,1.4-0.6,1.4-1.4c0-0.8-0.6-1.4-1.4-1.4
		H71.2z M71.2,57.1"/>
	<path class="st2-kultur" d="M46,62.8H34.6c-0.8,0-1.4,0.6-1.4,1.4v5.7c0,0.8,0.6,1.4,1.4,1.4H46c0.8,0,1.4-0.6,1.4-1.4v-5.7
		C47.4,63.4,46.8,62.8,46,62.8L46,62.8z M44.6,68.4h-8.5v-2.8h8.5V68.4z M44.6,68.4"/>
	<rect x="13" y="25.3" class="st3-kultur" width="44.1" height="27"/>
	<text transform="matrix(1 0 0 1 16.5097 34.2553)"><tspan x="0" y="0" class="st0-kultur st4-kultur st5-kultur st6-kultur">KULTU</tspan><tspan x="15.5" y="15.4" class="st0-kultur st4-kultur st5-kultur st6-kultur">R</tspan></text>
	<g>
		<path class="st0-kultur" d="M57.6,65.1c0.6,0.4,1,0.9,1.4,1.5s0.5,1.4,0.5,2.2c0,0.8-0.2,1.5-0.5,2.1c-0.3,0.6-0.7,1.1-1.3,1.4
			c-0.6,0.3-1.2,0.5-1.9,0.5h-1.1c-0.1,0-0.1,0-0.1,0.1v4.5c0,0.1,0,0.2-0.1,0.2c-0.1,0.1-0.1,0.1-0.2,0.1h-3c-0.1,0-0.2,0-0.2-0.1
			c-0.1-0.1-0.1-0.1-0.1-0.2V64.8c0-0.1,0-0.2,0.1-0.2c0-0.1,0.1-0.1,0.2-0.1h4.2C56.4,64.5,57,64.7,57.6,65.1z M55.7,69.7
			c0.2-0.2,0.3-0.5,0.3-0.9c0-0.4-0.1-0.7-0.3-0.9c-0.2-0.2-0.4-0.3-0.7-0.3h-0.2c-0.1,0-0.1,0-0.1,0.1v2.3c0,0.1,0,0.1,0.1,0.1H55
			C55.3,70,55.5,69.9,55.7,69.7z"/>
		<path class="st0-kultur" d="M67.3,77.4L67.1,76c0,0,0-0.1,0-0.1c0,0-0.1,0-0.1,0h-1.7c0,0-0.1,0-0.1,0c0,0,0,0.1,0,0.1L65,77.4
			c0,0.2-0.1,0.3-0.3,0.3h-2.9c-0.2,0-0.3-0.1-0.2-0.3l2.7-12.6c0-0.2,0.1-0.2,0.3-0.2h3.4c0.2,0,0.3,0.1,0.3,0.2l2.7,12.6v0.1
			c0,0.1-0.1,0.2-0.3,0.2h-3C67.4,77.6,67.3,77.6,67.3,77.4z M65.7,73.2h0.9c0.1,0,0.1,0,0.1-0.1l-0.5-3.4c0-0.1,0-0.1-0.1-0.1
			c0,0,0,0-0.1,0.1l-0.5,3.4C65.6,73.1,65.6,73.2,65.7,73.2z"/>
		<path class="st0-kultur" d="M75.2,77.3c-0.6-0.3-1.1-0.7-1.4-1.2c-0.3-0.5-0.5-1.1-0.5-1.8v-0.6c0-0.1,0-0.2,0.1-0.2c0,0,0.1-0.1,0.2-0.1
			h2.9c0.1,0,0.2,0,0.2,0.1c0.1,0.1,0.1,0.1,0.1,0.2v0.4c0,0.2,0.1,0.4,0.1,0.5c0.1,0.1,0.2,0.2,0.4,0.2c0.2,0,0.3-0.1,0.4-0.2
			c0.1-0.1,0.1-0.3,0.1-0.4c0-0.2-0.1-0.4-0.3-0.6c-0.2-0.2-0.6-0.5-1.3-1c-0.6-0.4-1.1-0.8-1.5-1.2C74.3,71,74,70.5,73.7,70
			c-0.3-0.6-0.5-1.2-0.5-1.9c0-0.7,0.2-1.4,0.5-2c0.3-0.6,0.8-1,1.4-1.3c0.6-0.3,1.3-0.5,2.1-0.5c0.8,0,1.5,0.2,2.1,0.5
			c0.6,0.3,1.1,0.7,1.4,1.3c0.3,0.6,0.5,1.2,0.5,2v0.4c0,0.1,0,0.2-0.1,0.2c-0.1,0.1-0.1,0.1-0.2,0.1H78c-0.1,0-0.2,0-0.2-0.1
			c-0.1,0-0.1-0.1-0.1-0.2V68c0-0.2-0.1-0.3-0.1-0.5c-0.1-0.1-0.2-0.2-0.4-0.2c-0.2,0-0.3,0.1-0.4,0.2c-0.1,0.1-0.1,0.3-0.1,0.5
			c0,0.3,0.1,0.5,0.3,0.7c0.2,0.2,0.6,0.6,1.2,1c0.8,0.6,1.4,1.1,1.8,1.4c0.4,0.4,0.7,0.8,1,1.2c0.2,0.5,0.3,1,0.3,1.6
			c0,1.1-0.4,2-1.1,2.7c-0.7,0.7-1.7,1-2.9,1C76.5,77.8,75.8,77.6,75.2,77.3z"/>
		<path class="st0-kultur" d="M86.1,77.3c-0.6-0.3-1.1-0.7-1.4-1.2c-0.3-0.5-0.5-1.1-0.5-1.8v-0.6c0-0.1,0-0.2,0.1-0.2c0,0,0.1-0.1,0.2-0.1
			h2.9c0.1,0,0.2,0,0.2,0.1c0.1,0.1,0.1,0.1,0.1,0.2v0.4c0,0.2,0.1,0.4,0.1,0.5c0.1,0.1,0.2,0.2,0.4,0.2c0.2,0,0.3-0.1,0.4-0.2
			c0.1-0.1,0.1-0.3,0.1-0.4c0-0.2-0.1-0.4-0.3-0.6s-0.6-0.5-1.3-1c-0.6-0.4-1.1-0.8-1.5-1.2c-0.4-0.4-0.8-0.8-1.1-1.4
			c-0.3-0.6-0.5-1.2-0.5-1.9c0-0.7,0.2-1.4,0.5-2c0.3-0.6,0.8-1,1.4-1.3c0.6-0.3,1.3-0.5,2.1-0.5c0.8,0,1.5,0.2,2.1,0.5
			c0.6,0.3,1.1,0.7,1.4,1.3c0.3,0.6,0.5,1.2,0.5,2v0.4c0,0.1,0,0.2-0.1,0.2c-0.1,0.1-0.1,0.1-0.2,0.1H89c-0.1,0-0.2,0-0.2-0.1
			c-0.1,0-0.1-0.1-0.1-0.2V68c0-0.2-0.1-0.3-0.1-0.5c-0.1-0.1-0.2-0.2-0.4-0.2c-0.2,0-0.3,0.1-0.4,0.2c-0.1,0.1-0.1,0.3-0.1,0.5
			c0,0.3,0.1,0.5,0.3,0.7c0.2,0.2,0.6,0.6,1.2,1c0.8,0.6,1.4,1.1,1.8,1.4c0.4,0.4,0.7,0.8,1,1.2c0.2,0.5,0.3,1,0.3,1.6
			c0,1.1-0.4,2-1.1,2.7c-0.7,0.7-1.7,1-2.9,1C87.4,77.8,86.7,77.6,86.1,77.3z"/>
	</g>
	<path class="st2-kultur" d="M45.8,74.9H14.6c-2.4,0-4.3-1.9-4.3-4.3v-15V32.3v-7.8c0-2.4,1.9-4.3,4.3-4.3h21.2c0.8,0,1.4-0.6,1.4-1.4
		s-0.6-1.4-1.4-1.4H14.6c-3.9,0-7.1,3.2-7.1,7.1v7.8v23.4v15c0,3.9,3.2,7.1,7.1,7.1h31.2c0.8,0,1.4-0.6,1.4-1.4
		C47.2,75.5,46.6,74.9,45.8,74.9z"/>
</g>
</svg>
