<?xml version="1.0" encoding="utf-8"?>
<!-- Generator: Adobe Illustrator 26.1.0, SVG Export Plug-In . SVG Version: 6.00 Build 0)  -->
<svg version="1.1" id="Layer_1" xmlns="http://www.w3.org/2000/svg" xmlns:xlink="http://www.w3.org/1999/xlink" x="0px" y="0px"
	 viewBox="0 0 100 100" style="enable-background:new 0 0 100 100;" xml:space="preserve">
<style type="text/css">
	.st0-store{fill:#D41C1B;}
	.st1-store{fill:#2E1414;}
	.st2-store{fill:#FFFFFF;}
</style>
<circle class="st0-store" cx="50" cy="42.6" r="26"/>
<ellipse class="st0-store" cx="50" cy="93" rx="31.7" ry="3"/>
<g>
	<g>
		<path class="st1-store" d="M62.1,76.9c0.2-0.3,0.5-0.5,0.8-0.6C76.3,71,85.2,58,85.2,43.6l0,0c0-13.1-7.3-25-18.8-31.1
			c-11.6-6.1-25.5-5.2-36.3,2.3C19.4,22.2,13.7,35,15.3,47.9c1.6,13,10.3,24,22.5,28.5l10.8,15.8c0.7,1,2.2,1,2.9,0L62.1,76.9z
			 M50.1,88.3c-10.4-15.7-9.7-14.8-10.5-15.1c-14.4-5.1-23-19.9-20.4-34.9c2.6-15.1,15.7-26.1,31-26.1s28.4,11,31,26.1
			c2.6,15.1-6,29.8-20.4,34.9C59.8,73.5,60.5,72.7,50.1,88.3L50.1,88.3z M50.1,88.3"/>
	</g>
</g>
<g>
	<path class="st2-store" d="M63.1,58.3H37.2c-1,0-1.8-0.8-1.8-1.8V38c0-1,0.8-1.8,1.8-1.8S39,37,39,38v16.6h22.2V38c0-1,0.8-1.8,1.8-1.8
		c1,0,1.8,0.8,1.8,1.8v18.5C64.9,57.5,64.1,58.3,63.1,58.3L63.1,58.3z M63.1,58.3"/>
	<rect x="42.7" y="47.3" class="st2-store" width="5.5" height="7.4"/>
	<rect x="52" y="47.3" class="st2-store" width="5.5" height="3.7"/>
	<path class="st2-store" d="M66.7,36.2V38c0,3.1-2.5,5.5-5.5,5.5s-5.5-2.5-5.5-5.5c0,3.1-2.5,5.5-5.5,5.5c-3.1,0-5.5-2.5-5.5-5.5
		c0,3.1-2.5,5.5-5.5,5.5c-3.1,0-5.5-2.5-5.5-5.5v-1.8l3.7-7.4h25.9L66.7,36.2z M66.7,36.2"/>
</g>
</svg>
