<?xml version="1.0" encoding="utf-8"?>
<!-- Generator: Adobe Illustrator 26.1.0, SVG Export Plug-In . SVG Version: 6.00 Build 0)  -->
<svg version="1.1" id="Layer_1" xmlns="http://www.w3.org/2000/svg" xmlns:xlink="http://www.w3.org/1999/xlink" x="0px" y="0px"
	 viewBox="0 0 100 100" style="enable-background:new 0 0 100 100;" xml:space="preserve">
<style type="text/css">
	.st0-warranty{fill:#CCD3EB;}
	.st1-warranty{fill:#D41C1B;}
	.st2-warranty{fill:#FFFFFF;}
	.st3-warranty{fill:#F5F7FF;}
	.st4-warranty{fill:#2E1414;}
</style>
<g>
	<path class="st0-warranty" d="M70.9,62"/>
	<path class="st1-warranty" d="M68.6,91.2h22.6l-4-9.3l4-9.3H68.6V91.2z M68.6,91.2"/>
	<path class="st1-warranty" d="M77.9,84.5l-9.3,6.6v-6.6H77.9z M77.9,84.5"/>
	<path class="st1-warranty" d="M31.4,91.2H8.8l4-9.3l-4-9.3h22.6V91.2z M31.4,91.2"/>
	<path class="st2-warranty" d="M24.8,65.9h50.5c1.5,0,2.7,1.2,2.7,2.7v15.9H22.1V68.6C22.1,67.1,23.3,65.9,24.8,65.9L24.8,65.9z M24.8,65.9"
		/>
	<path class="st3-warranty" d="M43.4,77.9"/>
	<path class="st3-warranty" d="M64.6,75.2"/>
	<path class="st1-warranty" d="M22.1,84.5l9.3,6.6v-6.6H22.1z M22.1,84.5"/>
	<path class="st1-warranty" d="M67.3,43.4c0,9.5-7.7,17.3-17.3,17.3s-17.3-7.7-17.3-17.3S40.5,26.1,50,26.1S67.3,33.8,67.3,43.4L67.3,43.4z
		 M67.3,43.4"/>
	<path class="st3-warranty" d="M62,43.4"/>
	<path class="st3-warranty" d="M47.8,50.1c-1.2,0-1.3-0.3-6-5.1c-0.9-0.9-0.9-2.3,0-3.2c0.9-0.9,2.3-0.9,3.2,0l2.9,2.9l7.3-7.4
		c0.9-0.9,2.3-0.9,3.2,0c0.9,0.9,0.9,2.3,0,3.2l-8.9,8.9C48.9,49.8,48.4,50.1,47.8,50.1L47.8,50.1z M47.8,50.1"/>
	<g>
		<path class="st4-warranty" d="M76,51.4c-0.7-0.2-1.4,0.1-1.7,0.8c-0.3,0.9-0.6,1.7-1,2.6c-0.3,0.7,0,1.5,0.7,1.8c0.7,0.3,1.5,0,1.8-0.7
			c0.4-0.9,0.7-1.8,1.1-2.7C77.1,52.4,76.7,51.7,76,51.4L76,51.4z M76,51.4"/>
	</g>
	<path class="st4-warranty" d="M31.4,43.4c0,7.5,4.5,14.3,11.5,17.2c6.9,2.9,14.9,1.3,20.3-4c5.3-5.3,6.9-13.3,4-20.3
		c-2.9-6.9-9.7-11.5-17.2-11.5C39.7,24.8,31.4,33.1,31.4,43.4L31.4,43.4z M65.9,43.4c0,6.4-3.9,12.3-9.8,14.7
		c-6,2.5-12.8,1.1-17.4-3.5c-4.6-4.6-5.9-11.4-3.5-17.4c2.5-6,8.3-9.8,14.7-9.8C58.8,27.4,65.9,34.6,65.9,43.4L65.9,43.4z
		 M65.9,43.4"/>
</g>
<path class="st4-warranty" d="M88.6,81.9l3.8-8.8c0.2-0.4,0.1-0.9-0.1-1.3c-0.2-0.4-0.7-0.6-1.1-0.6h-12v-2.7c0-2.2-1.8-4-4-4h-4.6
	c0.8-1.1,1.6-2.2,2.3-3.3c0.2-0.3,0.2-0.7,0.2-1c-0.1-0.3-0.3-0.6-0.6-0.8c-0.6-0.4-1.4-0.2-1.8,0.4c-1,1.6-2.2,3.2-3.4,4.7H32.7
	c-6-7.1-9.3-16.1-9.3-25.4V25.8c10-2.7,19.1-7.9,26.6-15.1c7.4,7.2,16.6,12.4,26.6,15.1c0,13.6,0.2,16.2-0.8,21.2
	c-0.1,0.7,0.3,1.4,1.1,1.6c0.7,0.1,1.4-0.3,1.6-1.1c1.1-5.3,0.8-7.6,0.8-22.8c0-0.6-0.4-1.2-1-1.3c-10.4-2.6-19.8-7.9-27.3-15.5
	c-0.2-0.3-0.6-0.4-0.9-0.4c-0.4,0-0.7,0.1-0.9,0.4c-7.5,7.6-16.9,13-27.3,15.6c-0.6,0.1-1,0.7-1,1.3v14.4c0,9.2,3,18.1,8.6,25.4
	h-4.6c-2.2,0-4,1.8-4,4v2.7h-12c-0.4,0-0.9,0.2-1.1,0.6c-0.2,0.4-0.3,0.8-0.1,1.3l3.8,8.8l-3.8,8.8c-0.2,0.4-0.1,0.9,0.1,1.3
	c0.2,0.4,0.7,0.6,1.1,0.6h22.6c0.7,0,1.3-0.6,1.3-1.3v-6.6c0-0.7-0.6-1.3-1.3-1.3h-8V68.6c0-0.7,0.6-1.3,1.3-1.3h50.5
	c0.7,0,1.3,0.6,1.3,1.3v14.6H36.7c-0.7,0-1.3,0.6-1.3,1.3c0,0.7,0.6,1.3,1.3,1.3h30.5v5.3c0,0.7,0.6,1.3,1.3,1.3h22.6
	c0.4,0,0.9-0.2,1.1-0.6c0.2-0.4,0.3-0.8,0.1-1.3L88.6,81.9z M30.1,88.3l-3.6-2.4h3.6V88.3z M14,82.4c0.1-0.3,0.1-0.7,0-1l-3.2-7.5
	h9.9v10.6c0,0.4,0.2,0.9,0.6,1.1l6.3,4.2H10.9L14,82.4z M73.5,85.9l-3.6,2.4v-2.4H73.5z M72.3,89.8l6.3-4.2c0.4-0.2,0.6-0.7,0.6-1.1
	V73.9h9.9L86,81.4c-0.1,0.3-0.1,0.7,0,1l3.2,7.5H72.3z M72.3,89.8"/>
<g>
	<path class="st1-warranty" d="M33,79.5c0,0,0-0.1,0-0.1v-8.1c0-0.1,0-0.1,0-0.1c0,0,0.1,0,0.1,0h1.9c0.1,0,0.1,0,0.1,0c0,0,0,0.1,0,0.1v6.3
		c0,0,0,0.1,0.1,0.1h2.4c0.1,0,0.1,0,0.1,0s0,0.1,0,0.1v1.6c0,0.1,0,0.1,0,0.1s-0.1,0-0.1,0h-4.5C33.1,79.6,33.1,79.6,33,79.5z"/>
	<path class="st1-warranty" d="M43.7,79.5c0,0,0-0.1,0-0.1v-8.1c0-0.1,0-0.1,0-0.1c0,0,0.1,0,0.1,0h1.9c0.1,0,0.1,0,0.1,0c0,0,0,0.1,0,0.1
		v8.1c0,0.1,0,0.1,0,0.1c0,0-0.1,0-0.1,0h-1.9C43.8,79.6,43.7,79.6,43.7,79.5z"/>
	<path class="st1-warranty" d="M56.6,73c0,0-0.1,0-0.1,0h-2.3c0,0-0.1,0-0.1,0.1v1.2c0,0,0,0.1,0.1,0.1h1.2c0.1,0,0.1,0,0.1,0s0,0.1,0,0.1
		v1.6c0,0.1,0,0.1,0,0.1c0,0-0.1,0-0.1,0h-1.2c0,0-0.1,0-0.1,0.1v3c0,0.1,0,0.1,0,0.1s-0.1,0-0.1,0H52c-0.1,0-0.1,0-0.1,0
		s0-0.1,0-0.1v-8.1c0-0.1,0-0.1,0-0.1c0,0,0.1,0,0.1,0h4.5c0.1,0,0.1,0,0.1,0c0,0,0,0.1,0,0.1v1.6C56.6,72.9,56.6,72.9,56.6,73z"/>
	<path class="st1-warranty" d="M67,73c0,0-0.1,0-0.1,0h-2.3c0,0-0.1,0-0.1,0.1v1.2c0,0,0,0.1,0.1,0.1h1.2c0.1,0,0.1,0,0.1,0s0,0.1,0,0.1v1.6
		c0,0.1,0,0.1,0,0.1c0,0-0.1,0-0.1,0h-1.2c0,0-0.1,0-0.1,0.1v1.2c0,0,0,0.1,0.1,0.1h2.3c0.1,0,0.1,0,0.1,0s0,0.1,0,0.1v1.6
		c0,0.1,0,0.1,0,0.1s-0.1,0-0.1,0h-4.5c-0.1,0-0.1,0-0.1,0s0-0.1,0-0.1v-8.1c0-0.1,0-0.1,0-0.1c0,0,0.1,0,0.1,0h4.5
		c0.1,0,0.1,0,0.1,0c0,0,0,0.1,0,0.1v1.6C67.1,72.9,67.1,72.9,67,73z"/>
</g>
</svg>
