<?xml version="1.0" encoding="utf-8"?>
<!-- Generator: Adobe Illustrator 26.1.0, SVG Export Plug-In . SVG Version: 6.00 Build 0)  -->
<svg version="1.1" id="Layer_1" xmlns="http://www.w3.org/2000/svg" xmlns:xlink="http://www.w3.org/1999/xlink" x="0px" y="0px"
	 viewBox="0 0 50 50" style="enable-background:new 0 0 50 50;" xml:space="preserve">
<style type="text/css">
	.Drop_x0020_Shadow{fill:none;}
	.Outer_x0020_Glow_x0020_5_x0020_pt{fill:none;}
	.Blue_x0020_Neon{fill:none;stroke:#8AACDA;stroke-width:7;stroke-linecap:round;stroke-linejoin:round;}
	.Chrome_x0020_Highlight{fill:url(#SVGID_1_);stroke:#FFFFFF;stroke-width:0.3629;stroke-miterlimit:1;}
	.Jive_GS{fill:#FFDD00;}
	.Alyssa_GS{fill:#A6D0E4;}
	.st0{clip-path:url(#SVGID_00000066494187364537033780000007092235169090409105_);fill:#D41C1B;}
	.st1{fill:none;stroke:#D41C1B;stroke-miterlimit:10;}
</style>
<linearGradient id="SVGID_1_" gradientUnits="userSpaceOnUse" x1="-25" y1="-25" x2="-25" y2="-26">
	<stop  offset="0" style="stop-color:#656565"/>
	<stop  offset="0.618" style="stop-color:#1B1B1B"/>
	<stop  offset="0.6292" style="stop-color:#545454"/>
	<stop  offset="0.9831" style="stop-color:#3E3E3E"/>
</linearGradient>
<g>
	<g>
		<defs>
			<rect id="SVGID_00000063617322352304509870000009556276062396260543_" x="2.5" y="9" width="45" height="26.7"/>
		</defs>
		<clipPath id="SVGID_00000108290255235561553570000009620682054440422845_">
			<use xlink:href="#SVGID_00000063617322352304509870000009556276062396260543_"  style="overflow:visible;"/>
		</clipPath>
		<path style="clip-path:url(#SVGID_00000108290255235561553570000009620682054440422845_);fill:#D41C1B;" d="M47,9
			c-0.2,0-0.4,0-0.5,0.1c-0.2,0.1-0.3,0.2-0.3,0.4l-1.3,4.8c-1.1-0.1-2.1-0.6-3-1.1c-1-0.5-2.1-1-3.3-1c-1.2,0-2.2,0.5-3.3,1
			c-1.1,0.5-2.2,1.1-3.5,1.1c-1.4,0-2.5-0.6-3.5-1.1c-1-0.5-2.1-1-3.3-1c-1.2,0-2.2,0.5-3.3,1c-1.1,0.5-2.2,1.1-3.5,1.1
			c-0.7,0-1.4-0.1-2-0.4c-0.2-0.1-0.4-0.1-0.5,0c-0.2,0.1-0.3,0.2-0.4,0.4c-0.1,0.2-0.1,0.4,0,0.5c0.1,0.2,0.2,0.3,0.4,0.4
			c0.8,0.3,1.7,0.5,2.5,0.5c1.7,0,3-0.7,4.2-1.3c0.9-0.5,1.8-0.9,2.6-0.9c0.9,0,1.7,0.4,2.6,0.9c1.2,0.6,2.5,1.3,4.2,1.3
			c1.7,0,3-0.7,4.2-1.3c0.9-0.5,1.8-0.9,2.6-0.9s1.7,0.4,2.6,0.9c0.9,0.5,2,1,3.3,1.2l-5.1,18.7h-29L5.5,15.7
			c1.3-0.2,2.3-0.7,3.3-1.2c0.9-0.5,1.8-0.9,2.6-0.9c0.5,0,1,0.1,1.7,0.4c0.2,0.1,0.4,0.1,0.5,0c0.2-0.1,0.3-0.2,0.4-0.4
			c0.1-0.2,0.1-0.4,0-0.5c-0.1-0.2-0.2-0.3-0.4-0.4c-0.6-0.3-1.4-0.6-2.3-0.6c-1.2,0-2.2,0.5-3.3,1c-0.9,0.5-1.9,1-3,1.1L3.9,9.5
			C3.8,9.2,3.4,8.9,3,9C2.7,9.1,2.4,9.5,2.5,9.9l6.6,25.3c0.1,0.3,0.4,0.5,0.7,0.5h30.1c0.3,0,0.6-0.2,0.7-0.5l6.9-25.3
			c0-0.2,0-0.4-0.1-0.5C47.3,9.2,47.2,9.1,47,9L47,9z M47,9"/>
	</g>
	<line class="st1" x1="5.6" y1="38.2" x2="44.4" y2="38.2"/>
	<line class="st1" x1="5.6" y1="41" x2="44.4" y2="41"/>
</g>
</svg>
