<?xml version="1.0" encoding="utf-8"?>
<!-- Generator: Adobe Illustrator 26.1.0, SVG Export Plug-In . SVG Version: 6.00 Build 0)  -->
<svg version="1.1" id="Layer_1" xmlns="http://www.w3.org/2000/svg" xmlns:xlink="http://www.w3.org/1999/xlink" x="0px" y="0px"
	 viewBox="0 0 50 50" style="enable-background:new 0 0 50 50;" xml:space="preserve">
<style type="text/css">
	.st0-wash-60{fill:#D41C1B;}
</style>
<g>
	<g>
		<path class="st0-wash-60" d="M47,11.7c-0.2,0-0.4,0-0.5,0.1c-0.2,0.1-0.3,0.2-0.3,0.4l-1.3,4.8c-1.1-0.1-2.1-0.6-3-1.1c-1-0.5-2.1-1-3.3-1
			c-1.2,0-2.2,0.5-3.3,1c-1.1,0.5-2.2,1.1-3.5,1.1c-1.4,0-2.5-0.6-3.5-1.1c-1-0.5-2.1-1-3.3-1c-1.2,0-2.2,0.5-3.3,1
			c-1.1,0.5-2.2,1.1-3.5,1.1c-0.7,0-1.4-0.1-2-0.4c-0.2-0.1-0.4-0.1-0.5,0c-0.2,0.1-0.3,0.2-0.4,0.4c-0.1,0.2-0.1,0.4,0,0.5
			c0.1,0.2,0.2,0.3,0.4,0.4c0.8,0.3,1.7,0.5,2.5,0.5c1.7,0,3-0.7,4.2-1.3c0.9-0.5,1.8-0.9,2.6-0.9c0.9,0,1.7,0.4,2.6,0.9
			c1.2,0.6,2.5,1.3,4.2,1.3c1.7,0,3-0.7,4.2-1.3c0.9-0.5,1.8-0.9,2.6-0.9c0.9,0,1.7,0.4,2.6,0.9c0.9,0.5,2,1,3.3,1.2L39.3,37h-29
			L5.5,18.3c1.3-0.2,2.3-0.7,3.3-1.2c0.9-0.5,1.8-0.9,2.6-0.9c0.5,0,1,0.1,1.7,0.4c0.2,0.1,0.4,0.1,0.5,0c0.2-0.1,0.3-0.2,0.4-0.4
			c0.1-0.2,0.1-0.4,0-0.5c-0.1-0.2-0.2-0.3-0.4-0.4c-0.6-0.3-1.4-0.6-2.3-0.6c-1.2,0-2.2,0.5-3.3,1c-0.9,0.5-1.9,1-3,1.1l-1.2-4.8
			c-0.1-0.4-0.5-0.6-0.9-0.5c-0.4,0.1-0.6,0.5-0.5,0.9l6.6,25.3c0.1,0.3,0.4,0.5,0.7,0.5h30.1c0.3,0,0.6-0.2,0.7-0.5l6.9-25.3
			c0-0.2,0-0.4-0.1-0.5C47.3,11.8,47.2,11.7,47,11.7L47,11.7z M47,11.7"/>
	</g>
	<g>
		<path class="st0-wash-60" d="M23.7,29.2c0,0.6-0.1,1.1-0.3,1.5c-0.2,0.5-0.6,0.9-1,1.2c-0.5,0.3-1,0.4-1.7,0.4c-0.7,0-1.3-0.2-1.8-0.5
			c-0.5-0.3-0.8-0.8-1-1.4c-0.1-0.4-0.2-0.9-0.2-1.4v-4.4c0-0.8,0.3-1.4,0.8-1.9c0.5-0.5,1.2-0.7,2.1-0.7c0.6,0,1,0.1,1.5,0.3
			c0.4,0.2,0.8,0.5,1,0.9c0.2,0.4,0.4,0.8,0.4,1.3V25c0,0.1,0,0.1-0.1,0.1h-1.1c-0.1,0-0.1,0-0.1-0.1v-0.1c0-0.4-0.1-0.8-0.4-1
			c-0.3-0.3-0.6-0.4-1.1-0.4c-0.5,0-0.8,0.1-1.1,0.4c-0.3,0.3-0.4,0.6-0.4,1.1v1.8c0,0,0,0,0,0c0,0,0,0,0.1,0c0.4-0.5,1-0.7,1.8-0.7
			c1.1,0,1.9,0.4,2.4,1.3C23.6,27.9,23.7,28.5,23.7,29.2z M22.4,29.2c0-0.5-0.1-0.9-0.3-1.2c-0.3-0.5-0.7-0.8-1.4-0.8
			c-0.3,0-0.6,0.1-0.8,0.2c-0.2,0.1-0.4,0.4-0.5,0.6c-0.2,0.3-0.2,0.7-0.2,1.2c0,0.4,0.1,0.7,0.2,1c0.1,0.3,0.3,0.5,0.6,0.7
			s0.5,0.2,0.9,0.2c0.7,0,1.2-0.3,1.4-0.9C22.3,30,22.4,29.6,22.4,29.2z"/>
		<path class="st0-wash-60" d="M26,31.6c-0.6-0.5-0.8-1.3-0.8-2.2v-4.2c0-0.9,0.3-1.6,0.8-2.2c0.6-0.5,1.3-0.8,2.3-0.8c1,0,1.7,0.3,2.3,0.8
			c0.6,0.5,0.9,1.3,0.9,2.2v4.2c0,0.9-0.3,1.6-0.9,2.2c-0.6,0.5-1.3,0.8-2.3,0.8C27.4,32.4,26.6,32.2,26,31.6z M29.6,30.8
			c0.3-0.3,0.5-0.7,0.5-1.3v-4.3c0-0.5-0.2-0.9-0.5-1.3c-0.3-0.3-0.8-0.5-1.3-0.5c-0.5,0-1,0.2-1.3,0.5c-0.3,0.3-0.5,0.7-0.5,1.3
			v4.3c0,0.5,0.2,0.9,0.5,1.3c0.3,0.3,0.7,0.5,1.3,0.5C28.9,31.3,29.3,31.1,29.6,30.8z"/>
	</g>
</g>
</svg>
