<?xml version="1.0" encoding="utf-8"?>
<!-- Generator: Adobe Illustrator 26.1.0, SVG Export Plug-In . SVG Version: 6.00 Build 0)  -->
<svg version="1.1" id="Layer_1" xmlns="http://www.w3.org/2000/svg" xmlns:xlink="http://www.w3.org/1999/xlink" x="0px" y="0px"
	 viewBox="0 0 50 50" style="enable-background:new 0 0 50 50;" xml:space="preserve">
<style type="text/css">
	.st0-wash-del{fill:#D41C1B;}
	.st1-wash-del{fill:none;stroke:#D41C1B;stroke-miterlimit:10;}
</style>
<g>
	<g>
		<path class="st0-wash-del" d="M47,10.4c-0.2,0-0.4,0-0.5,0.1c-0.2,0.1-0.3,0.2-0.3,0.4l-1.3,4.8c-1.1-0.1-2.1-0.6-3-1.1c-1-0.5-2.1-1-3.3-1
			c-1.2,0-2.2,0.5-3.3,1c-1.1,0.5-2.2,1.1-3.5,1.1c-1.4,0-2.5-0.6-3.5-1.1c-1-0.5-2.1-1-3.3-1c-1.2,0-2.2,0.5-3.3,1
			c-1.1,0.5-2.2,1.1-3.5,1.1c-0.7,0-1.4-0.1-2-0.4c-0.2-0.1-0.4-0.1-0.5,0c-0.2,0.1-0.3,0.2-0.4,0.4c-0.1,0.2-0.1,0.4,0,0.5
			c0.1,0.2,0.2,0.3,0.4,0.4c0.8,0.3,1.7,0.5,2.5,0.5c1.7,0,3-0.7,4.2-1.3c0.9-0.5,1.8-0.9,2.6-0.9c0.9,0,1.7,0.4,2.6,0.9
			c1.2,0.6,2.5,1.3,4.2,1.3c1.7,0,3-0.7,4.2-1.3c0.9-0.5,1.8-0.9,2.6-0.9c0.9,0,1.7,0.4,2.6,0.9c0.9,0.5,2,1,3.3,1.2l-5.1,18.7h-29
			L5.5,17c1.3-0.2,2.3-0.7,3.3-1.2c0.9-0.5,1.8-0.9,2.6-0.9c0.5,0,1,0.1,1.7,0.4c0.2,0.1,0.4,0.1,0.5,0c0.2-0.1,0.3-0.2,0.4-0.4
			c0.1-0.2,0.1-0.4,0-0.5c-0.1-0.2-0.2-0.3-0.4-0.4c-0.6-0.3-1.4-0.6-2.3-0.6c-1.2,0-2.2,0.5-3.3,1c-0.9,0.5-1.9,1-3,1.1l-1.2-4.8
			c-0.1-0.4-0.5-0.6-0.9-0.5c-0.4,0.1-0.6,0.5-0.5,0.9l6.6,25.3c0.1,0.3,0.4,0.5,0.7,0.5h30.1c0.3,0,0.6-0.2,0.7-0.5l6.9-25.3
			c0-0.2,0-0.4-0.1-0.5C47.3,10.6,47.2,10.5,47,10.4L47,10.4z M47,10.4"/>
	</g>
	<line class="st1-wash-del" x1="5.6" y1="39.6" x2="44.4" y2="39.6"/>
</g>
</svg>
