<?xml version="1.0" encoding="utf-8"?>
<!-- Generator: Adobe Illustrator 26.1.0, SVG Export Plug-In . SVG Version: 6.00 Build 0)  -->
<svg version="1.1" id="Layer_1" xmlns="http://www.w3.org/2000/svg" xmlns:xlink="http://www.w3.org/1999/xlink" x="0px" y="0px"
	 viewBox="0 0 50 50" style="enable-background:new 0 0 50 50;" xml:space="preserve">
<style type="text/css">
	.st0-wash-40{fill:#D41C1B;}
</style>
<g>
	<g>
		<path class="st0-wash-40" d="M47,11.7c-0.2,0-0.4,0-0.5,0.1c-0.2,0.1-0.3,0.2-0.3,0.4l-1.3,4.8c-1.1-0.1-2.1-0.6-3-1.1c-1-0.5-2.1-1-3.3-1
			c-1.2,0-2.2,0.5-3.3,1c-1.1,0.5-2.2,1.1-3.5,1.1c-1.4,0-2.5-0.6-3.5-1.1c-1-0.5-2.1-1-3.3-1c-1.2,0-2.2,0.5-3.3,1
			c-1.1,0.5-2.2,1.1-3.5,1.1c-0.7,0-1.4-0.1-2-0.4c-0.2-0.1-0.4-0.1-0.5,0c-0.2,0.1-0.3,0.2-0.4,0.4c-0.1,0.2-0.1,0.4,0,0.5
			c0.1,0.2,0.2,0.3,0.4,0.4c0.8,0.3,1.7,0.5,2.5,0.5c1.7,0,3-0.7,4.2-1.3c0.9-0.5,1.8-0.9,2.6-0.9c0.9,0,1.7,0.4,2.6,0.9
			c1.2,0.6,2.5,1.3,4.2,1.3c1.7,0,3-0.7,4.2-1.3c0.9-0.5,1.8-0.9,2.6-0.9c0.9,0,1.7,0.4,2.6,0.9c0.9,0.5,2,1,3.3,1.2L39.3,37h-29
			L5.5,18.3c1.3-0.2,2.3-0.7,3.3-1.2c0.9-0.5,1.8-0.9,2.6-0.9c0.5,0,1,0.1,1.7,0.4c0.2,0.1,0.4,0.1,0.5,0c0.2-0.1,0.3-0.2,0.4-0.4
			c0.1-0.2,0.1-0.4,0-0.5c-0.1-0.2-0.2-0.3-0.4-0.4c-0.6-0.3-1.4-0.6-2.3-0.6c-1.2,0-2.2,0.5-3.3,1c-0.9,0.5-1.9,1-3,1.1l-1.2-4.8
			c-0.1-0.4-0.5-0.6-0.9-0.5c-0.4,0.1-0.6,0.5-0.5,0.9l6.6,25.3c0.1,0.3,0.4,0.5,0.7,0.5h30.1c0.3,0,0.6-0.2,0.7-0.5l6.9-25.3
			c0-0.2,0-0.4-0.1-0.5C47.3,11.8,47.2,11.7,47,11.7L47,11.7z M47,11.7"/>
	</g>
	<g>
		<path class="st0-wash-40" d="M24.2,28.6v0.9c0,0.1,0,0.1-0.1,0.1h-0.6c0,0-0.1,0-0.1,0.1v2.5c0,0.1,0,0.1-0.1,0.1h-1.1
			c-0.1,0-0.1,0-0.1-0.1v-2.5c0,0,0-0.1-0.1-0.1h-4.3c-0.1,0-0.1,0-0.1-0.1v-0.8c0,0,0-0.1,0-0.2l2.8-6.1c0-0.1,0.1-0.1,0.2-0.1h1.1
			c0,0,0.1,0,0.1,0c0,0,0,0.1,0,0.1l-2.7,5.8c0,0,0,0,0,0c0,0,0,0,0,0H22c0,0,0.1,0,0.1-0.1v-2.1c0-0.1,0-0.1,0.1-0.1h1.1
			c0.1,0,0.1,0,0.1,0.1v2.1c0,0,0,0.1,0.1,0.1h0.6C24.2,28.5,24.2,28.5,24.2,28.6z"/>
		<path class="st0-wash-40" d="M26.7,31.7c-0.6-0.5-0.8-1.3-0.8-2.2v-4.2c0-0.9,0.3-1.6,0.8-2.2c0.6-0.5,1.3-0.8,2.3-0.8
			c1,0,1.7,0.3,2.3,0.8c0.6,0.5,0.9,1.3,0.9,2.2v4.2c0,0.9-0.3,1.6-0.9,2.2c-0.6,0.5-1.3,0.8-2.3,0.8C28.1,32.5,27.3,32.2,26.7,31.7
			z M30.3,30.8c0.3-0.3,0.5-0.7,0.5-1.3v-4.3c0-0.5-0.2-0.9-0.5-1.3c-0.3-0.3-0.8-0.5-1.3-0.5c-0.5,0-1,0.2-1.3,0.5
			c-0.3,0.3-0.5,0.7-0.5,1.3v4.3c0,0.5,0.2,0.9,0.5,1.3c0.3,0.3,0.7,0.5,1.3,0.5C29.6,31.3,30,31.1,30.3,30.8z"/>
	</g>
</g>
</svg>
