<?xml version="1.0" encoding="utf-8"?>
<!-- Generator: Adobe Illustrator 26.1.0, SVG Export Plug-In . SVG Version: 6.00 Build 0)  -->
<svg version="1.1" id="Layer_1" xmlns="http://www.w3.org/2000/svg" xmlns:xlink="http://www.w3.org/1999/xlink" x="0px" y="0px"
	 viewBox="0 0 50 50" style="enable-background:new 0 0 50 50;" xml:space="preserve">
<style type="text/css">
	.st0-wash-30{fill:#D41C1B;}
</style>
<g>
	<g>
		<path class="st0-wash-30" d="M47,11.7c-0.2,0-0.4,0-0.5,0.1c-0.2,0.1-0.3,0.2-0.3,0.4L44.9,17c-1.1-0.1-2.1-0.6-3-1.1c-1-0.5-2.1-1-3.3-1
			s-2.2,0.5-3.3,1c-1.1,0.5-2.2,1.1-3.5,1.1c-1.4,0-2.5-0.6-3.5-1.1c-1-0.5-2.1-1-3.3-1c-1.2,0-2.2,0.5-3.3,1
			c-1.1,0.5-2.2,1.1-3.5,1.1c-0.7,0-1.4-0.1-2-0.4c-0.2,0-0.4,0-0.6,0c-0.2,0.1-0.3,0.2-0.4,0.4c-0.1,0.2-0.1,0.4,0,0.5
			c0.1,0.2,0.2,0.3,0.4,0.4c0.8,0.3,1.7,0.5,2.5,0.5c1.7,0,3-0.7,4.2-1.3c0.9-0.5,1.8-0.9,2.6-0.9c0.9,0,1.7,0.4,2.6,0.9
			c1.2,0.6,2.5,1.3,4.2,1.3s3-0.7,4.2-1.3c0.9-0.5,1.8-0.9,2.6-0.9c0.9,0,1.7,0.4,2.6,0.9c0.9,0.5,2,1,3.3,1.2L39.3,37h-29L5.5,18.4
			c1.3-0.2,2.3-0.7,3.3-1.2c0.9-0.5,1.8-0.9,2.6-0.9c0.5,0,1,0.1,1.7,0.4c0.2,0.1,0.4,0.1,0.5,0c0.2-0.1,0.3-0.2,0.4-0.4
			c0.1-0.2,0.1-0.4,0-0.5c-0.1-0.2-0.2-0.3-0.4-0.4c-0.6-0.3-1.4-0.6-2.3-0.6c-1.2,0-2.2,0.5-3.3,1c-0.9,0.5-1.9,1-3,1.1l-1.2-4.8
			c0-0.2-0.4-0.5-0.8-0.4s-0.6,0.5-0.5,0.9l6.6,25.3c0.1,0.3,0.4,0.5,0.7,0.5h30.1c0.3,0,0.6-0.2,0.7-0.5l6.9-25.3
			c0-0.2,0-0.4-0.1-0.5C47.3,11.9,47.2,11.8,47,11.7L47,11.7z"/>
	</g>
	<g>
		<path class="st0-wash-30" d="M23.9,29.3c0,0.5-0.1,1-0.2,1.4c-0.2,0.6-0.6,1-1,1.4c-0.5,0.3-1.1,0.5-1.7,0.5c-0.7,0-1.3-0.2-1.8-0.5
			s-0.8-0.8-1-1.4c-0.1-0.3-0.2-0.6-0.2-1.1c0-0.1,0-0.1,0.1-0.1h1.1c0.1,0,0.1,0,0.1,0.1c0,0.3,0.1,0.6,0.1,0.7
			c0.1,0.3,0.3,0.6,0.5,0.8c0.3,0.2,0.6,0.3,1,0.3c0.7,0,1.2-0.3,1.4-1c0.1-0.3,0.2-0.7,0.2-1.1c0-0.5-0.1-0.9-0.2-1.3
			c-0.3-0.6-0.7-0.9-1.4-0.9c-0.2,0-0.4,0.1-0.6,0.2h-0.1c0,0-0.1,0-0.1-0.1l-0.5-0.7v-0.1v-0.1l2.4-2.6v-0.1h-3.8
			c-0.1,0-0.1,0-0.1-0.1v-0.9c0-0.1,0-0.1,0.1-0.1h5.5c0.1,0,0.1,0,0.1,0.1v1c0,0,0,0.1-0.1,0.2l-2.1,2.3l0,0c0,0,0,0,0.1,0
			c0.5,0,0.9,0.2,1.2,0.4c0.3,0.2,0.6,0.6,0.8,1C23.8,28.1,23.9,28.7,23.9,29.3z"/>
		<path class="st0-wash-30" d="M26.4,31.7c-0.6-0.5-0.8-1.3-0.8-2.2v-4.2c0-0.9,0.3-1.6,0.8-2.2c0.6-0.5,1.3-0.8,2.3-0.8s1.7,0.3,2.3,0.8
			c0.6,0.5,0.9,1.3,0.9,2.2v4.2c0,0.9-0.3,1.6-0.9,2.2c-0.6,0.5-1.3,0.8-2.3,0.8C27.7,32.5,26.9,32.2,26.4,31.7z M30,30.9
			c0.3-0.3,0.5-0.7,0.5-1.3v-4.3c0-0.5-0.2-0.9-0.5-1.3c-0.3-0.3-0.8-0.5-1.3-0.5s-1,0.2-1.3,0.5s-0.5,0.7-0.5,1.3v4.3
			c0,0.5,0.2,0.9,0.5,1.3c0.3,0.3,0.7,0.5,1.3,0.5C29.2,31.3,29.6,31.2,30,30.9z"/>
	</g>
</g>
</svg>
