<svg xmlns="http://www.w3.org/2000/svg" width="32" height="21.333" viewBox="0 0 32 21.333">
  <g id="Groupe_414" data-name="Groupe 414" transform="translate(0 -85.333)">
    <path id="Tracé_292" data-name="Tracé 292" d="M29.559,87.647a2.675,2.675,0,0,0-2.643-2.314H11.333a.667.667,0,0,0,0,1.333H26.915a1.338,1.338,0,0,1,1.322,1.157l.913,6.843H11.333A11.346,11.346,0,0,0,0,106a.666.666,0,0,0,.667.667H31.333a.667.667,0,0,0,.661-.755Zm-28.2,17.686A10.013,10.013,0,0,1,11.333,96H29.328l1.244,9.333Z" fill="#d41c1b"/>
    <circle id="Ellipse_73" data-name="Ellipse 73" cx="1.333" cy="1.333" r="1.333" transform="translate(14.667 99.333)" fill="#d41c1b"/>
  </g>
</svg>
