<svg xmlns="http://www.w3.org/2000/svg" width="36.001" height="24" viewBox="0 0 36.001 24">
  <path id="Tracé_293" data-name="Tracé 293" d="M35.928,93.273a.751.751,0,0,0-.993-.372l-.317.144,1.363-6.813a.75.75,0,0,0-1.471-.294l-1.031,5.156A4.4,4.4,0,0,1,32.3,90.078a4,4,0,0,0-6.6,0A2.785,2.785,0,0,1,23.5,91.334a2.788,2.788,0,0,1-2.194-1.256,4.218,4.218,0,0,0-3.3-1.744,4.214,4.214,0,0,0-3.3,1.743,2.794,2.794,0,0,1-2.2,1.257,2.8,2.8,0,0,1-2.2-1.257A4.223,4.223,0,0,0,7,88.335a4.218,4.218,0,0,0-3.3,1.743A4.405,4.405,0,0,1,2.513,91.1L1.481,85.938a.75.75,0,0,0-1.471.294l1.363,6.813L1.056,92.9a.75.75,0,1,0-.621,1.365l1.3.591L4.144,106.9l-2.208,1a.75.75,0,1,0,.621,1.365l2.235-1.016a3,3,0,0,0,2.3,1.083H28.9a3,3,0,0,0,2.3-1.083l2.235,1.016a.75.75,0,0,0,.621-1.365l-2.208-1,2.408-12.04,1.3-.591A.75.75,0,0,0,35.928,93.273ZM2.813,92.6a5.109,5.109,0,0,0,1.989-1.5A2.8,2.8,0,0,1,7,89.834a2.8,2.8,0,0,1,2.2,1.258,4.222,4.222,0,0,0,3.3,1.742,4.218,4.218,0,0,0,3.3-1.744,2.788,2.788,0,0,1,2.194-1.256,2.794,2.794,0,0,1,2.2,1.257,4,4,0,0,0,6.6,0,2.547,2.547,0,0,1,4.392,0,5.1,5.1,0,0,0,1.983,1.5l-.243,1.215L18,100.6,3.056,93.81Zm.605,3.027,12.765,5.8L5.546,106.26ZM28.9,107.833H7.09a1.473,1.473,0,0,1-.809-.261L18,102.248l11.714,5.325A1.473,1.473,0,0,1,28.9,107.833Zm1.544-1.574-10.638-4.835,12.765-5.8Z" transform="translate(0.005 -85.333)" fill="#d41c1b"/>
</svg>
