<svg xmlns="http://www.w3.org/2000/svg" width="44.064" height="44.708" viewBox="0 0 44.064 44.708">
  <g id="Groupe_413" data-name="Groupe 413" transform="translate(-500 -199)">
    <path id="Tracé_288" data-name="Tracé 288" d="M541.32,201.8l2.745-1.544L543.356,199l-2.744,1.544a37.954,37.954,0,0,1-6.385,2.838,2.163,2.163,0,0,0-4.246.584v.59a38.062,38.062,0,0,1-15.9,0v-.589a2.162,2.162,0,0,0-4.245-.584,38.01,38.01,0,0,1-6.386-2.838L500.708,199,500,200.26l2.745,1.544a39.415,39.415,0,0,0,7,3.075v2.7h-4.336a.723.723,0,0,0-.723.723v7.949a.723.723,0,0,0,.723.723h4.336a.723.723,0,0,1,.723.723v16.62a.723.723,0,0,0,.723.723h21.678a.723.723,0,0,0,.723-.723v-16.62a.723.723,0,0,1,.723-.723h4.336a.723.723,0,0,0,.723-.723V208.3a.723.723,0,0,0-.723-.723h-4.336v-2.7a39.413,39.413,0,0,0,7-3.075Zm-9.894,2.162a.723.723,0,1,1,1.445,0v5.781a.723.723,0,0,1-1.445,0Zm-9.394,2.89a39.388,39.388,0,0,0,7.949-.827v1.549h-3.613a.723.723,0,0,0-.723.723,3.613,3.613,0,1,1-7.226,0,.723.723,0,0,0-.723-.723h-3.613v-1.55a39.406,39.406,0,0,0,7.949.827Zm-10.839-2.89a.723.723,0,0,1,1.445,0v5.781a.723.723,0,0,1-1.445,0Zm.723,18.788h20.233v4.336H511.916Zm0,10.839v-5.058h20.233v5.058Zm26.014-24.568v6.5h-3.613a2.17,2.17,0,0,0-2.168,2.168v3.613H511.916v-3.613a2.17,2.17,0,0,0-2.168-2.168h-3.613v-6.5h3.613v.723a2.168,2.168,0,0,0,4.336,0v-.723h2.942a5.059,5.059,0,0,0,10.014,0h2.942v.723a2.168,2.168,0,1,0,4.336,0v-.723Zm0,0" fill="#d41c1b"/>
    <path id="Tracé_289" data-name="Tracé 289" d="M734.41,510.634a.749.749,0,0,0-1.156,0l-1.735,2.313a2.891,2.891,0,1,0,4.625,0Zm-.578,5.492a1.446,1.446,0,0,1-1.157-2.312l1.157-1.541,1.156,1.541a1.445,1.445,0,0,1-1.156,2.312Zm0,0" transform="translate(-203.128 -273.862)" fill="#d41c1b"/>
    <path id="Tracé_290" data-name="Tracé 290" d="M590.41,510.634a.749.749,0,0,0-1.156,0l-1.735,2.313a2.891,2.891,0,1,0,4.625,0Zm-.578,5.492a1.446,1.446,0,0,1-1.157-2.312l1.157-1.541,1.156,1.541a1.445,1.445,0,0,1-1.156,2.312Zm0,0" transform="translate(-76.47 -273.862)" fill="#d41c1b"/>
    <path id="Tracé_291" data-name="Tracé 291" d="M722.554,324.23h-2.89a.723.723,0,0,0-.723.723v2.89a2.168,2.168,0,0,0,4.336,0v-2.89a.723.723,0,0,0-.723-.723Zm-.723,3.613a.723.723,0,0,1-1.445,0v-2.168h1.445Zm0,0" transform="translate(-192.573 -110.148)" fill="#d41c1b"/>
  </g>
</svg>
